<svg xmlns="http://www.w3.org/2000/svg" xmlns:xlink="http://www.w3.org/1999/xlink" width="600" height="400" viewBox="0 0 2400 1600">
<defs>
  <clipPath id="clip190">
    <rect x="0" y="0" width="2400" height="1600"></rect>
  </clipPath>
</defs>
<path clip-path="url(#clip190)" d="M0 1600 L2400 1600 L2400 0 L0 0  Z" fill="#ffffff" fill-rule="evenodd" fill-opacity="1"></path>
<defs>
  <clipPath id="clip191">
    <rect x="480" y="0" width="1681" height="1600"></rect>
  </clipPath>
</defs>
<path clip-path="url(#clip190)" d="M223.103 1486.45 L1186.01 1486.45 L1186.01 47.2441 L223.103 47.2441  Z" fill="#ffffff" fill-rule="evenodd" fill-opacity="1"></path>
<defs>
  <clipPath id="clip192">
    <rect x="223" y="47" width="964" height="1440"></rect>
  </clipPath>
</defs>
<polyline clip-path="url(#clip192)" style="stroke:#000000; stroke-linecap:round; stroke-linejoin:round; stroke-width:2; stroke-opacity:0.1; fill:none" points="223.103,1486.45 223.103,47.2441 "></polyline>
<polyline clip-path="url(#clip192)" style="stroke:#000000; stroke-linecap:round; stroke-linejoin:round; stroke-width:2; stroke-opacity:0.1; fill:none" points="463.829,1486.45 463.829,47.2441 "></polyline>
<polyline clip-path="url(#clip192)" style="stroke:#000000; stroke-linecap:round; stroke-linejoin:round; stroke-width:2; stroke-opacity:0.1; fill:none" points="704.555,1486.45 704.555,47.2441 "></polyline>
<polyline clip-path="url(#clip192)" style="stroke:#000000; stroke-linecap:round; stroke-linejoin:round; stroke-width:2; stroke-opacity:0.1; fill:none" points="945.282,1486.45 945.282,47.2441 "></polyline>
<polyline clip-path="url(#clip192)" style="stroke:#000000; stroke-linecap:round; stroke-linejoin:round; stroke-width:2; stroke-opacity:0.1; fill:none" points="1186.01,1486.45 1186.01,47.2441 "></polyline>
<polyline clip-path="url(#clip190)" style="stroke:#000000; stroke-linecap:round; stroke-linejoin:round; stroke-width:4; stroke-opacity:1; fill:none" points="223.103,1486.45 1186.01,1486.45 "></polyline>
<polyline clip-path="url(#clip190)" style="stroke:#000000; stroke-linecap:round; stroke-linejoin:round; stroke-width:4; stroke-opacity:1; fill:none" points="223.103,1486.45 223.103,1467.55 "></polyline>
<polyline clip-path="url(#clip190)" style="stroke:#000000; stroke-linecap:round; stroke-linejoin:round; stroke-width:4; stroke-opacity:1; fill:none" points="463.829,1486.45 463.829,1467.55 "></polyline>
<polyline clip-path="url(#clip190)" style="stroke:#000000; stroke-linecap:round; stroke-linejoin:round; stroke-width:4; stroke-opacity:1; fill:none" points="704.555,1486.45 704.555,1467.55 "></polyline>
<polyline clip-path="url(#clip190)" style="stroke:#000000; stroke-linecap:round; stroke-linejoin:round; stroke-width:4; stroke-opacity:1; fill:none" points="945.282,1486.45 945.282,1467.55 "></polyline>
<polyline clip-path="url(#clip190)" style="stroke:#000000; stroke-linecap:round; stroke-linejoin:round; stroke-width:4; stroke-opacity:1; fill:none" points="1186.01,1486.45 1186.01,1467.55 "></polyline>
<path clip-path="url(#clip190)" d="M169.631 1532.02 L199.306 1532.02 L199.306 1535.95 L169.631 1535.95 L169.631 1532.02 Z" fill="#000000" fill-rule="nonzero" fill-opacity="1"></path><path clip-path="url(#clip190)" d="M210.209 1544.91 L217.848 1544.91 L217.848 1518.55 L209.538 1520.21 L209.538 1515.95 L217.802 1514.29 L222.478 1514.29 L222.478 1544.91 L230.116 1544.91 L230.116 1548.85 L210.209 1548.85 L210.209 1544.91 Z" fill="#000000" fill-rule="nonzero" fill-opacity="1"></path><path clip-path="url(#clip190)" d="M239.561 1542.97 L244.445 1542.97 L244.445 1548.85 L239.561 1548.85 L239.561 1542.97 Z" fill="#000000" fill-rule="nonzero" fill-opacity="1"></path><path clip-path="url(#clip190)" d="M264.63 1517.37 Q261.019 1517.37 259.19 1520.93 Q257.385 1524.47 257.385 1531.6 Q257.385 1538.71 259.19 1542.27 Q261.019 1545.82 264.63 1545.82 Q268.264 1545.82 270.07 1542.27 Q271.899 1538.71 271.899 1531.6 Q271.899 1524.47 270.07 1520.93 Q268.264 1517.37 264.63 1517.37 M264.63 1513.66 Q270.44 1513.66 273.496 1518.27 Q276.574 1522.85 276.574 1531.6 Q276.574 1540.33 273.496 1544.94 Q270.44 1549.52 264.63 1549.52 Q258.82 1549.52 255.741 1544.94 Q252.686 1540.33 252.686 1531.6 Q252.686 1522.85 255.741 1518.27 Q258.82 1513.66 264.63 1513.66 Z" fill="#000000" fill-rule="nonzero" fill-opacity="1"></path><path clip-path="url(#clip190)" d="M410.855 1532.02 L440.53 1532.02 L440.53 1535.95 L410.855 1535.95 L410.855 1532.02 Z" fill="#000000" fill-rule="nonzero" fill-opacity="1"></path><path clip-path="url(#clip190)" d="M460.623 1517.37 Q457.012 1517.37 455.183 1520.93 Q453.378 1524.47 453.378 1531.6 Q453.378 1538.71 455.183 1542.27 Q457.012 1545.82 460.623 1545.82 Q464.257 1545.82 466.063 1542.27 Q467.891 1538.71 467.891 1531.6 Q467.891 1524.47 466.063 1520.93 Q464.257 1517.37 460.623 1517.37 M460.623 1513.66 Q466.433 1513.66 469.489 1518.27 Q472.567 1522.85 472.567 1531.6 Q472.567 1540.33 469.489 1544.94 Q466.433 1549.52 460.623 1549.52 Q454.813 1549.52 451.734 1544.94 Q448.679 1540.33 448.679 1531.6 Q448.679 1522.85 451.734 1518.27 Q454.813 1513.66 460.623 1513.66 Z" fill="#000000" fill-rule="nonzero" fill-opacity="1"></path><path clip-path="url(#clip190)" d="M480.785 1542.97 L485.669 1542.97 L485.669 1548.85 L480.785 1548.85 L480.785 1542.97 Z" fill="#000000" fill-rule="nonzero" fill-opacity="1"></path><path clip-path="url(#clip190)" d="M495.9 1514.29 L514.257 1514.29 L514.257 1518.22 L500.183 1518.22 L500.183 1526.7 Q501.201 1526.35 502.22 1526.19 Q503.238 1526 504.257 1526 Q510.044 1526 513.424 1529.17 Q516.803 1532.34 516.803 1537.76 Q516.803 1543.34 513.331 1546.44 Q509.859 1549.52 503.539 1549.52 Q501.363 1549.52 499.095 1549.15 Q496.85 1548.78 494.442 1548.04 L494.442 1543.34 Q496.525 1544.47 498.748 1545.03 Q500.97 1545.58 503.447 1545.58 Q507.451 1545.58 509.789 1543.48 Q512.127 1541.37 512.127 1537.76 Q512.127 1534.15 509.789 1532.04 Q507.451 1529.94 503.447 1529.94 Q501.572 1529.94 499.697 1530.35 Q497.845 1530.77 495.9 1531.65 L495.9 1514.29 Z" fill="#000000" fill-rule="nonzero" fill-opacity="1"></path><path clip-path="url(#clip190)" d="M681.94 1517.37 Q678.329 1517.37 676.5 1520.93 Q674.694 1524.47 674.694 1531.6 Q674.694 1538.71 676.5 1542.27 Q678.329 1545.82 681.94 1545.82 Q685.574 1545.82 687.379 1542.27 Q689.208 1538.71 689.208 1531.6 Q689.208 1524.47 687.379 1520.93 Q685.574 1517.37 681.94 1517.37 M681.94 1513.66 Q687.75 1513.66 690.805 1518.27 Q693.884 1522.85 693.884 1531.6 Q693.884 1540.33 690.805 1544.94 Q687.75 1549.52 681.94 1549.52 Q676.13 1549.52 673.051 1544.94 Q669.995 1540.33 669.995 1531.6 Q669.995 1522.85 673.051 1518.27 Q676.13 1513.66 681.94 1513.66 Z" fill="#000000" fill-rule="nonzero" fill-opacity="1"></path><path clip-path="url(#clip190)" d="M702.102 1542.97 L706.986 1542.97 L706.986 1548.85 L702.102 1548.85 L702.102 1542.97 Z" fill="#000000" fill-rule="nonzero" fill-opacity="1"></path><path clip-path="url(#clip190)" d="M727.171 1517.37 Q723.56 1517.37 721.731 1520.93 Q719.926 1524.47 719.926 1531.6 Q719.926 1538.71 721.731 1542.27 Q723.56 1545.82 727.171 1545.82 Q730.805 1545.82 732.611 1542.27 Q734.439 1538.71 734.439 1531.6 Q734.439 1524.47 732.611 1520.93 Q730.805 1517.37 727.171 1517.37 M727.171 1513.66 Q732.981 1513.66 736.037 1518.27 Q739.115 1522.85 739.115 1531.6 Q739.115 1540.33 736.037 1544.94 Q732.981 1549.52 727.171 1549.52 Q721.361 1549.52 718.282 1544.94 Q715.227 1540.33 715.227 1531.6 Q715.227 1522.85 718.282 1518.27 Q721.361 1513.66 727.171 1513.66 Z" fill="#000000" fill-rule="nonzero" fill-opacity="1"></path><path clip-path="url(#clip190)" d="M923.164 1517.37 Q919.553 1517.37 917.724 1520.93 Q915.918 1524.47 915.918 1531.6 Q915.918 1538.71 917.724 1542.27 Q919.553 1545.82 923.164 1545.82 Q926.798 1545.82 928.604 1542.27 Q930.432 1538.71 930.432 1531.6 Q930.432 1524.47 928.604 1520.93 Q926.798 1517.37 923.164 1517.37 M923.164 1513.66 Q928.974 1513.66 932.029 1518.27 Q935.108 1522.85 935.108 1531.6 Q935.108 1540.33 932.029 1544.94 Q928.974 1549.52 923.164 1549.52 Q917.354 1549.52 914.275 1544.94 Q911.219 1540.33 911.219 1531.6 Q911.219 1522.85 914.275 1518.27 Q917.354 1513.66 923.164 1513.66 Z" fill="#000000" fill-rule="nonzero" fill-opacity="1"></path><path clip-path="url(#clip190)" d="M943.326 1542.97 L948.21 1542.97 L948.21 1548.85 L943.326 1548.85 L943.326 1542.97 Z" fill="#000000" fill-rule="nonzero" fill-opacity="1"></path><path clip-path="url(#clip190)" d="M958.441 1514.29 L976.798 1514.29 L976.798 1518.22 L962.724 1518.22 L962.724 1526.7 Q963.742 1526.35 964.761 1526.19 Q965.779 1526 966.798 1526 Q972.585 1526 975.964 1529.17 Q979.344 1532.34 979.344 1537.76 Q979.344 1543.34 975.872 1546.44 Q972.4 1549.52 966.08 1549.52 Q963.904 1549.52 961.636 1549.15 Q959.39 1548.78 956.983 1548.04 L956.983 1543.34 Q959.066 1544.47 961.289 1545.03 Q963.511 1545.58 965.988 1545.58 Q969.992 1545.58 972.33 1543.48 Q974.668 1541.37 974.668 1537.76 Q974.668 1534.15 972.33 1532.04 Q969.992 1529.94 965.988 1529.94 Q964.113 1529.94 962.238 1530.35 Q960.386 1530.77 958.441 1531.65 L958.441 1514.29 Z" fill="#000000" fill-rule="nonzero" fill-opacity="1"></path><path clip-path="url(#clip190)" d="M1153.16 1544.91 L1160.8 1544.91 L1160.8 1518.55 L1152.49 1520.21 L1152.49 1515.95 L1160.75 1514.29 L1165.43 1514.29 L1165.43 1544.91 L1173.07 1544.91 L1173.07 1548.85 L1153.16 1548.85 L1153.16 1544.91 Z" fill="#000000" fill-rule="nonzero" fill-opacity="1"></path><path clip-path="url(#clip190)" d="M1182.51 1542.97 L1187.4 1542.97 L1187.4 1548.85 L1182.51 1548.85 L1182.51 1542.97 Z" fill="#000000" fill-rule="nonzero" fill-opacity="1"></path><path clip-path="url(#clip190)" d="M1207.58 1517.37 Q1203.97 1517.37 1202.14 1520.93 Q1200.34 1524.47 1200.34 1531.6 Q1200.34 1538.71 1202.14 1542.27 Q1203.97 1545.82 1207.58 1545.82 Q1211.22 1545.82 1213.02 1542.27 Q1214.85 1538.71 1214.85 1531.6 Q1214.85 1524.47 1213.02 1520.93 Q1211.22 1517.37 1207.58 1517.37 M1207.58 1513.66 Q1213.39 1513.66 1216.45 1518.27 Q1219.53 1522.85 1219.53 1531.6 Q1219.53 1540.33 1216.45 1544.94 Q1213.39 1549.52 1207.58 1549.52 Q1201.77 1549.52 1198.69 1544.94 Q1195.64 1540.33 1195.64 1531.6 Q1195.64 1522.85 1198.69 1518.27 Q1201.77 1513.66 1207.58 1513.66 Z" fill="#000000" fill-rule="nonzero" fill-opacity="1"></path><polyline clip-path="url(#clip192)" style="stroke:#000000; stroke-linecap:round; stroke-linejoin:round; stroke-width:2; stroke-opacity:0.1; fill:none" points="223.103,1167.92 1186.01,1167.92 "></polyline>
<polyline clip-path="url(#clip192)" style="stroke:#000000; stroke-linecap:round; stroke-linejoin:round; stroke-width:2; stroke-opacity:0.1; fill:none" points="223.103,839.236 1186.01,839.236 "></polyline>
<polyline clip-path="url(#clip192)" style="stroke:#000000; stroke-linecap:round; stroke-linejoin:round; stroke-width:2; stroke-opacity:0.1; fill:none" points="223.103,510.557 1186.01,510.557 "></polyline>
<polyline clip-path="url(#clip192)" style="stroke:#000000; stroke-linecap:round; stroke-linejoin:round; stroke-width:2; stroke-opacity:0.1; fill:none" points="223.103,181.878 1186.01,181.878 "></polyline>
<polyline clip-path="url(#clip190)" style="stroke:#000000; stroke-linecap:round; stroke-linejoin:round; stroke-width:4; stroke-opacity:1; fill:none" points="223.103,1486.45 223.103,47.2441 "></polyline>
<polyline clip-path="url(#clip190)" style="stroke:#000000; stroke-linecap:round; stroke-linejoin:round; stroke-width:4; stroke-opacity:1; fill:none" points="223.103,1167.92 242,1167.92 "></polyline>
<polyline clip-path="url(#clip190)" style="stroke:#000000; stroke-linecap:round; stroke-linejoin:round; stroke-width:4; stroke-opacity:1; fill:none" points="223.103,839.236 242,839.236 "></polyline>
<polyline clip-path="url(#clip190)" style="stroke:#000000; stroke-linecap:round; stroke-linejoin:round; stroke-width:4; stroke-opacity:1; fill:none" points="223.103,510.557 242,510.557 "></polyline>
<polyline clip-path="url(#clip190)" style="stroke:#000000; stroke-linecap:round; stroke-linejoin:round; stroke-width:4; stroke-opacity:1; fill:none" points="223.103,181.878 242,181.878 "></polyline>
<path clip-path="url(#clip190)" d="M50.9921 1168.37 L80.6679 1168.37 L80.6679 1172.3 L50.9921 1172.3 L50.9921 1168.37 Z" fill="#000000" fill-rule="nonzero" fill-opacity="1"></path><path clip-path="url(#clip190)" d="M100.76 1153.71 Q97.1493 1153.71 95.3206 1157.28 Q93.515 1160.82 93.515 1167.95 Q93.515 1175.06 95.3206 1178.62 Q97.1493 1182.16 100.76 1182.16 Q104.395 1182.16 106.2 1178.62 Q108.029 1175.06 108.029 1167.95 Q108.029 1160.82 106.2 1157.28 Q104.395 1153.71 100.76 1153.71 M100.76 1150.01 Q106.571 1150.01 109.626 1154.62 Q112.705 1159.2 112.705 1167.95 Q112.705 1176.68 109.626 1181.28 Q106.571 1185.87 100.76 1185.87 Q94.9502 1185.87 91.8715 1181.28 Q88.816 1176.68 88.816 1167.95 Q88.816 1159.2 91.8715 1154.62 Q94.9502 1150.01 100.76 1150.01 Z" fill="#000000" fill-rule="nonzero" fill-opacity="1"></path><path clip-path="url(#clip190)" d="M120.922 1179.32 L125.807 1179.32 L125.807 1185.2 L120.922 1185.2 L120.922 1179.32 Z" fill="#000000" fill-rule="nonzero" fill-opacity="1"></path><path clip-path="url(#clip190)" d="M140.019 1181.26 L156.339 1181.26 L156.339 1185.2 L134.394 1185.2 L134.394 1181.26 Q137.056 1178.51 141.64 1173.88 Q146.246 1169.22 147.427 1167.88 Q149.672 1165.36 150.552 1163.62 Q151.455 1161.86 151.455 1160.17 Q151.455 1157.42 149.51 1155.68 Q147.589 1153.95 144.487 1153.95 Q142.288 1153.95 139.834 1154.71 Q137.404 1155.47 134.626 1157.02 L134.626 1152.3 Q137.45 1151.17 139.904 1150.59 Q142.357 1150.01 144.394 1150.01 Q149.765 1150.01 152.959 1152.7 Q156.154 1155.38 156.154 1159.87 Q156.154 1162 155.343 1163.92 Q154.556 1165.82 152.45 1168.41 Q151.871 1169.08 148.769 1172.3 Q145.668 1175.5 140.019 1181.26 Z" fill="#000000" fill-rule="nonzero" fill-opacity="1"></path><path clip-path="url(#clip190)" d="M166.2 1150.64 L184.556 1150.64 L184.556 1154.57 L170.482 1154.57 L170.482 1163.04 Q171.501 1162.7 172.519 1162.53 Q173.538 1162.35 174.556 1162.35 Q180.343 1162.35 183.723 1165.52 Q187.103 1168.69 187.103 1174.11 Q187.103 1179.69 183.63 1182.79 Q180.158 1185.87 173.839 1185.87 Q171.663 1185.87 169.394 1185.5 Q167.149 1185.13 164.742 1184.39 L164.742 1179.69 Q166.825 1180.82 169.047 1181.38 Q171.269 1181.93 173.746 1181.93 Q177.751 1181.93 180.089 1179.83 Q182.427 1177.72 182.427 1174.11 Q182.427 1170.5 180.089 1168.39 Q177.751 1166.28 173.746 1166.28 Q171.871 1166.28 169.996 1166.7 Q168.144 1167.12 166.2 1168 L166.2 1150.64 Z" fill="#000000" fill-rule="nonzero" fill-opacity="1"></path><path clip-path="url(#clip190)" d="M99.765 825.035 Q96.1539 825.035 94.3252 828.6 Q92.5197 832.141 92.5197 839.271 Q92.5197 846.377 94.3252 849.942 Q96.1539 853.484 99.765 853.484 Q103.399 853.484 105.205 849.942 Q107.033 846.377 107.033 839.271 Q107.033 832.141 105.205 828.6 Q103.399 825.035 99.765 825.035 M99.765 821.331 Q105.575 821.331 108.631 825.938 Q111.709 830.521 111.709 839.271 Q111.709 847.998 108.631 852.604 Q105.575 857.188 99.765 857.188 Q93.9549 857.188 90.8762 852.604 Q87.8206 847.998 87.8206 839.271 Q87.8206 830.521 90.8762 825.938 Q93.9549 821.331 99.765 821.331 Z" fill="#000000" fill-rule="nonzero" fill-opacity="1"></path><path clip-path="url(#clip190)" d="M119.927 850.637 L124.811 850.637 L124.811 856.516 L119.927 856.516 L119.927 850.637 Z" fill="#000000" fill-rule="nonzero" fill-opacity="1"></path><path clip-path="url(#clip190)" d="M144.996 825.035 Q141.385 825.035 139.556 828.6 Q137.751 832.141 137.751 839.271 Q137.751 846.377 139.556 849.942 Q141.385 853.484 144.996 853.484 Q148.63 853.484 150.436 849.942 Q152.265 846.377 152.265 839.271 Q152.265 832.141 150.436 828.6 Q148.63 825.035 144.996 825.035 M144.996 821.331 Q150.806 821.331 153.862 825.938 Q156.941 830.521 156.941 839.271 Q156.941 847.998 153.862 852.604 Q150.806 857.188 144.996 857.188 Q139.186 857.188 136.107 852.604 Q133.052 847.998 133.052 839.271 Q133.052 830.521 136.107 825.938 Q139.186 821.331 144.996 821.331 Z" fill="#000000" fill-rule="nonzero" fill-opacity="1"></path><path clip-path="url(#clip190)" d="M175.158 825.035 Q171.547 825.035 169.718 828.6 Q167.913 832.141 167.913 839.271 Q167.913 846.377 169.718 849.942 Q171.547 853.484 175.158 853.484 Q178.792 853.484 180.598 849.942 Q182.427 846.377 182.427 839.271 Q182.427 832.141 180.598 828.6 Q178.792 825.035 175.158 825.035 M175.158 821.331 Q180.968 821.331 184.024 825.938 Q187.103 830.521 187.103 839.271 Q187.103 847.998 184.024 852.604 Q180.968 857.188 175.158 857.188 Q169.348 857.188 166.269 852.604 Q163.214 847.998 163.214 839.271 Q163.214 830.521 166.269 825.938 Q169.348 821.331 175.158 821.331 Z" fill="#000000" fill-rule="nonzero" fill-opacity="1"></path><path clip-path="url(#clip190)" d="M100.76 496.356 Q97.1493 496.356 95.3206 499.92 Q93.515 503.462 93.515 510.592 Q93.515 517.698 95.3206 521.263 Q97.1493 524.805 100.76 524.805 Q104.395 524.805 106.2 521.263 Q108.029 517.698 108.029 510.592 Q108.029 503.462 106.2 499.92 Q104.395 496.356 100.76 496.356 M100.76 492.652 Q106.571 492.652 109.626 497.258 Q112.705 501.842 112.705 510.592 Q112.705 519.319 109.626 523.925 Q106.571 528.508 100.76 528.508 Q94.9502 528.508 91.8715 523.925 Q88.816 519.319 88.816 510.592 Q88.816 501.842 91.8715 497.258 Q94.9502 492.652 100.76 492.652 Z" fill="#000000" fill-rule="nonzero" fill-opacity="1"></path><path clip-path="url(#clip190)" d="M120.922 521.957 L125.807 521.957 L125.807 527.837 L120.922 527.837 L120.922 521.957 Z" fill="#000000" fill-rule="nonzero" fill-opacity="1"></path><path clip-path="url(#clip190)" d="M140.019 523.902 L156.339 523.902 L156.339 527.837 L134.394 527.837 L134.394 523.902 Q137.056 521.147 141.64 516.518 Q146.246 511.865 147.427 510.522 Q149.672 507.999 150.552 506.263 Q151.455 504.504 151.455 502.814 Q151.455 500.059 149.51 498.323 Q147.589 496.587 144.487 496.587 Q142.288 496.587 139.834 497.351 Q137.404 498.115 134.626 499.666 L134.626 494.944 Q137.45 493.809 139.904 493.231 Q142.357 492.652 144.394 492.652 Q149.765 492.652 152.959 495.337 Q156.154 498.022 156.154 502.513 Q156.154 504.643 155.343 506.564 Q154.556 508.462 152.45 511.055 Q151.871 511.726 148.769 514.944 Q145.668 518.138 140.019 523.902 Z" fill="#000000" fill-rule="nonzero" fill-opacity="1"></path><path clip-path="url(#clip190)" d="M166.2 493.277 L184.556 493.277 L184.556 497.212 L170.482 497.212 L170.482 505.684 Q171.501 505.337 172.519 505.175 Q173.538 504.99 174.556 504.99 Q180.343 504.99 183.723 508.161 Q187.103 511.332 187.103 516.749 Q187.103 522.328 183.63 525.43 Q180.158 528.508 173.839 528.508 Q171.663 528.508 169.394 528.138 Q167.149 527.768 164.742 527.027 L164.742 522.328 Q166.825 523.462 169.047 524.018 Q171.269 524.573 173.746 524.573 Q177.751 524.573 180.089 522.467 Q182.427 520.36 182.427 516.749 Q182.427 513.138 180.089 511.032 Q177.751 508.925 173.746 508.925 Q171.871 508.925 169.996 509.342 Q168.144 509.758 166.2 510.638 L166.2 493.277 Z" fill="#000000" fill-rule="nonzero" fill-opacity="1"></path><path clip-path="url(#clip190)" d="M99.765 167.676 Q96.1539 167.676 94.3252 171.241 Q92.5197 174.783 92.5197 181.912 Q92.5197 189.019 94.3252 192.584 Q96.1539 196.125 99.765 196.125 Q103.399 196.125 105.205 192.584 Q107.033 189.019 107.033 181.912 Q107.033 174.783 105.205 171.241 Q103.399 167.676 99.765 167.676 M99.765 163.973 Q105.575 163.973 108.631 168.579 Q111.709 173.162 111.709 181.912 Q111.709 190.639 108.631 195.246 Q105.575 199.829 99.765 199.829 Q93.9549 199.829 90.8762 195.246 Q87.8206 190.639 87.8206 181.912 Q87.8206 173.162 90.8762 168.579 Q93.9549 163.973 99.765 163.973 Z" fill="#000000" fill-rule="nonzero" fill-opacity="1"></path><path clip-path="url(#clip190)" d="M119.927 193.278 L124.811 193.278 L124.811 199.158 L119.927 199.158 L119.927 193.278 Z" fill="#000000" fill-rule="nonzero" fill-opacity="1"></path><path clip-path="url(#clip190)" d="M135.043 164.598 L153.399 164.598 L153.399 168.533 L139.325 168.533 L139.325 177.005 Q140.343 176.658 141.362 176.496 Q142.381 176.311 143.399 176.311 Q149.186 176.311 152.566 179.482 Q155.945 182.653 155.945 188.07 Q155.945 193.648 152.473 196.75 Q149.001 199.829 142.681 199.829 Q140.506 199.829 138.237 199.459 Q135.992 199.088 133.584 198.347 L133.584 193.648 Q135.668 194.783 137.89 195.338 Q140.112 195.894 142.589 195.894 Q146.593 195.894 148.931 193.787 Q151.269 191.681 151.269 188.07 Q151.269 184.459 148.931 182.352 Q146.593 180.246 142.589 180.246 Q140.714 180.246 138.839 180.662 Q136.987 181.079 135.043 181.959 L135.043 164.598 Z" fill="#000000" fill-rule="nonzero" fill-opacity="1"></path><path clip-path="url(#clip190)" d="M175.158 167.676 Q171.547 167.676 169.718 171.241 Q167.913 174.783 167.913 181.912 Q167.913 189.019 169.718 192.584 Q171.547 196.125 175.158 196.125 Q178.792 196.125 180.598 192.584 Q182.427 189.019 182.427 181.912 Q182.427 174.783 180.598 171.241 Q178.792 167.676 175.158 167.676 M175.158 163.973 Q180.968 163.973 184.024 168.579 Q187.103 173.162 187.103 181.912 Q187.103 190.639 184.024 195.246 Q180.968 199.829 175.158 199.829 Q169.348 199.829 166.269 195.246 Q163.214 190.639 163.214 181.912 Q163.214 173.162 166.269 168.579 Q169.348 163.973 175.158 163.973 Z" fill="#000000" fill-rule="nonzero" fill-opacity="1"></path><polyline clip-path="url(#clip192)" style="stroke:#009af9; stroke-linecap:round; stroke-linejoin:round; stroke-width:4; stroke-opacity:1; fill:none" points="223.103,779.476 226.237,778.673 229.372,777.853 258.355,769.45 287.338,759.271 304.756,752.095 322.173,743.958 336.9,736.205 351.626,727.524 367.623,716.877 383.62,704.75 398.368,692.036 413.116,677.605 421.021,669.066 428.927,659.905 436.833,650.07 444.738,639.503 453.898,626.264 463.057,611.86 472.217,596.182 481.376,579.117 489.516,562.693 497.656,544.999 505.796,525.956 513.935,505.493 521.073,486.334 528.211,466.008 535.349,444.506 542.487,421.835 550.269,395.833 558.051,368.588 565.834,340.261 573.616,311.093 581.444,281.235 589.273,251.295 597.101,221.817 604.93,193.448 609.257,178.507 613.585,164.261 617.913,150.846 622.24,138.399 626.568,127.057 630.896,116.947 635.224,108.193 639.551,100.902 643.669,95.4111 647.787,91.3967 651.904,88.9081 656.022,87.9763 660.14,88.6128 664.257,90.8098 668.375,94.5399 672.493,99.7573 676.774,106.692 681.056,115.078 685.337,124.813 689.618,135.781 693.9,147.857 698.181,160.913 702.463,174.815 706.744,189.432 713.952,215.294 721.16,242.231 728.369,269.717 735.577,297.298 744.377,330.561 753.177,362.877 761.978,393.867 770.778,423.281 778.84,448.72 786.901,472.664 794.963,495.109 803.024,516.082 810.47,534.186 817.916,551.126 825.361,566.96 832.807,581.748 840.349,595.727 847.891,608.763 855.433,620.92 862.975,632.259 871.428,644.068 879.88,655.001 888.333,665.13 896.785,674.522 912.104,689.86 927.423,703.3 944.962,716.71 962.501,728.336 978.74,737.758 994.98,746.081 1010.99,753.363 1027,759.856 1042.55,765.504 1058.09,770.589 1089.96,779.538 1124.88,787.516 1175.6,796.582 1186.01,798.151 "></polyline>
<circle clip-path="url(#clip192)" cx="330.092" cy="739.897" r="14.4" fill="#e26f46" fill-rule="evenodd" fill-opacity="1" stroke="#000000" stroke-opacity="1" stroke-width="3.2"></circle>
<circle clip-path="url(#clip192)" cx="437.082" cy="649.749" r="14.4" fill="#e26f46" fill-rule="evenodd" fill-opacity="1" stroke="#000000" stroke-opacity="1" stroke-width="3.2"></circle>
<circle clip-path="url(#clip192)" cx="544.071" cy="416.649" r="14.4" fill="#e26f46" fill-rule="evenodd" fill-opacity="1" stroke="#000000" stroke-opacity="1" stroke-width="3.2"></circle>
<circle clip-path="url(#clip192)" cx="651.061" cy="89.292" r="14.4" fill="#e26f46" fill-rule="evenodd" fill-opacity="1" stroke="#000000" stroke-opacity="1" stroke-width="3.2"></circle>
<circle clip-path="url(#clip192)" cx="758.05" cy="380.219" r="14.4" fill="#e26f46" fill-rule="evenodd" fill-opacity="1" stroke="#000000" stroke-opacity="1" stroke-width="3.2"></circle>
<circle clip-path="url(#clip192)" cx="865.04" cy="635.228" r="14.4" fill="#e26f46" fill-rule="evenodd" fill-opacity="1" stroke="#000000" stroke-opacity="1" stroke-width="3.2"></circle>
<circle clip-path="url(#clip192)" cx="972.029" cy="734.007" r="14.4" fill="#e26f46" fill-rule="evenodd" fill-opacity="1" stroke="#000000" stroke-opacity="1" stroke-width="3.2"></circle>
<circle clip-path="url(#clip192)" cx="1079.02" cy="776.667" r="14.4" fill="#e26f46" fill-rule="evenodd" fill-opacity="1" stroke="#000000" stroke-opacity="1" stroke-width="3.2"></circle>
<circle clip-path="url(#clip192)" cx="1186.01" cy="798.151" r="14.4" fill="#e26f46" fill-rule="evenodd" fill-opacity="1" stroke="#000000" stroke-opacity="1" stroke-width="3.2"></circle>
<polyline clip-path="url(#clip192)" style="stroke:#3da44d; stroke-linecap:round; stroke-linejoin:round; stroke-width:4; stroke-opacity:1; fill:none" points="223.103,779.476 223.886,817.487 224.67,854.049 225.453,889.193 226.237,922.951 227.021,955.354 227.804,986.434 228.196,1001.49 228.588,1016.22 228.98,1030.64 229.372,1044.74 230.277,1076.17 231.183,1105.99 232.089,1134.26 232.994,1161 233.9,1186.27 234.806,1210.1 235.712,1232.53 236.617,1253.61 237.523,1273.37 238.429,1291.86 239.335,1309.1 240.24,1325.14 241.146,1340.01 242.052,1353.75 242.957,1366.39 243.863,1377.96 244.769,1388.51 245.675,1398.05 246.58,1406.63 247.486,1414.28 249.297,1426.88 251.109,1436.1 252.92,1442.17 254.732,1445.31 256.543,1445.72 258.355,1443.6 260.166,1439.15 261.978,1432.56 263.789,1423.99 265.601,1413.61 267.412,1401.59 269.223,1388.07 271.035,1373.2 272.846,1357.11 276.469,1321.83 280.092,1283.19 283.715,1242.05 287.338,1199.21 296.047,1093.24 304.756,989.044 309.11,939.435 313.464,892.209 317.819,847.771 322.173,806.434 325.855,774.074 329.536,744.188 333.218,716.834 336.9,692.039 340.581,669.801 344.263,650.092 347.944,632.863 351.626,618.043 355.625,604.573 359.625,593.711 363.624,585.309 367.623,579.203 371.622,575.22 375.622,573.176 379.621,572.882 383.62,574.146 390.994,579.906 398.368,589.084 405.742,600.501 413.116,613.039 421.021,626.553 428.927,639.025 436.833,649.463 444.738,657.037 449.318,659.847 453.898,661.368 458.477,661.516 463.057,660.226 467.637,657.451 472.217,653.161 476.796,647.343 481.376,640.001 485.446,632.213 489.516,623.259 493.586,613.171 497.656,601.989 501.726,589.759 505.796,576.536 509.865,562.38 513.935,547.356 521.073,519.13 528.211,488.871 535.349,457.026 542.487,424.066 558.051,350.667 573.616,279.262 581.444,245.602 589.273,214.187 597.101,185.509 604.93,160.003 609.257,147.402 613.585,135.938 617.913,125.659 622.24,116.605 626.568,108.809 630.896,102.299 635.224,97.0921 639.551,93.2028 643.669,90.7306 647.787,89.4554 651.904,89.3712 656.022,90.4664 660.14,92.7243 664.257,96.1231 668.375,100.636 672.493,106.232 676.774,113.161 681.056,121.177 685.337,130.231 689.618,140.269 693.9,151.233 698.181,163.063 702.463,175.695 706.744,189.06 713.952,213.029 721.16,238.541 728.369,265.245 735.577,292.787 753.177,361.379 770.778,428.029 778.84,456.74 786.901,483.832 794.963,509.033 803.024,532.131 810.47,551.465 817.916,568.809 825.361,584.144 832.807,597.499 840.349,609.087 847.891,618.85 855.433,626.958 862.975,633.624 879.88,644.628 896.785,652.864 912.104,660.834 927.423,671.785 936.192,680.154 944.962,690.368 953.731,702.543 962.501,716.663 978.74,747.252 994.98,781.218 1002.98,797.864 1010.99,813.499 1019,827.291 1027,838.318 1030.89,842.384 1034.77,845.452 1038.66,847.409 1042.55,848.138 1046.43,847.527 1050.32,845.466 1054.2,841.852 1058.09,836.587 1062.07,829.384 1066.06,820.268 1070.04,809.172 1074.02,796.042 1078.01,780.848 1081.99,763.581 1085.98,744.26 1089.96,722.935 1094.32,697.368 1098.69,669.661 1103.05,640.04 1107.42,608.803 1116.15,543.079 1124.88,476.617 1128.05,453.378 1131.22,431.137 1134.39,410.278 1137.56,391.223 1139.14,382.515 1140.73,374.438 1142.31,367.056 1143.9,360.437 1145.48,354.654 1147.07,349.781 1148.65,345.898 1150.24,343.085 1151.83,341.429 1153.41,341.017 1155,341.944 1156.58,344.305 1158.17,348.201 1159.75,353.737 1161.34,361.021 1162.92,370.167 1164.51,381.291 1166.09,394.517 1167.68,409.97 1169.26,427.782 1170.85,448.09 1172.43,471.034 1174.02,496.761 1175.6,525.423 1176.9,551.246 1178.2,579.24 1179.5,609.497 1180.8,642.113 1182.11,677.185 1183.41,714.813 1184.71,755.1 1186.01,798.151 "></polyline>
<path clip-path="url(#clip190)" d="M255.199 302.578 L508.85 302.578 L508.85 95.2176 L255.199 95.2176  Z" fill="#ffffff" fill-rule="evenodd" fill-opacity="1"></path>
<polyline clip-path="url(#clip190)" style="stroke:#000000; stroke-linecap:round; stroke-linejoin:round; stroke-width:4; stroke-opacity:1; fill:none" points="255.199,302.578 508.85,302.578 508.85,95.2176 255.199,95.2176 255.199,302.578 "></polyline>
<polyline clip-path="url(#clip190)" style="stroke:#009af9; stroke-linecap:round; stroke-linejoin:round; stroke-width:4; stroke-opacity:1; fill:none" points="265.898,147.058 330.092,147.058 "></polyline>
<path clip-path="url(#clip190)" d="M354.194 151.305 Q349.032 151.305 347.041 152.486 Q345.05 153.666 345.05 156.514 Q345.05 158.782 346.532 160.125 Q348.036 161.444 350.606 161.444 Q354.147 161.444 356.277 158.944 Q358.43 156.421 358.43 152.254 L358.43 151.305 L354.194 151.305 M362.689 149.546 L362.689 164.338 L358.43 164.338 L358.43 160.402 Q356.971 162.763 354.796 163.898 Q352.62 165.009 349.471 165.009 Q345.49 165.009 343.129 162.787 Q340.791 160.541 340.791 156.791 Q340.791 152.416 343.708 150.194 Q346.647 147.972 352.458 147.972 L358.43 147.972 L358.43 147.555 Q358.43 144.615 356.485 143.018 Q354.564 141.398 351.069 141.398 Q348.846 141.398 346.74 141.93 Q344.634 142.463 342.689 143.527 L342.689 139.592 Q345.027 138.69 347.226 138.25 Q349.425 137.787 351.508 137.787 Q357.133 137.787 359.911 140.703 Q362.689 143.62 362.689 149.546 Z" fill="#000000" fill-rule="nonzero" fill-opacity="1"></path><path clip-path="url(#clip190)" d="M390.119 139.407 L390.119 143.389 Q388.314 142.393 386.485 141.907 Q384.68 141.398 382.828 141.398 Q378.684 141.398 376.393 144.037 Q374.101 146.652 374.101 151.398 Q374.101 156.143 376.393 158.782 Q378.684 161.398 382.828 161.398 Q384.68 161.398 386.485 160.912 Q388.314 160.402 390.119 159.407 L390.119 163.342 Q388.337 164.176 386.416 164.592 Q384.518 165.009 382.365 165.009 Q376.508 165.009 373.059 161.328 Q369.61 157.648 369.61 151.398 Q369.61 145.055 373.082 141.421 Q376.578 137.787 382.643 137.787 Q384.61 137.787 386.485 138.203 Q388.36 138.597 390.119 139.407 Z" fill="#000000" fill-rule="nonzero" fill-opacity="1"></path><path clip-path="url(#clip190)" d="M401.74 131.051 L401.74 138.412 L410.513 138.412 L410.513 141.722 L401.74 141.722 L401.74 155.796 Q401.74 158.967 402.596 159.87 Q403.476 160.773 406.138 160.773 L410.513 160.773 L410.513 164.338 L406.138 164.338 Q401.207 164.338 399.332 162.509 Q397.457 160.657 397.457 155.796 L397.457 141.722 L394.332 141.722 L394.332 138.412 L397.457 138.412 L397.457 131.051 L401.74 131.051 Z" fill="#000000" fill-rule="nonzero" fill-opacity="1"></path><path clip-path="url(#clip190)" d="M415.675 154.106 L415.675 138.412 L419.934 138.412 L419.934 153.944 Q419.934 157.625 421.369 159.476 Q422.804 161.305 425.675 161.305 Q429.124 161.305 431.115 159.106 Q433.128 156.907 433.128 153.111 L433.128 138.412 L437.388 138.412 L437.388 164.338 L433.128 164.338 L433.128 160.356 Q431.578 162.717 429.517 163.875 Q427.48 165.009 424.772 165.009 Q420.304 165.009 417.99 162.231 Q415.675 159.453 415.675 154.106 M426.392 137.787 L426.392 137.787 Z" fill="#000000" fill-rule="nonzero" fill-opacity="1"></path><path clip-path="url(#clip190)" d="M457.943 151.305 Q452.781 151.305 450.79 152.486 Q448.8 153.666 448.8 156.514 Q448.8 158.782 450.281 160.125 Q451.786 161.444 454.355 161.444 Q457.897 161.444 460.026 158.944 Q462.179 156.421 462.179 152.254 L462.179 151.305 L457.943 151.305 M466.438 149.546 L466.438 164.338 L462.179 164.338 L462.179 160.402 Q460.721 162.763 458.545 163.898 Q456.369 165.009 453.221 165.009 Q449.239 165.009 446.878 162.787 Q444.54 160.541 444.54 156.791 Q444.54 152.416 447.457 150.194 Q450.397 147.972 456.207 147.972 L462.179 147.972 L462.179 147.555 Q462.179 144.615 460.235 143.018 Q458.313 141.398 454.818 141.398 Q452.596 141.398 450.489 141.93 Q448.383 142.463 446.439 143.527 L446.439 139.592 Q448.776 138.69 450.976 138.25 Q453.175 137.787 455.258 137.787 Q460.883 137.787 463.661 140.703 Q466.438 143.62 466.438 149.546 Z" fill="#000000" fill-rule="nonzero" fill-opacity="1"></path><path clip-path="url(#clip190)" d="M475.212 128.319 L479.471 128.319 L479.471 164.338 L475.212 164.338 L475.212 128.319 Z" fill="#000000" fill-rule="nonzero" fill-opacity="1"></path><circle clip-path="url(#clip190)" cx="297.995" cy="198.898" r="20.48" fill="#e26f46" fill-rule="evenodd" fill-opacity="1" stroke="#000000" stroke-opacity="1" stroke-width="4.55111"></circle>
<path clip-path="url(#clip190)" d="M345.073 212.289 L345.073 226.039 L340.791 226.039 L340.791 190.252 L345.073 190.252 L345.073 194.187 Q346.416 191.872 348.453 190.761 Q350.513 189.627 353.36 189.627 Q358.083 189.627 361.022 193.377 Q363.985 197.127 363.985 203.238 Q363.985 209.349 361.022 213.099 Q358.083 216.849 353.36 216.849 Q350.513 216.849 348.453 215.738 Q346.416 214.603 345.073 212.289 M359.564 203.238 Q359.564 198.539 357.62 195.877 Q355.698 193.192 352.319 193.192 Q348.939 193.192 346.995 195.877 Q345.073 198.539 345.073 203.238 Q345.073 207.937 346.995 210.622 Q348.939 213.284 352.319 213.284 Q355.698 213.284 357.62 210.622 Q359.564 207.937 359.564 203.238 Z" fill="#000000" fill-rule="nonzero" fill-opacity="1"></path><path clip-path="url(#clip190)" d="M381.092 193.238 Q377.666 193.238 375.675 195.923 Q373.684 198.585 373.684 203.238 Q373.684 207.891 375.652 210.576 Q377.643 213.238 381.092 213.238 Q384.494 213.238 386.485 210.553 Q388.476 207.867 388.476 203.238 Q388.476 198.631 386.485 195.946 Q384.494 193.238 381.092 193.238 M381.092 189.627 Q386.647 189.627 389.818 193.238 Q392.99 196.849 392.99 203.238 Q392.99 209.604 389.818 213.238 Q386.647 216.849 381.092 216.849 Q375.513 216.849 372.342 213.238 Q369.194 209.604 369.194 203.238 Q369.194 196.849 372.342 193.238 Q375.513 189.627 381.092 189.627 Z" fill="#000000" fill-rule="nonzero" fill-opacity="1"></path><path clip-path="url(#clip190)" d="M400.05 190.252 L404.309 190.252 L404.309 216.178 L400.05 216.178 L400.05 190.252 M400.05 180.159 L404.309 180.159 L404.309 185.553 L400.05 185.553 L400.05 180.159 Z" fill="#000000" fill-rule="nonzero" fill-opacity="1"></path><path clip-path="url(#clip190)" d="M434.772 200.529 L434.772 216.178 L430.513 216.178 L430.513 200.668 Q430.513 196.988 429.078 195.159 Q427.642 193.33 424.772 193.33 Q421.323 193.33 419.332 195.53 Q417.341 197.729 417.341 201.525 L417.341 216.178 L413.059 216.178 L413.059 190.252 L417.341 190.252 L417.341 194.28 Q418.869 191.942 420.929 190.784 Q423.013 189.627 425.721 189.627 Q430.189 189.627 432.48 192.405 Q434.772 195.159 434.772 200.529 Z" fill="#000000" fill-rule="nonzero" fill-opacity="1"></path><path clip-path="url(#clip190)" d="M447.48 182.891 L447.48 190.252 L456.253 190.252 L456.253 193.562 L447.48 193.562 L447.48 207.636 Q447.48 210.807 448.337 211.71 Q449.216 212.613 451.878 212.613 L456.253 212.613 L456.253 216.178 L451.878 216.178 Q446.948 216.178 445.073 214.349 Q443.198 212.497 443.198 207.636 L443.198 193.562 L440.073 193.562 L440.073 190.252 L443.198 190.252 L443.198 182.891 L447.48 182.891 Z" fill="#000000" fill-rule="nonzero" fill-opacity="1"></path><path clip-path="url(#clip190)" d="M478.383 191.016 L478.383 195.043 Q476.577 194.117 474.633 193.655 Q472.688 193.192 470.605 193.192 Q467.434 193.192 465.837 194.164 Q464.263 195.136 464.263 197.08 Q464.263 198.562 465.397 199.418 Q466.531 200.252 469.957 201.016 L471.415 201.34 Q475.952 202.312 477.85 204.094 Q479.772 205.854 479.772 209.025 Q479.772 212.636 476.901 214.742 Q474.054 216.849 469.054 216.849 Q466.971 216.849 464.702 216.432 Q462.457 216.039 459.957 215.228 L459.957 210.83 Q462.318 212.057 464.61 212.682 Q466.901 213.284 469.147 213.284 Q472.156 213.284 473.776 212.266 Q475.397 211.224 475.397 209.349 Q475.397 207.613 474.216 206.687 Q473.059 205.761 469.1 204.904 L467.619 204.557 Q463.661 203.724 461.901 202.011 Q460.142 200.275 460.142 197.266 Q460.142 193.608 462.735 191.618 Q465.327 189.627 470.096 189.627 Q472.457 189.627 474.54 189.974 Q476.624 190.321 478.383 191.016 Z" fill="#000000" fill-rule="nonzero" fill-opacity="1"></path><polyline clip-path="url(#clip190)" style="stroke:#3da44d; stroke-linecap:round; stroke-linejoin:round; stroke-width:4; stroke-opacity:1; fill:none" points="265.898,250.738 330.092,250.738 "></polyline>
<path clip-path="url(#clip190)" d="M362.504 252.369 L362.504 268.018 L358.245 268.018 L358.245 252.508 Q358.245 248.828 356.809 246.999 Q355.374 245.17 352.504 245.17 Q349.055 245.17 347.064 247.37 Q345.073 249.569 345.073 253.365 L345.073 268.018 L340.791 268.018 L340.791 242.092 L345.073 242.092 L345.073 246.12 Q346.601 243.782 348.661 242.624 Q350.745 241.467 353.453 241.467 Q357.92 241.467 360.212 244.245 Q362.504 246.999 362.504 252.369 Z" fill="#000000" fill-rule="nonzero" fill-opacity="1"></path><path clip-path="url(#clip190)" d="M381.045 245.078 Q377.619 245.078 375.629 247.763 Q373.638 250.425 373.638 255.078 Q373.638 259.731 375.606 262.416 Q377.596 265.078 381.045 265.078 Q384.448 265.078 386.439 262.393 Q388.43 259.707 388.43 255.078 Q388.43 250.471 386.439 247.786 Q384.448 245.078 381.045 245.078 M381.045 241.467 Q386.601 241.467 389.772 245.078 Q392.943 248.689 392.943 255.078 Q392.943 261.444 389.772 265.078 Q386.601 268.689 381.045 268.689 Q375.467 268.689 372.295 265.078 Q369.147 261.444 369.147 255.078 Q369.147 248.689 372.295 245.078 Q375.467 241.467 381.045 241.467 Z" fill="#000000" fill-rule="nonzero" fill-opacity="1"></path><path clip-path="url(#clip190)" d="M415.027 246.073 Q414.309 245.657 413.453 245.471 Q412.619 245.263 411.601 245.263 Q407.99 245.263 406.045 247.624 Q404.124 249.962 404.124 254.36 L404.124 268.018 L399.842 268.018 L399.842 242.092 L404.124 242.092 L404.124 246.12 Q405.467 243.758 407.619 242.624 Q409.772 241.467 412.851 241.467 Q413.291 241.467 413.823 241.536 Q414.355 241.583 415.004 241.698 L415.027 246.073 Z" fill="#000000" fill-rule="nonzero" fill-opacity="1"></path><path clip-path="url(#clip190)" d="M438.846 247.069 Q440.443 244.198 442.665 242.833 Q444.888 241.467 447.897 241.467 Q451.948 241.467 454.147 244.314 Q456.346 247.138 456.346 252.369 L456.346 268.018 L452.064 268.018 L452.064 252.508 Q452.064 248.782 450.744 246.976 Q449.425 245.17 446.716 245.17 Q443.406 245.17 441.485 247.37 Q439.564 249.569 439.564 253.365 L439.564 268.018 L435.281 268.018 L435.281 252.508 Q435.281 248.758 433.962 246.976 Q432.642 245.17 429.888 245.17 Q426.624 245.17 424.703 247.393 Q422.781 249.592 422.781 253.365 L422.781 268.018 L418.499 268.018 L418.499 242.092 L422.781 242.092 L422.781 246.12 Q424.24 243.735 426.277 242.601 Q428.314 241.467 431.115 241.467 Q433.939 241.467 435.906 242.902 Q437.897 244.337 438.846 247.069 Z" fill="#000000" fill-rule="nonzero" fill-opacity="1"></path><path clip-path="url(#clip190)" d="M476.624 254.985 Q471.462 254.985 469.471 256.166 Q467.48 257.346 467.48 260.194 Q467.48 262.462 468.962 263.805 Q470.466 265.124 473.036 265.124 Q476.577 265.124 478.707 262.624 Q480.86 260.101 480.86 255.934 L480.86 254.985 L476.624 254.985 M485.119 253.226 L485.119 268.018 L480.86 268.018 L480.86 264.082 Q479.401 266.443 477.225 267.578 Q475.05 268.689 471.901 268.689 Q467.92 268.689 465.559 266.467 Q463.221 264.221 463.221 260.471 Q463.221 256.096 466.138 253.874 Q469.077 251.652 474.887 251.652 L480.86 251.652 L480.86 251.235 Q480.86 248.295 478.915 246.698 Q476.994 245.078 473.499 245.078 Q471.276 245.078 469.17 245.61 Q467.063 246.143 465.119 247.207 L465.119 243.272 Q467.457 242.37 469.656 241.93 Q471.855 241.467 473.938 241.467 Q479.563 241.467 482.341 244.383 Q485.119 247.3 485.119 253.226 Z" fill="#000000" fill-rule="nonzero" fill-opacity="1"></path><path clip-path="url(#clip190)" d="M493.892 231.999 L498.151 231.999 L498.151 268.018 L493.892 268.018 L493.892 231.999 Z" fill="#000000" fill-rule="nonzero" fill-opacity="1"></path><path clip-path="url(#clip190)" d="M1389.85 1486.45 L2352.76 1486.45 L2352.76 47.2441 L1389.85 47.2441  Z" fill="#ffffff" fill-rule="evenodd" fill-opacity="1"></path>
<defs>
  <clipPath id="clip193">
    <rect x="1389" y="47" width="964" height="1440"></rect>
  </clipPath>
</defs>
<polyline clip-path="url(#clip193)" style="stroke:#000000; stroke-linecap:round; stroke-linejoin:round; stroke-width:2; stroke-opacity:0.1; fill:none" points="1389.85,1486.45 1389.85,47.2441 "></polyline>
<polyline clip-path="url(#clip193)" style="stroke:#000000; stroke-linecap:round; stroke-linejoin:round; stroke-width:2; stroke-opacity:0.1; fill:none" points="1630.58,1486.45 1630.58,47.2441 "></polyline>
<polyline clip-path="url(#clip193)" style="stroke:#000000; stroke-linecap:round; stroke-linejoin:round; stroke-width:2; stroke-opacity:0.1; fill:none" points="1871.3,1486.45 1871.3,47.2441 "></polyline>
<polyline clip-path="url(#clip193)" style="stroke:#000000; stroke-linecap:round; stroke-linejoin:round; stroke-width:2; stroke-opacity:0.1; fill:none" points="2112.03,1486.45 2112.03,47.2441 "></polyline>
<polyline clip-path="url(#clip193)" style="stroke:#000000; stroke-linecap:round; stroke-linejoin:round; stroke-width:2; stroke-opacity:0.1; fill:none" points="2352.76,1486.45 2352.76,47.2441 "></polyline>
<polyline clip-path="url(#clip190)" style="stroke:#000000; stroke-linecap:round; stroke-linejoin:round; stroke-width:4; stroke-opacity:1; fill:none" points="1389.85,1486.45 2352.76,1486.45 "></polyline>
<polyline clip-path="url(#clip190)" style="stroke:#000000; stroke-linecap:round; stroke-linejoin:round; stroke-width:4; stroke-opacity:1; fill:none" points="1389.85,1486.45 1389.85,1467.55 "></polyline>
<polyline clip-path="url(#clip190)" style="stroke:#000000; stroke-linecap:round; stroke-linejoin:round; stroke-width:4; stroke-opacity:1; fill:none" points="1630.58,1486.45 1630.58,1467.55 "></polyline>
<polyline clip-path="url(#clip190)" style="stroke:#000000; stroke-linecap:round; stroke-linejoin:round; stroke-width:4; stroke-opacity:1; fill:none" points="1871.3,1486.45 1871.3,1467.55 "></polyline>
<polyline clip-path="url(#clip190)" style="stroke:#000000; stroke-linecap:round; stroke-linejoin:round; stroke-width:4; stroke-opacity:1; fill:none" points="2112.03,1486.45 2112.03,1467.55 "></polyline>
<polyline clip-path="url(#clip190)" style="stroke:#000000; stroke-linecap:round; stroke-linejoin:round; stroke-width:4; stroke-opacity:1; fill:none" points="2352.76,1486.45 2352.76,1467.55 "></polyline>
<path clip-path="url(#clip190)" d="M1336.38 1532.02 L1366.05 1532.02 L1366.05 1535.95 L1336.38 1535.95 L1336.38 1532.02 Z" fill="#000000" fill-rule="nonzero" fill-opacity="1"></path><path clip-path="url(#clip190)" d="M1376.96 1544.91 L1384.6 1544.91 L1384.6 1518.55 L1376.29 1520.21 L1376.29 1515.95 L1384.55 1514.29 L1389.23 1514.29 L1389.23 1544.91 L1396.86 1544.91 L1396.86 1548.85 L1376.96 1548.85 L1376.96 1544.91 Z" fill="#000000" fill-rule="nonzero" fill-opacity="1"></path><path clip-path="url(#clip190)" d="M1406.31 1542.97 L1411.19 1542.97 L1411.19 1548.85 L1406.31 1548.85 L1406.31 1542.97 Z" fill="#000000" fill-rule="nonzero" fill-opacity="1"></path><path clip-path="url(#clip190)" d="M1431.38 1517.37 Q1427.77 1517.37 1425.94 1520.93 Q1424.13 1524.47 1424.13 1531.6 Q1424.13 1538.71 1425.94 1542.27 Q1427.77 1545.82 1431.38 1545.82 Q1435.01 1545.82 1436.82 1542.27 Q1438.65 1538.71 1438.65 1531.6 Q1438.65 1524.47 1436.82 1520.93 Q1435.01 1517.37 1431.38 1517.37 M1431.38 1513.66 Q1437.19 1513.66 1440.24 1518.27 Q1443.32 1522.85 1443.32 1531.6 Q1443.32 1540.33 1440.24 1544.94 Q1437.19 1549.52 1431.38 1549.52 Q1425.57 1549.52 1422.49 1544.94 Q1419.43 1540.33 1419.43 1531.6 Q1419.43 1522.85 1422.49 1518.27 Q1425.57 1513.66 1431.38 1513.66 Z" fill="#000000" fill-rule="nonzero" fill-opacity="1"></path><path clip-path="url(#clip190)" d="M1577.6 1532.02 L1607.28 1532.02 L1607.28 1535.95 L1577.6 1535.95 L1577.6 1532.02 Z" fill="#000000" fill-rule="nonzero" fill-opacity="1"></path><path clip-path="url(#clip190)" d="M1627.37 1517.37 Q1623.76 1517.37 1621.93 1520.93 Q1620.13 1524.47 1620.13 1531.6 Q1620.13 1538.71 1621.93 1542.27 Q1623.76 1545.82 1627.37 1545.82 Q1631 1545.82 1632.81 1542.27 Q1634.64 1538.71 1634.64 1531.6 Q1634.64 1524.47 1632.81 1520.93 Q1631 1517.37 1627.37 1517.37 M1627.37 1513.66 Q1633.18 1513.66 1636.24 1518.27 Q1639.32 1522.85 1639.32 1531.6 Q1639.32 1540.33 1636.24 1544.94 Q1633.18 1549.52 1627.37 1549.52 Q1621.56 1549.52 1618.48 1544.94 Q1615.43 1540.33 1615.43 1531.6 Q1615.43 1522.85 1618.48 1518.27 Q1621.56 1513.66 1627.37 1513.66 Z" fill="#000000" fill-rule="nonzero" fill-opacity="1"></path><path clip-path="url(#clip190)" d="M1647.53 1542.97 L1652.42 1542.97 L1652.42 1548.85 L1647.53 1548.85 L1647.53 1542.97 Z" fill="#000000" fill-rule="nonzero" fill-opacity="1"></path><path clip-path="url(#clip190)" d="M1662.65 1514.29 L1681 1514.29 L1681 1518.22 L1666.93 1518.22 L1666.93 1526.7 Q1667.95 1526.35 1668.97 1526.19 Q1669.99 1526 1671 1526 Q1676.79 1526 1680.17 1529.17 Q1683.55 1532.34 1683.55 1537.76 Q1683.55 1543.34 1680.08 1546.44 Q1676.61 1549.52 1670.29 1549.52 Q1668.11 1549.52 1665.84 1549.15 Q1663.6 1548.78 1661.19 1548.04 L1661.19 1543.34 Q1663.27 1544.47 1665.5 1545.03 Q1667.72 1545.58 1670.19 1545.58 Q1674.2 1545.58 1676.54 1543.48 Q1678.88 1541.37 1678.88 1537.76 Q1678.88 1534.15 1676.54 1532.04 Q1674.2 1529.94 1670.19 1529.94 Q1668.32 1529.94 1666.44 1530.35 Q1664.59 1530.77 1662.65 1531.65 L1662.65 1514.29 Z" fill="#000000" fill-rule="nonzero" fill-opacity="1"></path><path clip-path="url(#clip190)" d="M1848.69 1517.37 Q1845.08 1517.37 1843.25 1520.93 Q1841.44 1524.47 1841.44 1531.6 Q1841.44 1538.71 1843.25 1542.27 Q1845.08 1545.82 1848.69 1545.82 Q1852.32 1545.82 1854.13 1542.27 Q1855.96 1538.71 1855.96 1531.6 Q1855.96 1524.47 1854.13 1520.93 Q1852.32 1517.37 1848.69 1517.37 M1848.69 1513.66 Q1854.5 1513.66 1857.55 1518.27 Q1860.63 1522.85 1860.63 1531.6 Q1860.63 1540.33 1857.55 1544.94 Q1854.5 1549.52 1848.69 1549.52 Q1842.88 1549.52 1839.8 1544.94 Q1836.74 1540.33 1836.74 1531.6 Q1836.74 1522.85 1839.8 1518.27 Q1842.88 1513.66 1848.69 1513.66 Z" fill="#000000" fill-rule="nonzero" fill-opacity="1"></path><path clip-path="url(#clip190)" d="M1868.85 1542.97 L1873.73 1542.97 L1873.73 1548.85 L1868.85 1548.85 L1868.85 1542.97 Z" fill="#000000" fill-rule="nonzero" fill-opacity="1"></path><path clip-path="url(#clip190)" d="M1893.92 1517.37 Q1890.31 1517.37 1888.48 1520.93 Q1886.67 1524.47 1886.67 1531.6 Q1886.67 1538.71 1888.48 1542.27 Q1890.31 1545.82 1893.92 1545.82 Q1897.55 1545.82 1899.36 1542.27 Q1901.19 1538.71 1901.19 1531.6 Q1901.19 1524.47 1899.36 1520.93 Q1897.55 1517.37 1893.92 1517.37 M1893.92 1513.66 Q1899.73 1513.66 1902.78 1518.27 Q1905.86 1522.85 1905.86 1531.6 Q1905.86 1540.33 1902.78 1544.94 Q1899.73 1549.52 1893.92 1549.52 Q1888.11 1549.52 1885.03 1544.94 Q1881.97 1540.33 1881.97 1531.6 Q1881.97 1522.85 1885.03 1518.27 Q1888.11 1513.66 1893.92 1513.66 Z" fill="#000000" fill-rule="nonzero" fill-opacity="1"></path><path clip-path="url(#clip190)" d="M2089.91 1517.37 Q2086.3 1517.37 2084.47 1520.93 Q2082.67 1524.47 2082.67 1531.6 Q2082.67 1538.71 2084.47 1542.27 Q2086.3 1545.82 2089.91 1545.82 Q2093.55 1545.82 2095.35 1542.27 Q2097.18 1538.71 2097.18 1531.6 Q2097.18 1524.47 2095.35 1520.93 Q2093.55 1517.37 2089.91 1517.37 M2089.91 1513.66 Q2095.72 1513.66 2098.78 1518.27 Q2101.86 1522.85 2101.86 1531.6 Q2101.86 1540.33 2098.78 1544.94 Q2095.72 1549.52 2089.91 1549.52 Q2084.1 1549.52 2081.02 1544.94 Q2077.97 1540.33 2077.97 1531.6 Q2077.97 1522.85 2081.02 1518.27 Q2084.1 1513.66 2089.91 1513.66 Z" fill="#000000" fill-rule="nonzero" fill-opacity="1"></path><path clip-path="url(#clip190)" d="M2110.07 1542.97 L2114.96 1542.97 L2114.96 1548.85 L2110.07 1548.85 L2110.07 1542.97 Z" fill="#000000" fill-rule="nonzero" fill-opacity="1"></path><path clip-path="url(#clip190)" d="M2125.19 1514.29 L2143.55 1514.29 L2143.55 1518.22 L2129.47 1518.22 L2129.47 1526.7 Q2130.49 1526.35 2131.51 1526.19 Q2132.53 1526 2133.55 1526 Q2139.33 1526 2142.71 1529.17 Q2146.09 1532.34 2146.09 1537.76 Q2146.09 1543.34 2142.62 1546.44 Q2139.15 1549.52 2132.83 1549.52 Q2130.65 1549.52 2128.38 1549.15 Q2126.14 1548.78 2123.73 1548.04 L2123.73 1543.34 Q2125.81 1544.47 2128.04 1545.03 Q2130.26 1545.58 2132.74 1545.58 Q2136.74 1545.58 2139.08 1543.48 Q2141.42 1541.37 2141.42 1537.76 Q2141.42 1534.15 2139.08 1532.04 Q2136.74 1529.94 2132.74 1529.94 Q2130.86 1529.94 2128.99 1530.35 Q2127.13 1530.77 2125.19 1531.65 L2125.19 1514.29 Z" fill="#000000" fill-rule="nonzero" fill-opacity="1"></path><path clip-path="url(#clip190)" d="M2319.91 1544.91 L2327.55 1544.91 L2327.55 1518.55 L2319.24 1520.21 L2319.24 1515.95 L2327.5 1514.29 L2332.18 1514.29 L2332.18 1544.91 L2339.82 1544.91 L2339.82 1548.85 L2319.91 1548.85 L2319.91 1544.91 Z" fill="#000000" fill-rule="nonzero" fill-opacity="1"></path><path clip-path="url(#clip190)" d="M2349.26 1542.97 L2354.14 1542.97 L2354.14 1548.85 L2349.26 1548.85 L2349.26 1542.97 Z" fill="#000000" fill-rule="nonzero" fill-opacity="1"></path><path clip-path="url(#clip190)" d="M2374.33 1517.37 Q2370.72 1517.37 2368.89 1520.93 Q2367.08 1524.47 2367.08 1531.6 Q2367.08 1538.71 2368.89 1542.27 Q2370.72 1545.82 2374.33 1545.82 Q2377.96 1545.82 2379.77 1542.27 Q2381.6 1538.71 2381.6 1531.6 Q2381.6 1524.47 2379.77 1520.93 Q2377.96 1517.37 2374.33 1517.37 M2374.33 1513.66 Q2380.14 1513.66 2383.2 1518.27 Q2386.27 1522.85 2386.27 1531.6 Q2386.27 1540.33 2383.2 1544.94 Q2380.14 1549.52 2374.33 1549.52 Q2368.52 1549.52 2365.44 1544.94 Q2362.39 1540.33 2362.39 1531.6 Q2362.39 1522.85 2365.44 1518.27 Q2368.52 1513.66 2374.33 1513.66 Z" fill="#000000" fill-rule="nonzero" fill-opacity="1"></path><polyline clip-path="url(#clip193)" style="stroke:#000000; stroke-linecap:round; stroke-linejoin:round; stroke-width:2; stroke-opacity:0.1; fill:none" points="1389.85,1272.91 2352.76,1272.91 "></polyline>
<polyline clip-path="url(#clip193)" style="stroke:#000000; stroke-linecap:round; stroke-linejoin:round; stroke-width:2; stroke-opacity:0.1; fill:none" points="1389.85,1021.56 2352.76,1021.56 "></polyline>
<polyline clip-path="url(#clip193)" style="stroke:#000000; stroke-linecap:round; stroke-linejoin:round; stroke-width:2; stroke-opacity:0.1; fill:none" points="1389.85,770.206 2352.76,770.206 "></polyline>
<polyline clip-path="url(#clip193)" style="stroke:#000000; stroke-linecap:round; stroke-linejoin:round; stroke-width:2; stroke-opacity:0.1; fill:none" points="1389.85,518.853 2352.76,518.853 "></polyline>
<polyline clip-path="url(#clip193)" style="stroke:#000000; stroke-linecap:round; stroke-linejoin:round; stroke-width:2; stroke-opacity:0.1; fill:none" points="1389.85,267.501 2352.76,267.501 "></polyline>
<polyline clip-path="url(#clip190)" style="stroke:#000000; stroke-linecap:round; stroke-linejoin:round; stroke-width:4; stroke-opacity:1; fill:none" points="1389.85,1486.45 1389.85,47.2441 "></polyline>
<polyline clip-path="url(#clip190)" style="stroke:#000000; stroke-linecap:round; stroke-linejoin:round; stroke-width:4; stroke-opacity:1; fill:none" points="1389.85,1272.91 1408.75,1272.91 "></polyline>
<polyline clip-path="url(#clip190)" style="stroke:#000000; stroke-linecap:round; stroke-linejoin:round; stroke-width:4; stroke-opacity:1; fill:none" points="1389.85,1021.56 1408.75,1021.56 "></polyline>
<polyline clip-path="url(#clip190)" style="stroke:#000000; stroke-linecap:round; stroke-linejoin:round; stroke-width:4; stroke-opacity:1; fill:none" points="1389.85,770.206 1408.75,770.206 "></polyline>
<polyline clip-path="url(#clip190)" style="stroke:#000000; stroke-linecap:round; stroke-linejoin:round; stroke-width:4; stroke-opacity:1; fill:none" points="1389.85,518.853 1408.75,518.853 "></polyline>
<polyline clip-path="url(#clip190)" style="stroke:#000000; stroke-linecap:round; stroke-linejoin:round; stroke-width:4; stroke-opacity:1; fill:none" points="1389.85,267.501 1408.75,267.501 "></polyline>
<path clip-path="url(#clip190)" d="M1297.9 1258.71 Q1294.29 1258.71 1292.46 1262.27 Q1290.66 1265.82 1290.66 1272.95 Q1290.66 1280.05 1292.46 1283.62 Q1294.29 1287.16 1297.9 1287.16 Q1301.54 1287.16 1303.34 1283.62 Q1305.17 1280.05 1305.17 1272.95 Q1305.17 1265.82 1303.34 1262.27 Q1301.54 1258.71 1297.9 1258.71 M1297.9 1255.01 Q1303.71 1255.01 1306.77 1259.61 Q1309.85 1264.2 1309.85 1272.95 Q1309.85 1281.67 1306.77 1286.28 Q1303.71 1290.86 1297.9 1290.86 Q1292.09 1290.86 1289.01 1286.28 Q1285.96 1281.67 1285.96 1272.95 Q1285.96 1264.2 1289.01 1259.61 Q1292.09 1255.01 1297.9 1255.01 Z" fill="#000000" fill-rule="nonzero" fill-opacity="1"></path><path clip-path="url(#clip190)" d="M1318.06 1284.31 L1322.95 1284.31 L1322.95 1290.19 L1318.06 1290.19 L1318.06 1284.31 Z" fill="#000000" fill-rule="nonzero" fill-opacity="1"></path><path clip-path="url(#clip190)" d="M1333.94 1286.26 L1341.58 1286.26 L1341.58 1259.89 L1333.27 1261.56 L1333.27 1257.3 L1341.54 1255.63 L1346.21 1255.63 L1346.21 1286.26 L1353.85 1286.26 L1353.85 1290.19 L1333.94 1290.19 L1333.94 1286.26 Z" fill="#000000" fill-rule="nonzero" fill-opacity="1"></path><path clip-path="url(#clip190)" d="M1298.27 1007.36 Q1294.66 1007.36 1292.83 1010.92 Q1291.03 1014.46 1291.03 1021.59 Q1291.03 1028.7 1292.83 1032.26 Q1294.66 1035.81 1298.27 1035.81 Q1301.91 1035.81 1303.71 1032.26 Q1305.54 1028.7 1305.54 1021.59 Q1305.54 1014.46 1303.71 1010.92 Q1301.91 1007.36 1298.27 1007.36 M1298.27 1003.65 Q1304.08 1003.65 1307.14 1008.26 Q1310.22 1012.84 1310.22 1021.59 Q1310.22 1030.32 1307.14 1034.93 Q1304.08 1039.51 1298.27 1039.51 Q1292.46 1039.51 1289.38 1034.93 Q1286.33 1030.32 1286.33 1021.59 Q1286.33 1012.84 1289.38 1008.26 Q1292.46 1003.65 1298.27 1003.65 Z" fill="#000000" fill-rule="nonzero" fill-opacity="1"></path><path clip-path="url(#clip190)" d="M1318.43 1032.96 L1323.32 1032.96 L1323.32 1038.84 L1318.43 1038.84 L1318.43 1032.96 Z" fill="#000000" fill-rule="nonzero" fill-opacity="1"></path><path clip-path="url(#clip190)" d="M1337.53 1034.9 L1353.85 1034.9 L1353.85 1038.84 L1331.91 1038.84 L1331.91 1034.9 Q1334.57 1032.15 1339.15 1027.52 Q1343.76 1022.87 1344.94 1021.52 Q1347.18 1019 1348.06 1017.26 Q1348.97 1015.51 1348.97 1013.82 Q1348.97 1011.06 1347.02 1009.32 Q1345.1 1007.59 1342 1007.59 Q1339.8 1007.59 1337.35 1008.35 Q1334.92 1009.12 1332.14 1010.67 L1332.14 1005.94 Q1334.96 1004.81 1337.42 1004.23 Q1339.87 1003.65 1341.91 1003.65 Q1347.28 1003.65 1350.47 1006.34 Q1353.67 1009.02 1353.67 1013.51 Q1353.67 1015.64 1352.86 1017.57 Q1352.07 1019.46 1349.96 1022.06 Q1349.38 1022.73 1346.28 1025.94 Q1343.18 1029.14 1337.53 1034.9 Z" fill="#000000" fill-rule="nonzero" fill-opacity="1"></path><path clip-path="url(#clip190)" d="M1297.32 756.004 Q1293.71 756.004 1291.88 759.569 Q1290.08 763.111 1290.08 770.24 Q1290.08 777.347 1291.88 780.912 Q1293.71 784.453 1297.32 784.453 Q1300.96 784.453 1302.76 780.912 Q1304.59 777.347 1304.59 770.24 Q1304.59 763.111 1302.76 759.569 Q1300.96 756.004 1297.32 756.004 M1297.32 752.301 Q1303.13 752.301 1306.19 756.907 Q1309.27 761.49 1309.27 770.24 Q1309.27 778.967 1306.19 783.574 Q1303.13 788.157 1297.32 788.157 Q1291.51 788.157 1288.43 783.574 Q1285.38 778.967 1285.38 770.24 Q1285.38 761.49 1288.43 756.907 Q1291.51 752.301 1297.32 752.301 Z" fill="#000000" fill-rule="nonzero" fill-opacity="1"></path><path clip-path="url(#clip190)" d="M1317.48 781.606 L1322.37 781.606 L1322.37 787.486 L1317.48 787.486 L1317.48 781.606 Z" fill="#000000" fill-rule="nonzero" fill-opacity="1"></path><path clip-path="url(#clip190)" d="M1346.72 768.851 Q1350.08 769.569 1351.95 771.838 Q1353.85 774.106 1353.85 777.439 Q1353.85 782.555 1350.33 785.356 Q1346.81 788.157 1340.33 788.157 Q1338.16 788.157 1335.84 787.717 Q1333.55 787.3 1331.1 786.444 L1331.1 781.93 Q1333.04 783.064 1335.36 783.643 Q1337.67 784.222 1340.19 784.222 Q1344.59 784.222 1346.88 782.486 Q1349.2 780.75 1349.2 777.439 Q1349.2 774.384 1347.04 772.671 Q1344.92 770.935 1341.1 770.935 L1337.07 770.935 L1337.07 767.092 L1341.28 767.092 Q1344.73 767.092 1346.56 765.727 Q1348.39 764.338 1348.39 761.745 Q1348.39 759.083 1346.49 757.671 Q1344.61 756.236 1341.1 756.236 Q1339.17 756.236 1336.98 756.652 Q1334.78 757.069 1332.14 757.949 L1332.14 753.782 Q1334.8 753.041 1337.11 752.671 Q1339.45 752.301 1341.51 752.301 Q1346.84 752.301 1349.94 754.731 Q1353.04 757.139 1353.04 761.259 Q1353.04 764.129 1351.4 766.12 Q1349.75 768.088 1346.72 768.851 Z" fill="#000000" fill-rule="nonzero" fill-opacity="1"></path><path clip-path="url(#clip190)" d="M1296.19 504.652 Q1292.58 504.652 1290.75 508.217 Q1288.94 511.758 1288.94 518.888 Q1288.94 525.994 1290.75 529.559 Q1292.58 533.101 1296.19 533.101 Q1299.82 533.101 1301.63 529.559 Q1303.46 525.994 1303.46 518.888 Q1303.46 511.758 1301.63 508.217 Q1299.82 504.652 1296.19 504.652 M1296.19 500.948 Q1302 500.948 1305.05 505.555 Q1308.13 510.138 1308.13 518.888 Q1308.13 527.615 1305.05 532.221 Q1302 536.804 1296.19 536.804 Q1290.38 536.804 1287.3 532.221 Q1284.24 527.615 1284.24 518.888 Q1284.24 510.138 1287.3 505.555 Q1290.38 500.948 1296.19 500.948 Z" fill="#000000" fill-rule="nonzero" fill-opacity="1"></path><path clip-path="url(#clip190)" d="M1316.35 530.253 L1321.23 530.253 L1321.23 536.133 L1316.35 536.133 L1316.35 530.253 Z" fill="#000000" fill-rule="nonzero" fill-opacity="1"></path><path clip-path="url(#clip190)" d="M1344.27 505.647 L1332.46 524.096 L1344.27 524.096 L1344.27 505.647 M1343.04 501.573 L1348.92 501.573 L1348.92 524.096 L1353.85 524.096 L1353.85 527.985 L1348.92 527.985 L1348.92 536.133 L1344.27 536.133 L1344.27 527.985 L1328.67 527.985 L1328.67 523.471 L1343.04 501.573 Z" fill="#000000" fill-rule="nonzero" fill-opacity="1"></path><path clip-path="url(#clip190)" d="M1297.67 253.299 Q1294.06 253.299 1292.23 256.864 Q1290.42 260.406 1290.42 267.535 Q1290.42 274.642 1292.23 278.206 Q1294.06 281.748 1297.67 281.748 Q1301.3 281.748 1303.11 278.206 Q1304.94 274.642 1304.94 267.535 Q1304.94 260.406 1303.11 256.864 Q1301.3 253.299 1297.67 253.299 M1297.67 249.596 Q1303.48 249.596 1306.54 254.202 Q1309.61 258.785 1309.61 267.535 Q1309.61 276.262 1306.54 280.868 Q1303.48 285.452 1297.67 285.452 Q1291.86 285.452 1288.78 280.868 Q1285.73 276.262 1285.73 267.535 Q1285.73 258.785 1288.78 254.202 Q1291.86 249.596 1297.67 249.596 Z" fill="#000000" fill-rule="nonzero" fill-opacity="1"></path><path clip-path="url(#clip190)" d="M1317.83 278.901 L1322.72 278.901 L1322.72 284.781 L1317.83 284.781 L1317.83 278.901 Z" fill="#000000" fill-rule="nonzero" fill-opacity="1"></path><path clip-path="url(#clip190)" d="M1332.95 250.221 L1351.3 250.221 L1351.3 254.156 L1337.23 254.156 L1337.23 262.628 Q1338.25 262.281 1339.27 262.119 Q1340.29 261.933 1341.3 261.933 Q1347.09 261.933 1350.47 265.105 Q1353.85 268.276 1353.85 273.693 Q1353.85 279.271 1350.38 282.373 Q1346.91 285.452 1340.59 285.452 Q1338.41 285.452 1336.14 285.081 Q1333.9 284.711 1331.49 283.97 L1331.49 279.271 Q1333.57 280.406 1335.79 280.961 Q1338.02 281.517 1340.49 281.517 Q1344.5 281.517 1346.84 279.41 Q1349.17 277.304 1349.17 273.693 Q1349.17 270.082 1346.84 267.975 Q1344.5 265.869 1340.49 265.869 Q1338.62 265.869 1336.74 266.285 Q1334.89 266.702 1332.95 267.582 L1332.95 250.221 Z" fill="#000000" fill-rule="nonzero" fill-opacity="1"></path><polyline clip-path="url(#clip193)" style="stroke:#009af9; stroke-linecap:round; stroke-linejoin:round; stroke-width:4; stroke-opacity:1; fill:none" points="1389.85,1410.01 1392.98,1408.48 1396.12,1406.91 1425.1,1390.84 1454.09,1371.38 1471.5,1357.66 1488.92,1342.11 1503.65,1327.28 1518.37,1310.69 1534.37,1290.33 1550.37,1267.15 1565.12,1242.84 1579.86,1215.25 1587.77,1198.93 1595.67,1181.41 1603.58,1162.61 1611.49,1142.4 1620.65,1117.1 1629.81,1089.56 1638.96,1059.58 1648.12,1026.96 1656.26,995.557 1664.4,961.729 1672.54,925.322 1680.68,886.201 1687.82,849.571 1694.96,810.712 1702.1,769.602 1709.23,726.26 1717.02,676.548 1724.8,624.46 1732.58,570.304 1740.36,514.539 1748.19,457.456 1756.02,400.216 1763.85,343.859 1771.68,289.622 1776.01,261.056 1780.33,233.82 1784.66,208.173 1788.99,184.377 1793.32,162.691 1797.64,143.364 1801.97,126.627 1806.3,112.689 1810.42,102.19 1814.53,94.5155 1818.65,89.7578 1822.77,87.9763 1826.89,89.1932 1831.01,93.3935 1835.12,100.525 1839.24,110.5 1843.52,123.757 1847.8,139.79 1852.08,158.401 1856.37,179.37 1860.65,202.459 1864.93,227.42 1869.21,253.998 1873.49,281.942 1880.7,331.388 1887.91,382.887 1895.12,435.435 1902.32,488.166 1911.12,551.758 1919.93,613.542 1928.73,672.79 1937.53,729.025 1945.59,777.659 1953.65,823.437 1961.71,866.349 1969.77,906.445 1977.22,941.057 1984.66,973.443 1992.11,1003.71 1999.55,1031.99 2007.1,1058.71 2014.64,1083.64 2022.18,1106.88 2029.72,1128.56 2038.18,1151.13 2046.63,1172.03 2055.08,1191.4 2063.53,1209.36 2078.85,1238.68 2094.17,1264.38 2111.71,1290.01 2129.25,1312.24 2145.49,1330.25 2161.73,1346.17 2177.74,1360.09 2193.75,1372.5 2209.29,1383.3 2224.84,1393.02 2256.71,1410.13 2291.63,1425.38 2342.35,1442.72 2352.76,1445.72 "></polyline>
<circle clip-path="url(#clip193)" cx="2352.76" cy="1445.72" r="14.4" fill="#e26f46" fill-rule="evenodd" fill-opacity="1" stroke="#000000" stroke-opacity="1" stroke-width="3.2"></circle>
<circle clip-path="url(#clip193)" cx="2323.72" cy="1436.91" r="14.4" fill="#e26f46" fill-rule="evenodd" fill-opacity="1" stroke="#000000" stroke-opacity="1" stroke-width="3.2"></circle>
<circle clip-path="url(#clip193)" cx="2240.12" cy="1401.66" r="14.4" fill="#e26f46" fill-rule="evenodd" fill-opacity="1" stroke="#000000" stroke-opacity="1" stroke-width="3.2"></circle>
<circle clip-path="url(#clip193)" cx="2112.03" cy="1290.45" r="14.4" fill="#e26f46" fill-rule="evenodd" fill-opacity="1" stroke="#000000" stroke-opacity="1" stroke-width="3.2"></circle>
<circle clip-path="url(#clip193)" cx="1954.91" cy="830.319" r="14.4" fill="#e26f46" fill-rule="evenodd" fill-opacity="1" stroke="#000000" stroke-opacity="1" stroke-width="3.2"></circle>
<circle clip-path="url(#clip193)" cx="1787.7" cy="191.253" r="14.4" fill="#e26f46" fill-rule="evenodd" fill-opacity="1" stroke="#000000" stroke-opacity="1" stroke-width="3.2"></circle>
<circle clip-path="url(#clip193)" cx="1630.58" cy="1087.13" r="14.4" fill="#e26f46" fill-rule="evenodd" fill-opacity="1" stroke="#000000" stroke-opacity="1" stroke-width="3.2"></circle>
<circle clip-path="url(#clip193)" cx="1502.49" cy="1328.51" r="14.4" fill="#e26f46" fill-rule="evenodd" fill-opacity="1" stroke="#000000" stroke-opacity="1" stroke-width="3.2"></circle>
<circle clip-path="url(#clip193)" cx="1418.89" cy="1394.55" r="14.4" fill="#e26f46" fill-rule="evenodd" fill-opacity="1" stroke="#000000" stroke-opacity="1" stroke-width="3.2"></circle>
<polyline clip-path="url(#clip193)" style="stroke:#3da44d; stroke-linecap:round; stroke-linejoin:round; stroke-width:4; stroke-opacity:1; fill:none" points="1389.85,1410.01 1391.42,1412.91 1392.98,1415.18 1394.55,1416.85 1396.12,1417.97 1399.74,1418.69 1403.37,1417.16 1406.99,1413.82 1410.61,1409.04 1417.86,1396.54 1425.1,1381.95 1432.35,1367.02 1439.59,1353.06 1446.84,1340.96 1454.09,1331.28 1458.44,1326.74 1462.79,1323.2 1467.15,1320.65 1471.5,1319.04 1475.86,1318.34 1480.21,1318.46 1484.57,1319.33 1488.92,1320.84 1503.65,1329.3 1518.37,1339.32 1526.37,1343.71 1534.37,1346.43 1542.37,1346.78 1550.37,1344.18 1554.05,1341.83 1557.74,1338.7 1561.43,1334.74 1565.12,1329.92 1568.8,1324.2 1572.49,1317.57 1576.18,1309.99 1579.86,1301.45 1583.82,1291.22 1587.77,1279.86 1591.72,1267.36 1595.67,1253.74 1599.63,1238.99 1603.58,1223.13 1607.53,1206.17 1611.49,1188.15 1616.07,1165.97 1620.65,1142.45 1625.23,1117.65 1629.81,1091.63 1634.38,1064.47 1638.96,1036.25 1643.54,1007.07 1648.12,977.013 1656.26,921.736 1664.4,864.591 1672.54,806.193 1680.68,747.178 1694.96,644.14 1709.23,544.658 1717.02,493.12 1724.8,444.134 1728.69,420.748 1732.58,398.174 1736.47,376.467 1740.36,355.678 1744.28,335.739 1748.19,316.823 1752.11,298.973 1756.02,282.23 1759.93,266.629 1763.85,252.206 1767.76,238.989 1771.68,227.006 1776.01,215.221 1780.33,204.999 1784.66,196.362 1788.99,189.326 1793.32,183.902 1797.64,180.095 1801.97,177.905 1806.3,177.33 1810.42,178.271 1814.53,180.651 1818.65,184.454 1822.77,189.66 1826.89,196.244 1831.01,204.178 1835.12,213.431 1839.24,223.969 1843.52,236.247 1847.8,249.826 1852.08,264.657 1856.37,280.686 1860.65,297.858 1864.93,316.114 1869.21,335.394 1873.49,355.632 1880.7,391.69 1887.91,429.958 1895.12,470.102 1902.32,511.78 1919.93,617.843 1937.53,726.015 1945.59,774.964 1953.65,822.947 1961.71,869.575 1969.77,914.497 1977.22,954.197 1984.66,991.954 1992.11,1027.59 1999.55,1060.94 2007.1,1092.29 2014.64,1121.1 2022.18,1147.32 2029.72,1170.95 2038.18,1194.4 2046.63,1214.72 2055.08,1232.07 2063.53,1246.64 2071.19,1257.64 2078.85,1266.77 2086.51,1274.24 2094.17,1280.31 2111.71,1290.3 2129.25,1297.44 2145.49,1304.1 2161.73,1312.85 2169.73,1318.39 2177.74,1324.87 2185.74,1332.33 2193.75,1340.77 2209.29,1359.62 2224.84,1380.66 2240.77,1402.53 2256.71,1422.14 2265.44,1430.93 2274.17,1437.81 2282.9,1442.49 2291.63,1444.78 2304.31,1444.03 2316.99,1439.69 2323.33,1437.06 2329.67,1434.89 2336.01,1433.96 2342.35,1435.28 2344.95,1436.76 2347.55,1438.91 2350.15,1441.86 2352.76,1445.72 "></polyline>
<path clip-path="url(#clip190)" d="M2085.39 302.578 L2320.66 302.578 L2320.66 95.2176 L2085.39 95.2176  Z" fill="#ffffff" fill-rule="evenodd" fill-opacity="1"></path>
<polyline clip-path="url(#clip190)" style="stroke:#000000; stroke-linecap:round; stroke-linejoin:round; stroke-width:4; stroke-opacity:1; fill:none" points="2085.39,302.578 2320.66,302.578 2320.66,95.2176 2085.39,95.2176 2085.39,302.578 "></polyline>
<polyline clip-path="url(#clip190)" style="stroke:#009af9; stroke-linecap:round; stroke-linejoin:round; stroke-width:4; stroke-opacity:1; fill:none" points="2096.09,147.058 2160.28,147.058 "></polyline>
<path clip-path="url(#clip190)" d="M2184.38 151.305 Q2179.22 151.305 2177.23 152.486 Q2175.24 153.666 2175.24 156.514 Q2175.24 158.782 2176.72 160.125 Q2178.22 161.444 2180.79 161.444 Q2184.34 161.444 2186.47 158.944 Q2188.62 156.421 2188.62 152.254 L2188.62 151.305 L2184.38 151.305 M2192.88 149.546 L2192.88 164.338 L2188.62 164.338 L2188.62 160.402 Q2187.16 162.763 2184.98 163.898 Q2182.81 165.009 2179.66 165.009 Q2175.68 165.009 2173.32 162.787 Q2170.98 160.541 2170.98 156.791 Q2170.98 152.416 2173.9 150.194 Q2176.84 147.972 2182.65 147.972 L2188.62 147.972 L2188.62 147.555 Q2188.62 144.615 2186.67 143.018 Q2184.75 141.398 2181.26 141.398 Q2179.03 141.398 2176.93 141.93 Q2174.82 142.463 2172.88 143.527 L2172.88 139.592 Q2175.22 138.69 2177.41 138.25 Q2179.61 137.787 2181.7 137.787 Q2187.32 137.787 2190.1 140.703 Q2192.88 143.62 2192.88 149.546 Z" fill="#000000" fill-rule="nonzero" fill-opacity="1"></path><path clip-path="url(#clip190)" d="M2220.31 139.407 L2220.31 143.389 Q2218.5 142.393 2216.67 141.907 Q2214.87 141.398 2213.02 141.398 Q2208.87 141.398 2206.58 144.037 Q2204.29 146.652 2204.29 151.398 Q2204.29 156.143 2206.58 158.782 Q2208.87 161.398 2213.02 161.398 Q2214.87 161.398 2216.67 160.912 Q2218.5 160.402 2220.31 159.407 L2220.31 163.342 Q2218.53 164.176 2216.6 164.592 Q2214.71 165.009 2212.55 165.009 Q2206.7 165.009 2203.25 161.328 Q2199.8 157.648 2199.8 151.398 Q2199.8 145.055 2203.27 141.421 Q2206.77 137.787 2212.83 137.787 Q2214.8 137.787 2216.67 138.203 Q2218.55 138.597 2220.31 139.407 Z" fill="#000000" fill-rule="nonzero" fill-opacity="1"></path><path clip-path="url(#clip190)" d="M2231.93 131.051 L2231.93 138.412 L2240.7 138.412 L2240.7 141.722 L2231.93 141.722 L2231.93 155.796 Q2231.93 158.967 2232.78 159.87 Q2233.66 160.773 2236.33 160.773 L2240.7 160.773 L2240.7 164.338 L2236.33 164.338 Q2231.4 164.338 2229.52 162.509 Q2227.65 160.657 2227.65 155.796 L2227.65 141.722 L2224.52 141.722 L2224.52 138.412 L2227.65 138.412 L2227.65 131.051 L2231.93 131.051 Z" fill="#000000" fill-rule="nonzero" fill-opacity="1"></path><path clip-path="url(#clip190)" d="M2245.86 154.106 L2245.86 138.412 L2250.12 138.412 L2250.12 153.944 Q2250.12 157.625 2251.56 159.476 Q2252.99 161.305 2255.86 161.305 Q2259.31 161.305 2261.3 159.106 Q2263.32 156.907 2263.32 153.111 L2263.32 138.412 L2267.58 138.412 L2267.58 164.338 L2263.32 164.338 L2263.32 160.356 Q2261.77 162.717 2259.71 163.875 Q2257.67 165.009 2254.96 165.009 Q2250.49 165.009 2248.18 162.231 Q2245.86 159.453 2245.86 154.106 M2256.58 137.787 L2256.58 137.787 Z" fill="#000000" fill-rule="nonzero" fill-opacity="1"></path><path clip-path="url(#clip190)" d="M2288.13 151.305 Q2282.97 151.305 2280.98 152.486 Q2278.99 153.666 2278.99 156.514 Q2278.99 158.782 2280.47 160.125 Q2281.97 161.444 2284.54 161.444 Q2288.09 161.444 2290.21 158.944 Q2292.37 156.421 2292.37 152.254 L2292.37 151.305 L2288.13 151.305 M2296.63 149.546 L2296.63 164.338 L2292.37 164.338 L2292.37 160.402 Q2290.91 162.763 2288.73 163.898 Q2286.56 165.009 2283.41 165.009 Q2279.43 165.009 2277.07 162.787 Q2274.73 160.541 2274.73 156.791 Q2274.73 152.416 2277.65 150.194 Q2280.59 147.972 2286.4 147.972 L2292.37 147.972 L2292.37 147.555 Q2292.37 144.615 2290.42 143.018 Q2288.5 141.398 2285.01 141.398 Q2282.78 141.398 2280.68 141.93 Q2278.57 142.463 2276.63 143.527 L2276.63 139.592 Q2278.96 138.69 2281.16 138.25 Q2283.36 137.787 2285.45 137.787 Q2291.07 137.787 2293.85 140.703 Q2296.63 143.62 2296.63 149.546 Z" fill="#000000" fill-rule="nonzero" fill-opacity="1"></path><path clip-path="url(#clip190)" d="M2305.4 128.319 L2309.66 128.319 L2309.66 164.338 L2305.4 164.338 L2305.4 128.319 Z" fill="#000000" fill-rule="nonzero" fill-opacity="1"></path><circle clip-path="url(#clip190)" cx="2128.18" cy="198.898" r="20.48" fill="#e26f46" fill-rule="evenodd" fill-opacity="1" stroke="#000000" stroke-opacity="1" stroke-width="4.55111"></circle>
<path clip-path="url(#clip190)" d="M2175.26 212.289 L2175.26 226.039 L2170.98 226.039 L2170.98 190.252 L2175.26 190.252 L2175.26 194.187 Q2176.6 191.872 2178.64 190.761 Q2180.7 189.627 2183.55 189.627 Q2188.27 189.627 2191.21 193.377 Q2194.17 197.127 2194.17 203.238 Q2194.17 209.349 2191.21 213.099 Q2188.27 216.849 2183.55 216.849 Q2180.7 216.849 2178.64 215.738 Q2176.6 214.603 2175.26 212.289 M2189.75 203.238 Q2189.75 198.539 2187.81 195.877 Q2185.89 193.192 2182.51 193.192 Q2179.13 193.192 2177.18 195.877 Q2175.26 198.539 2175.26 203.238 Q2175.26 207.937 2177.18 210.622 Q2179.13 213.284 2182.51 213.284 Q2185.89 213.284 2187.81 210.622 Q2189.75 207.937 2189.75 203.238 Z" fill="#000000" fill-rule="nonzero" fill-opacity="1"></path><path clip-path="url(#clip190)" d="M2211.28 193.238 Q2207.85 193.238 2205.86 195.923 Q2203.87 198.585 2203.87 203.238 Q2203.87 207.891 2205.84 210.576 Q2207.83 213.238 2211.28 213.238 Q2214.68 213.238 2216.67 210.553 Q2218.66 207.867 2218.66 203.238 Q2218.66 198.631 2216.67 195.946 Q2214.68 193.238 2211.28 193.238 M2211.28 189.627 Q2216.84 189.627 2220.01 193.238 Q2223.18 196.849 2223.18 203.238 Q2223.18 209.604 2220.01 213.238 Q2216.84 216.849 2211.28 216.849 Q2205.7 216.849 2202.53 213.238 Q2199.38 209.604 2199.38 203.238 Q2199.38 196.849 2202.53 193.238 Q2205.7 189.627 2211.28 189.627 Z" fill="#000000" fill-rule="nonzero" fill-opacity="1"></path><path clip-path="url(#clip190)" d="M2230.24 190.252 L2234.5 190.252 L2234.5 216.178 L2230.24 216.178 L2230.24 190.252 M2230.24 180.159 L2234.5 180.159 L2234.5 185.553 L2230.24 185.553 L2230.24 180.159 Z" fill="#000000" fill-rule="nonzero" fill-opacity="1"></path><path clip-path="url(#clip190)" d="M2264.96 200.529 L2264.96 216.178 L2260.7 216.178 L2260.7 200.668 Q2260.7 196.988 2259.27 195.159 Q2257.83 193.33 2254.96 193.33 Q2251.51 193.33 2249.52 195.53 Q2247.53 197.729 2247.53 201.525 L2247.53 216.178 L2243.25 216.178 L2243.25 190.252 L2247.53 190.252 L2247.53 194.28 Q2249.06 191.942 2251.12 190.784 Q2253.2 189.627 2255.91 189.627 Q2260.38 189.627 2262.67 192.405 Q2264.96 195.159 2264.96 200.529 Z" fill="#000000" fill-rule="nonzero" fill-opacity="1"></path><path clip-path="url(#clip190)" d="M2277.67 182.891 L2277.67 190.252 L2286.44 190.252 L2286.44 193.562 L2277.67 193.562 L2277.67 207.636 Q2277.67 210.807 2278.53 211.71 Q2279.4 212.613 2282.07 212.613 L2286.44 212.613 L2286.44 216.178 L2282.07 216.178 Q2277.14 216.178 2275.26 214.349 Q2273.39 212.497 2273.39 207.636 L2273.39 193.562 L2270.26 193.562 L2270.26 190.252 L2273.39 190.252 L2273.39 182.891 L2277.67 182.891 Z" fill="#000000" fill-rule="nonzero" fill-opacity="1"></path><path clip-path="url(#clip190)" d="M2308.57 191.016 L2308.57 195.043 Q2306.77 194.117 2304.82 193.655 Q2302.88 193.192 2300.79 193.192 Q2297.62 193.192 2296.02 194.164 Q2294.45 195.136 2294.45 197.08 Q2294.45 198.562 2295.59 199.418 Q2296.72 200.252 2300.15 201.016 L2301.6 201.34 Q2306.14 202.312 2308.04 204.094 Q2309.96 205.854 2309.96 209.025 Q2309.96 212.636 2307.09 214.742 Q2304.24 216.849 2299.24 216.849 Q2297.16 216.849 2294.89 216.432 Q2292.65 216.039 2290.15 215.228 L2290.15 210.83 Q2292.51 212.057 2294.8 212.682 Q2297.09 213.284 2299.34 213.284 Q2302.34 213.284 2303.96 212.266 Q2305.59 211.224 2305.59 209.349 Q2305.59 207.613 2304.4 206.687 Q2303.25 205.761 2299.29 204.904 L2297.81 204.557 Q2293.85 203.724 2292.09 202.011 Q2290.33 200.275 2290.33 197.266 Q2290.33 193.608 2292.92 191.618 Q2295.52 189.627 2300.28 189.627 Q2302.65 189.627 2304.73 189.974 Q2306.81 190.321 2308.57 191.016 Z" fill="#000000" fill-rule="nonzero" fill-opacity="1"></path><polyline clip-path="url(#clip190)" style="stroke:#3da44d; stroke-linecap:round; stroke-linejoin:round; stroke-width:4; stroke-opacity:1; fill:none" points="2096.09,250.738 2160.28,250.738 "></polyline>
<path clip-path="url(#clip190)" d="M2191.49 243.087 L2191.49 247.069 Q2189.68 246.073 2187.85 245.587 Q2186.05 245.078 2184.2 245.078 Q2180.05 245.078 2177.76 247.717 Q2175.47 250.332 2175.47 255.078 Q2175.47 259.823 2177.76 262.462 Q2180.05 265.078 2184.2 265.078 Q2186.05 265.078 2187.85 264.592 Q2189.68 264.082 2191.49 263.087 L2191.49 267.022 Q2189.71 267.856 2187.78 268.272 Q2185.89 268.689 2183.73 268.689 Q2177.88 268.689 2174.43 265.008 Q2170.98 261.328 2170.98 255.078 Q2170.98 248.735 2174.45 245.101 Q2177.95 241.467 2184.01 241.467 Q2185.98 241.467 2187.85 241.883 Q2189.73 242.277 2191.49 243.087 Z" fill="#000000" fill-rule="nonzero" fill-opacity="1"></path><path clip-path="url(#clip190)" d="M2208.94 245.078 Q2205.52 245.078 2203.53 247.763 Q2201.53 250.425 2201.53 255.078 Q2201.53 259.731 2203.5 262.416 Q2205.49 265.078 2208.94 265.078 Q2212.34 265.078 2214.34 262.393 Q2216.33 259.707 2216.33 255.078 Q2216.33 250.471 2214.34 247.786 Q2212.34 245.078 2208.94 245.078 M2208.94 241.467 Q2214.5 241.467 2217.67 245.078 Q2220.84 248.689 2220.84 255.078 Q2220.84 261.444 2217.67 265.078 Q2214.5 268.689 2208.94 268.689 Q2203.36 268.689 2200.19 265.078 Q2197.04 261.444 2197.04 255.078 Q2197.04 248.689 2200.19 245.078 Q2203.36 241.467 2208.94 241.467 Z" fill="#000000" fill-rule="nonzero" fill-opacity="1"></path><path clip-path="url(#clip190)" d="M2244.43 242.856 L2244.43 246.883 Q2242.62 245.957 2240.68 245.495 Q2238.73 245.032 2236.65 245.032 Q2233.48 245.032 2231.88 246.004 Q2230.31 246.976 2230.31 248.92 Q2230.31 250.402 2231.44 251.258 Q2232.58 252.092 2236 252.856 L2237.46 253.18 Q2242 254.152 2243.9 255.934 Q2245.82 257.694 2245.82 260.865 Q2245.82 264.476 2242.95 266.582 Q2240.1 268.689 2235.1 268.689 Q2233.02 268.689 2230.75 268.272 Q2228.5 267.879 2226 267.068 L2226 262.67 Q2228.36 263.897 2230.65 264.522 Q2232.95 265.124 2235.19 265.124 Q2238.2 265.124 2239.82 264.106 Q2241.44 263.064 2241.44 261.189 Q2241.44 259.453 2240.26 258.527 Q2239.1 257.601 2235.15 256.744 L2233.66 256.397 Q2229.71 255.564 2227.95 253.851 Q2226.19 252.115 2226.19 249.106 Q2226.19 245.448 2228.78 243.458 Q2231.37 241.467 2236.14 241.467 Q2238.5 241.467 2240.59 241.814 Q2242.67 242.161 2244.43 242.856 Z" fill="#000000" fill-rule="nonzero" fill-opacity="1"></path></svg>
