<svg xmlns="http://www.w3.org/2000/svg" xmlns:xlink="http://www.w3.org/1999/xlink" width="600" height="400" viewBox="0 0 2400 1600">
<defs>
  <clipPath id="clip820">
    <rect x="0" y="0" width="2400" height="1600"></rect>
  </clipPath>
</defs>
<path clip-path="url(#clip820)" d="M0 1600 L2400 1600 L2400 0 L0 0  Z" fill="#ffffff" fill-rule="evenodd" fill-opacity="1"></path>
<defs>
  <clipPath id="clip821">
    <rect x="480" y="0" width="1681" height="1600"></rect>
  </clipPath>
</defs>
<path clip-path="url(#clip820)" d="M112.177 1486.45 L2352.76 1486.45 L2352.76 47.2441 L112.177 47.2441  Z" fill="#ffffff" fill-rule="evenodd" fill-opacity="1"></path>
<defs>
  <clipPath id="clip822">
    <rect x="112" y="47" width="2242" height="1440"></rect>
  </clipPath>
</defs>
<polyline clip-path="url(#clip822)" style="stroke:#000000; stroke-linecap:round; stroke-linejoin:round; stroke-width:2; stroke-opacity:0.1; fill:none" points="527.281,1486.45 527.281,47.2441 "></polyline>
<polyline clip-path="url(#clip822)" style="stroke:#000000; stroke-linecap:round; stroke-linejoin:round; stroke-width:2; stroke-opacity:0.1; fill:none" points="978.167,1486.45 978.167,47.2441 "></polyline>
<polyline clip-path="url(#clip822)" style="stroke:#000000; stroke-linecap:round; stroke-linejoin:round; stroke-width:2; stroke-opacity:0.1; fill:none" points="1429.05,1486.45 1429.05,47.2441 "></polyline>
<polyline clip-path="url(#clip822)" style="stroke:#000000; stroke-linecap:round; stroke-linejoin:round; stroke-width:2; stroke-opacity:0.1; fill:none" points="1879.94,1486.45 1879.94,47.2441 "></polyline>
<polyline clip-path="url(#clip822)" style="stroke:#000000; stroke-linecap:round; stroke-linejoin:round; stroke-width:2; stroke-opacity:0.1; fill:none" points="2330.82,1486.45 2330.82,47.2441 "></polyline>
<polyline clip-path="url(#clip820)" style="stroke:#000000; stroke-linecap:round; stroke-linejoin:round; stroke-width:4; stroke-opacity:1; fill:none" points="112.177,1486.45 2352.76,1486.45 "></polyline>
<polyline clip-path="url(#clip820)" style="stroke:#000000; stroke-linecap:round; stroke-linejoin:round; stroke-width:4; stroke-opacity:1; fill:none" points="527.281,1486.45 527.281,1467.55 "></polyline>
<polyline clip-path="url(#clip820)" style="stroke:#000000; stroke-linecap:round; stroke-linejoin:round; stroke-width:4; stroke-opacity:1; fill:none" points="978.167,1486.45 978.167,1467.55 "></polyline>
<polyline clip-path="url(#clip820)" style="stroke:#000000; stroke-linecap:round; stroke-linejoin:round; stroke-width:4; stroke-opacity:1; fill:none" points="1429.05,1486.45 1429.05,1467.55 "></polyline>
<polyline clip-path="url(#clip820)" style="stroke:#000000; stroke-linecap:round; stroke-linejoin:round; stroke-width:4; stroke-opacity:1; fill:none" points="1879.94,1486.45 1879.94,1467.55 "></polyline>
<polyline clip-path="url(#clip820)" style="stroke:#000000; stroke-linecap:round; stroke-linejoin:round; stroke-width:4; stroke-opacity:1; fill:none" points="2330.82,1486.45 2330.82,1467.55 "></polyline>
<path clip-path="url(#clip820)" d="M527.281 1517.37 Q523.67 1517.37 521.841 1520.93 Q520.036 1524.47 520.036 1531.6 Q520.036 1538.71 521.841 1542.27 Q523.67 1545.82 527.281 1545.82 Q530.915 1545.82 532.721 1542.27 Q534.549 1538.71 534.549 1531.6 Q534.549 1524.47 532.721 1520.93 Q530.915 1517.37 527.281 1517.37 M527.281 1513.66 Q533.091 1513.66 536.147 1518.27 Q539.225 1522.85 539.225 1531.6 Q539.225 1540.33 536.147 1544.94 Q533.091 1549.52 527.281 1549.52 Q521.471 1549.52 518.392 1544.94 Q515.336 1540.33 515.336 1531.6 Q515.336 1522.85 518.392 1518.27 Q521.471 1513.66 527.281 1513.66 Z" fill="#000000" fill-rule="nonzero" fill-opacity="1"></path><path clip-path="url(#clip820)" d="M941.859 1544.91 L958.179 1544.91 L958.179 1548.85 L936.234 1548.85 L936.234 1544.91 Q938.896 1542.16 943.48 1537.53 Q948.086 1532.88 949.267 1531.53 Q951.512 1529.01 952.392 1527.27 Q953.294 1525.51 953.294 1523.82 Q953.294 1521.07 951.35 1519.33 Q949.429 1517.6 946.327 1517.6 Q944.128 1517.6 941.674 1518.36 Q939.243 1519.13 936.466 1520.68 L936.466 1515.95 Q939.29 1514.82 941.743 1514.24 Q944.197 1513.66 946.234 1513.66 Q951.604 1513.66 954.799 1516.35 Q957.993 1519.03 957.993 1523.52 Q957.993 1525.65 957.183 1527.57 Q956.396 1529.47 954.29 1532.07 Q953.711 1532.74 950.609 1535.95 Q947.507 1539.15 941.859 1544.91 Z" fill="#000000" fill-rule="nonzero" fill-opacity="1"></path><path clip-path="url(#clip820)" d="M968.04 1514.29 L986.396 1514.29 L986.396 1518.22 L972.322 1518.22 L972.322 1526.7 Q973.34 1526.35 974.359 1526.19 Q975.378 1526 976.396 1526 Q982.183 1526 985.563 1529.17 Q988.942 1532.34 988.942 1537.76 Q988.942 1543.34 985.47 1546.44 Q981.998 1549.52 975.678 1549.52 Q973.503 1549.52 971.234 1549.15 Q968.989 1548.78 966.581 1548.04 L966.581 1543.34 Q968.665 1544.47 970.887 1545.03 Q973.109 1545.58 975.586 1545.58 Q979.59 1545.58 981.928 1543.48 Q984.266 1541.37 984.266 1537.76 Q984.266 1534.15 981.928 1532.04 Q979.59 1529.94 975.586 1529.94 Q973.711 1529.94 971.836 1530.35 Q969.984 1530.77 968.04 1531.65 L968.04 1514.29 Z" fill="#000000" fill-rule="nonzero" fill-opacity="1"></path><path clip-path="url(#clip820)" d="M1008.16 1517.37 Q1004.54 1517.37 1002.72 1520.93 Q1000.91 1524.47 1000.91 1531.6 Q1000.91 1538.71 1002.72 1542.27 Q1004.54 1545.82 1008.16 1545.82 Q1011.79 1545.82 1013.59 1542.27 Q1015.42 1538.71 1015.42 1531.6 Q1015.42 1524.47 1013.59 1520.93 Q1011.79 1517.37 1008.16 1517.37 M1008.16 1513.66 Q1013.97 1513.66 1017.02 1518.27 Q1020.1 1522.85 1020.1 1531.6 Q1020.1 1540.33 1017.02 1544.94 Q1013.97 1549.52 1008.16 1549.52 Q1002.34 1549.52 999.266 1544.94 Q996.211 1540.33 996.211 1531.6 Q996.211 1522.85 999.266 1518.27 Q1002.34 1513.66 1008.16 1513.66 Z" fill="#000000" fill-rule="nonzero" fill-opacity="1"></path><path clip-path="url(#clip820)" d="M1388.67 1514.29 L1407.03 1514.29 L1407.03 1518.22 L1392.95 1518.22 L1392.95 1526.7 Q1393.97 1526.35 1394.99 1526.19 Q1396.01 1526 1397.03 1526 Q1402.81 1526 1406.19 1529.17 Q1409.57 1532.34 1409.57 1537.76 Q1409.57 1543.34 1406.1 1546.44 Q1402.63 1549.52 1396.31 1549.52 Q1394.13 1549.52 1391.87 1549.15 Q1389.62 1548.78 1387.21 1548.04 L1387.21 1543.34 Q1389.3 1544.47 1391.52 1545.03 Q1393.74 1545.58 1396.22 1545.58 Q1400.22 1545.58 1402.56 1543.48 Q1404.9 1541.37 1404.9 1537.76 Q1404.9 1534.15 1402.56 1532.04 Q1400.22 1529.94 1396.22 1529.94 Q1394.34 1529.94 1392.47 1530.35 Q1390.62 1530.77 1388.67 1531.65 L1388.67 1514.29 Z" fill="#000000" fill-rule="nonzero" fill-opacity="1"></path><path clip-path="url(#clip820)" d="M1428.79 1517.37 Q1425.18 1517.37 1423.35 1520.93 Q1421.54 1524.47 1421.54 1531.6 Q1421.54 1538.71 1423.35 1542.27 Q1425.18 1545.82 1428.79 1545.82 Q1432.42 1545.82 1434.23 1542.27 Q1436.06 1538.71 1436.06 1531.6 Q1436.06 1524.47 1434.23 1520.93 Q1432.42 1517.37 1428.79 1517.37 M1428.79 1513.66 Q1434.6 1513.66 1437.65 1518.27 Q1440.73 1522.85 1440.73 1531.6 Q1440.73 1540.33 1437.65 1544.94 Q1434.6 1549.52 1428.79 1549.52 Q1422.98 1549.52 1419.9 1544.94 Q1416.84 1540.33 1416.84 1531.6 Q1416.84 1522.85 1419.9 1518.27 Q1422.98 1513.66 1428.79 1513.66 Z" fill="#000000" fill-rule="nonzero" fill-opacity="1"></path><path clip-path="url(#clip820)" d="M1458.95 1517.37 Q1455.34 1517.37 1453.51 1520.93 Q1451.7 1524.47 1451.7 1531.6 Q1451.7 1538.71 1453.51 1542.27 Q1455.34 1545.82 1458.95 1545.82 Q1462.58 1545.82 1464.39 1542.27 Q1466.22 1538.71 1466.22 1531.6 Q1466.22 1524.47 1464.39 1520.93 Q1462.58 1517.37 1458.95 1517.37 M1458.95 1513.66 Q1464.76 1513.66 1467.81 1518.27 Q1470.89 1522.85 1470.89 1531.6 Q1470.89 1540.33 1467.81 1544.94 Q1464.76 1549.52 1458.95 1549.52 Q1453.14 1549.52 1450.06 1544.94 Q1447 1540.33 1447 1531.6 Q1447 1522.85 1450.06 1518.27 Q1453.14 1513.66 1458.95 1513.66 Z" fill="#000000" fill-rule="nonzero" fill-opacity="1"></path><path clip-path="url(#clip820)" d="M1838.21 1514.29 L1860.44 1514.29 L1860.44 1516.28 L1847.89 1548.85 L1843.01 1548.85 L1854.81 1518.22 L1838.21 1518.22 L1838.21 1514.29 Z" fill="#000000" fill-rule="nonzero" fill-opacity="1"></path><path clip-path="url(#clip820)" d="M1869.6 1514.29 L1887.96 1514.29 L1887.96 1518.22 L1873.89 1518.22 L1873.89 1526.7 Q1874.9 1526.35 1875.92 1526.19 Q1876.94 1526 1877.96 1526 Q1883.75 1526 1887.13 1529.17 Q1890.51 1532.34 1890.51 1537.76 Q1890.51 1543.34 1887.03 1546.44 Q1883.56 1549.52 1877.24 1549.52 Q1875.07 1549.52 1872.8 1549.15 Q1870.55 1548.78 1868.14 1548.04 L1868.14 1543.34 Q1870.23 1544.47 1872.45 1545.03 Q1874.67 1545.58 1877.15 1545.58 Q1881.15 1545.58 1883.49 1543.48 Q1885.83 1541.37 1885.83 1537.76 Q1885.83 1534.15 1883.49 1532.04 Q1881.15 1529.94 1877.15 1529.94 Q1875.27 1529.94 1873.4 1530.35 Q1871.55 1530.77 1869.6 1531.65 L1869.6 1514.29 Z" fill="#000000" fill-rule="nonzero" fill-opacity="1"></path><path clip-path="url(#clip820)" d="M1909.72 1517.37 Q1906.11 1517.37 1904.28 1520.93 Q1902.47 1524.47 1902.47 1531.6 Q1902.47 1538.71 1904.28 1542.27 Q1906.11 1545.82 1909.72 1545.82 Q1913.35 1545.82 1915.16 1542.27 Q1916.99 1538.71 1916.99 1531.6 Q1916.99 1524.47 1915.16 1520.93 Q1913.35 1517.37 1909.72 1517.37 M1909.72 1513.66 Q1915.53 1513.66 1918.58 1518.27 Q1921.66 1522.85 1921.66 1531.6 Q1921.66 1540.33 1918.58 1544.94 Q1915.53 1549.52 1909.72 1549.52 Q1903.91 1549.52 1900.83 1544.94 Q1897.77 1540.33 1897.77 1531.6 Q1897.77 1522.85 1900.83 1518.27 Q1903.91 1513.66 1909.72 1513.66 Z" fill="#000000" fill-rule="nonzero" fill-opacity="1"></path><path clip-path="url(#clip820)" d="M2275.35 1544.91 L2282.99 1544.91 L2282.99 1518.55 L2274.68 1520.21 L2274.68 1515.95 L2282.94 1514.29 L2287.62 1514.29 L2287.62 1544.91 L2295.26 1544.91 L2295.26 1548.85 L2275.35 1548.85 L2275.35 1544.91 Z" fill="#000000" fill-rule="nonzero" fill-opacity="1"></path><path clip-path="url(#clip820)" d="M2314.7 1517.37 Q2311.09 1517.37 2309.26 1520.93 Q2307.46 1524.47 2307.46 1531.6 Q2307.46 1538.71 2309.26 1542.27 Q2311.09 1545.82 2314.7 1545.82 Q2318.34 1545.82 2320.14 1542.27 Q2321.97 1538.71 2321.97 1531.6 Q2321.97 1524.47 2320.14 1520.93 Q2318.34 1517.37 2314.7 1517.37 M2314.7 1513.66 Q2320.51 1513.66 2323.57 1518.27 Q2326.65 1522.85 2326.65 1531.6 Q2326.65 1540.33 2323.57 1544.94 Q2320.51 1549.52 2314.7 1549.52 Q2308.89 1549.52 2305.81 1544.94 Q2302.76 1540.33 2302.76 1531.6 Q2302.76 1522.85 2305.81 1518.27 Q2308.89 1513.66 2314.7 1513.66 Z" fill="#000000" fill-rule="nonzero" fill-opacity="1"></path><path clip-path="url(#clip820)" d="M2344.86 1517.37 Q2341.25 1517.37 2339.42 1520.93 Q2337.62 1524.47 2337.62 1531.6 Q2337.62 1538.71 2339.42 1542.27 Q2341.25 1545.82 2344.86 1545.82 Q2348.5 1545.82 2350.3 1542.27 Q2352.13 1538.71 2352.13 1531.6 Q2352.13 1524.47 2350.3 1520.93 Q2348.5 1517.37 2344.86 1517.37 M2344.86 1513.66 Q2350.67 1513.66 2353.73 1518.27 Q2356.81 1522.85 2356.81 1531.6 Q2356.81 1540.33 2353.73 1544.94 Q2350.67 1549.52 2344.86 1549.52 Q2339.05 1549.52 2335.98 1544.94 Q2332.92 1540.33 2332.92 1531.6 Q2332.92 1522.85 2335.98 1518.27 Q2339.05 1513.66 2344.86 1513.66 Z" fill="#000000" fill-rule="nonzero" fill-opacity="1"></path><path clip-path="url(#clip820)" d="M2375.03 1517.37 Q2371.41 1517.37 2369.59 1520.93 Q2367.78 1524.47 2367.78 1531.6 Q2367.78 1538.71 2369.59 1542.27 Q2371.41 1545.82 2375.03 1545.82 Q2378.66 1545.82 2380.47 1542.27 Q2382.29 1538.71 2382.29 1531.6 Q2382.29 1524.47 2380.47 1520.93 Q2378.66 1517.37 2375.03 1517.37 M2375.03 1513.66 Q2380.84 1513.66 2383.89 1518.27 Q2386.97 1522.85 2386.97 1531.6 Q2386.97 1540.33 2383.89 1544.94 Q2380.84 1549.52 2375.03 1549.52 Q2369.22 1549.52 2366.14 1544.94 Q2363.08 1540.33 2363.08 1531.6 Q2363.08 1522.85 2366.14 1518.27 Q2369.22 1513.66 2375.03 1513.66 Z" fill="#000000" fill-rule="nonzero" fill-opacity="1"></path><polyline clip-path="url(#clip822)" style="stroke:#000000; stroke-linecap:round; stroke-linejoin:round; stroke-width:2; stroke-opacity:0.1; fill:none" points="112.177,1480.09 2352.76,1480.09 "></polyline>
<polyline clip-path="url(#clip822)" style="stroke:#000000; stroke-linecap:round; stroke-linejoin:round; stroke-width:2; stroke-opacity:0.1; fill:none" points="112.177,1136.36 2352.76,1136.36 "></polyline>
<polyline clip-path="url(#clip822)" style="stroke:#000000; stroke-linecap:round; stroke-linejoin:round; stroke-width:2; stroke-opacity:0.1; fill:none" points="112.177,792.626 2352.76,792.626 "></polyline>
<polyline clip-path="url(#clip822)" style="stroke:#000000; stroke-linecap:round; stroke-linejoin:round; stroke-width:2; stroke-opacity:0.1; fill:none" points="112.177,448.894 2352.76,448.894 "></polyline>
<polyline clip-path="url(#clip822)" style="stroke:#000000; stroke-linecap:round; stroke-linejoin:round; stroke-width:2; stroke-opacity:0.1; fill:none" points="112.177,105.163 2352.76,105.163 "></polyline>
<polyline clip-path="url(#clip820)" style="stroke:#000000; stroke-linecap:round; stroke-linejoin:round; stroke-width:4; stroke-opacity:1; fill:none" points="112.177,1486.45 112.177,47.2441 "></polyline>
<polyline clip-path="url(#clip820)" style="stroke:#000000; stroke-linecap:round; stroke-linejoin:round; stroke-width:4; stroke-opacity:1; fill:none" points="112.177,1480.09 131.075,1480.09 "></polyline>
<polyline clip-path="url(#clip820)" style="stroke:#000000; stroke-linecap:round; stroke-linejoin:round; stroke-width:4; stroke-opacity:1; fill:none" points="112.177,1136.36 131.075,1136.36 "></polyline>
<polyline clip-path="url(#clip820)" style="stroke:#000000; stroke-linecap:round; stroke-linejoin:round; stroke-width:4; stroke-opacity:1; fill:none" points="112.177,792.626 131.075,792.626 "></polyline>
<polyline clip-path="url(#clip820)" style="stroke:#000000; stroke-linecap:round; stroke-linejoin:round; stroke-width:4; stroke-opacity:1; fill:none" points="112.177,448.894 131.075,448.894 "></polyline>
<polyline clip-path="url(#clip820)" style="stroke:#000000; stroke-linecap:round; stroke-linejoin:round; stroke-width:4; stroke-opacity:1; fill:none" points="112.177,105.163 131.075,105.163 "></polyline>
<path clip-path="url(#clip820)" d="M64.2328 1465.89 Q60.6217 1465.89 58.793 1469.45 Q56.9875 1472.99 56.9875 1480.12 Q56.9875 1487.23 58.793 1490.79 Q60.6217 1494.34 64.2328 1494.34 Q67.867 1494.34 69.6726 1490.79 Q71.5013 1487.23 71.5013 1480.12 Q71.5013 1472.99 69.6726 1469.45 Q67.867 1465.89 64.2328 1465.89 M64.2328 1462.18 Q70.0429 1462.18 73.0985 1466.79 Q76.1772 1471.37 76.1772 1480.12 Q76.1772 1488.85 73.0985 1493.46 Q70.0429 1498.04 64.2328 1498.04 Q58.4226 1498.04 55.344 1493.46 Q52.2884 1488.85 52.2884 1480.12 Q52.2884 1471.37 55.344 1466.79 Q58.4226 1462.18 64.2328 1462.18 Z" fill="#000000" fill-rule="nonzero" fill-opacity="1"></path><path clip-path="url(#clip820)" d="M59.8578 1149.7 L76.1772 1149.7 L76.1772 1153.64 L54.2328 1153.64 L54.2328 1149.7 Q56.8949 1146.95 61.4782 1142.32 Q66.0846 1137.67 67.2652 1136.32 Q69.5105 1133.8 70.3902 1132.06 Q71.2929 1130.3 71.2929 1128.61 Q71.2929 1125.86 69.3485 1124.12 Q67.4272 1122.39 64.3254 1122.39 Q62.1263 1122.39 59.6726 1123.15 Q57.2421 1123.92 54.4643 1125.47 L54.4643 1120.74 Q57.2884 1119.61 59.7421 1119.03 Q62.1958 1118.45 64.2328 1118.45 Q69.6031 1118.45 72.7976 1121.14 Q75.992 1123.82 75.992 1128.31 Q75.992 1130.44 75.1818 1132.36 Q74.3948 1134.26 72.2883 1136.86 Q71.7096 1137.53 68.6078 1140.74 Q65.5059 1143.94 59.8578 1149.7 Z" fill="#000000" fill-rule="nonzero" fill-opacity="1"></path><path clip-path="url(#clip820)" d="M66.5939 779.42 L54.7884 797.869 L66.5939 797.869 L66.5939 779.42 M65.367 775.346 L71.2466 775.346 L71.2466 797.869 L76.1772 797.869 L76.1772 801.758 L71.2466 801.758 L71.2466 809.906 L66.5939 809.906 L66.5939 801.758 L50.9921 801.758 L50.9921 797.244 L65.367 775.346 Z" fill="#000000" fill-rule="nonzero" fill-opacity="1"></path><path clip-path="url(#clip820)" d="M64.6495 447.031 Q61.5013 447.031 59.6495 449.184 Q57.8208 451.336 57.8208 455.086 Q57.8208 458.813 59.6495 460.989 Q61.5013 463.142 64.6495 463.142 Q67.7976 463.142 69.6263 460.989 Q71.4781 458.813 71.4781 455.086 Q71.4781 451.336 69.6263 449.184 Q67.7976 447.031 64.6495 447.031 M73.9318 432.378 L73.9318 436.637 Q72.1726 435.804 70.367 435.364 Q68.5846 434.925 66.8254 434.925 Q62.1958 434.925 59.7421 438.049 Q57.3115 441.174 56.9643 447.494 Q58.33 445.48 60.3902 444.415 Q62.4504 443.327 64.9272 443.327 Q70.1355 443.327 73.1448 446.499 Q76.1772 449.647 76.1772 455.086 Q76.1772 460.41 73.029 463.628 Q69.8809 466.846 64.6495 466.846 Q58.6541 466.846 55.4828 462.262 Q52.3116 457.656 52.3116 448.929 Q52.3116 440.735 56.2004 435.874 Q60.0893 430.989 66.6402 430.989 Q68.3994 430.989 70.1818 431.337 Q71.9874 431.684 73.9318 432.378 Z" fill="#000000" fill-rule="nonzero" fill-opacity="1"></path><path clip-path="url(#clip820)" d="M64.3254 106.031 Q60.9921 106.031 59.0708 107.813 Q57.1726 109.596 57.1726 112.721 Q57.1726 115.846 59.0708 117.628 Q60.9921 119.41 64.3254 119.41 Q67.6587 119.41 69.58 117.628 Q71.5013 115.823 71.5013 112.721 Q71.5013 109.596 69.58 107.813 Q67.6819 106.031 64.3254 106.031 M59.6495 104.04 Q56.6402 103.299 54.9504 101.239 Q53.2838 99.1791 53.2838 96.2161 Q53.2838 92.0726 56.2236 89.6652 Q59.1865 87.2579 64.3254 87.2579 Q69.4874 87.2579 72.4272 89.6652 Q75.367 92.0726 75.367 96.2161 Q75.367 99.1791 73.6772 101.239 Q72.0105 103.299 69.0244 104.04 Q72.404 104.827 74.279 107.119 Q76.1772 109.411 76.1772 112.721 Q76.1772 117.744 73.0985 120.429 Q70.0429 123.114 64.3254 123.114 Q58.6078 123.114 55.5291 120.429 Q52.4736 117.744 52.4736 112.721 Q52.4736 109.411 54.3717 107.119 Q56.2699 104.827 59.6495 104.04 M57.9365 96.656 Q57.9365 99.3411 59.6032 100.846 Q61.293 102.35 64.3254 102.35 Q67.3346 102.35 69.0244 100.846 Q70.7374 99.3411 70.7374 96.656 Q70.7374 93.9708 69.0244 92.4662 Q67.3346 90.9615 64.3254 90.9615 Q61.293 90.9615 59.6032 92.4662 Q57.9365 93.9708 57.9365 96.656 Z" fill="#000000" fill-rule="nonzero" fill-opacity="1"></path><polyline clip-path="url(#clip822)" style="stroke:#009af9; stroke-linecap:round; stroke-linejoin:round; stroke-width:4; stroke-opacity:0; fill:none" points="175.59,1445.72 527.281,1213.7 563.352,1188.95 707.635,1079.64 887.99,976.522 1068.34,861.372 1423.64,689.506 1789.76,328.588 2289.34,87.9763 "></polyline>
<line clip-path="url(#clip822)" x1="175.59" y1="1445.72" x2="159.59" y2="1429.72" style="stroke:#009af9; stroke-width:4; stroke-opacity:1"></line>
<line clip-path="url(#clip822)" x1="175.59" y1="1445.72" x2="159.59" y2="1461.72" style="stroke:#009af9; stroke-width:4; stroke-opacity:1"></line>
<line clip-path="url(#clip822)" x1="175.59" y1="1445.72" x2="191.59" y2="1461.72" style="stroke:#009af9; stroke-width:4; stroke-opacity:1"></line>
<line clip-path="url(#clip822)" x1="175.59" y1="1445.72" x2="191.59" y2="1429.72" style="stroke:#009af9; stroke-width:4; stroke-opacity:1"></line>
<line clip-path="url(#clip822)" x1="527.281" y1="1213.7" x2="511.281" y2="1197.7" style="stroke:#009af9; stroke-width:4; stroke-opacity:1"></line>
<line clip-path="url(#clip822)" x1="527.281" y1="1213.7" x2="511.281" y2="1229.7" style="stroke:#009af9; stroke-width:4; stroke-opacity:1"></line>
<line clip-path="url(#clip822)" x1="527.281" y1="1213.7" x2="543.281" y2="1229.7" style="stroke:#009af9; stroke-width:4; stroke-opacity:1"></line>
<line clip-path="url(#clip822)" x1="527.281" y1="1213.7" x2="543.281" y2="1197.7" style="stroke:#009af9; stroke-width:4; stroke-opacity:1"></line>
<line clip-path="url(#clip822)" x1="563.352" y1="1188.95" x2="547.352" y2="1172.95" style="stroke:#009af9; stroke-width:4; stroke-opacity:1"></line>
<line clip-path="url(#clip822)" x1="563.352" y1="1188.95" x2="547.352" y2="1204.95" style="stroke:#009af9; stroke-width:4; stroke-opacity:1"></line>
<line clip-path="url(#clip822)" x1="563.352" y1="1188.95" x2="579.352" y2="1204.95" style="stroke:#009af9; stroke-width:4; stroke-opacity:1"></line>
<line clip-path="url(#clip822)" x1="563.352" y1="1188.95" x2="579.352" y2="1172.95" style="stroke:#009af9; stroke-width:4; stroke-opacity:1"></line>
<line clip-path="url(#clip822)" x1="707.635" y1="1079.64" x2="691.635" y2="1063.64" style="stroke:#009af9; stroke-width:4; stroke-opacity:1"></line>
<line clip-path="url(#clip822)" x1="707.635" y1="1079.64" x2="691.635" y2="1095.64" style="stroke:#009af9; stroke-width:4; stroke-opacity:1"></line>
<line clip-path="url(#clip822)" x1="707.635" y1="1079.64" x2="723.635" y2="1095.64" style="stroke:#009af9; stroke-width:4; stroke-opacity:1"></line>
<line clip-path="url(#clip822)" x1="707.635" y1="1079.64" x2="723.635" y2="1063.64" style="stroke:#009af9; stroke-width:4; stroke-opacity:1"></line>
<line clip-path="url(#clip822)" x1="887.99" y1="976.522" x2="871.99" y2="960.522" style="stroke:#009af9; stroke-width:4; stroke-opacity:1"></line>
<line clip-path="url(#clip822)" x1="887.99" y1="976.522" x2="871.99" y2="992.522" style="stroke:#009af9; stroke-width:4; stroke-opacity:1"></line>
<line clip-path="url(#clip822)" x1="887.99" y1="976.522" x2="903.99" y2="992.522" style="stroke:#009af9; stroke-width:4; stroke-opacity:1"></line>
<line clip-path="url(#clip822)" x1="887.99" y1="976.522" x2="903.99" y2="960.522" style="stroke:#009af9; stroke-width:4; stroke-opacity:1"></line>
<line clip-path="url(#clip822)" x1="1068.34" y1="861.372" x2="1052.34" y2="845.372" style="stroke:#009af9; stroke-width:4; stroke-opacity:1"></line>
<line clip-path="url(#clip822)" x1="1068.34" y1="861.372" x2="1052.34" y2="877.372" style="stroke:#009af9; stroke-width:4; stroke-opacity:1"></line>
<line clip-path="url(#clip822)" x1="1068.34" y1="861.372" x2="1084.34" y2="877.372" style="stroke:#009af9; stroke-width:4; stroke-opacity:1"></line>
<line clip-path="url(#clip822)" x1="1068.34" y1="861.372" x2="1084.34" y2="845.372" style="stroke:#009af9; stroke-width:4; stroke-opacity:1"></line>
<line clip-path="url(#clip822)" x1="1423.64" y1="689.506" x2="1407.64" y2="673.506" style="stroke:#009af9; stroke-width:4; stroke-opacity:1"></line>
<line clip-path="url(#clip822)" x1="1423.64" y1="689.506" x2="1407.64" y2="705.506" style="stroke:#009af9; stroke-width:4; stroke-opacity:1"></line>
<line clip-path="url(#clip822)" x1="1423.64" y1="689.506" x2="1439.64" y2="705.506" style="stroke:#009af9; stroke-width:4; stroke-opacity:1"></line>
<line clip-path="url(#clip822)" x1="1423.64" y1="689.506" x2="1439.64" y2="673.506" style="stroke:#009af9; stroke-width:4; stroke-opacity:1"></line>
<line clip-path="url(#clip822)" x1="1789.76" y1="328.588" x2="1773.76" y2="312.588" style="stroke:#009af9; stroke-width:4; stroke-opacity:1"></line>
<line clip-path="url(#clip822)" x1="1789.76" y1="328.588" x2="1773.76" y2="344.588" style="stroke:#009af9; stroke-width:4; stroke-opacity:1"></line>
<line clip-path="url(#clip822)" x1="1789.76" y1="328.588" x2="1805.76" y2="344.588" style="stroke:#009af9; stroke-width:4; stroke-opacity:1"></line>
<line clip-path="url(#clip822)" x1="1789.76" y1="328.588" x2="1805.76" y2="312.588" style="stroke:#009af9; stroke-width:4; stroke-opacity:1"></line>
<line clip-path="url(#clip822)" x1="2289.34" y1="87.9763" x2="2273.34" y2="71.9763" style="stroke:#009af9; stroke-width:4; stroke-opacity:1"></line>
<line clip-path="url(#clip822)" x1="2289.34" y1="87.9763" x2="2273.34" y2="103.976" style="stroke:#009af9; stroke-width:4; stroke-opacity:1"></line>
<line clip-path="url(#clip822)" x1="2289.34" y1="87.9763" x2="2305.34" y2="103.976" style="stroke:#009af9; stroke-width:4; stroke-opacity:1"></line>
<line clip-path="url(#clip822)" x1="2289.34" y1="87.9763" x2="2305.34" y2="71.9763" style="stroke:#009af9; stroke-width:4; stroke-opacity:1"></line>
<path clip-path="url(#clip820)" d="M186.863 198.898 L463.351 198.898 L463.351 95.2176 L186.863 95.2176  Z" fill="#ffffff" fill-rule="evenodd" fill-opacity="1"></path>
<polyline clip-path="url(#clip820)" style="stroke:#000000; stroke-linecap:round; stroke-linejoin:round; stroke-width:4; stroke-opacity:1; fill:none" points="186.863,198.898 463.351,198.898 463.351,95.2176 186.863,95.2176 186.863,198.898 "></polyline>
<polyline clip-path="url(#clip820)" style="stroke:#009af9; stroke-linecap:round; stroke-linejoin:round; stroke-width:4; stroke-opacity:0; fill:none" points="211.758,147.058 361.13,147.058 "></polyline>
<line clip-path="url(#clip820)" x1="286.444" y1="147.058" x2="263.689" y2="124.302" style="stroke:#009af9; stroke-width:4.55111; stroke-opacity:1"></line>
<line clip-path="url(#clip820)" x1="286.444" y1="147.058" x2="263.689" y2="169.813" style="stroke:#009af9; stroke-width:4.55111; stroke-opacity:1"></line>
<line clip-path="url(#clip820)" x1="286.444" y1="147.058" x2="309.2" y2="169.813" style="stroke:#009af9; stroke-width:4.55111; stroke-opacity:1"></line>
<line clip-path="url(#clip820)" x1="286.444" y1="147.058" x2="309.2" y2="124.302" style="stroke:#009af9; stroke-width:4.55111; stroke-opacity:1"></line>
<path clip-path="url(#clip820)" d="M399.868 166.745 Q398.063 171.375 396.35 172.787 Q394.637 174.199 391.766 174.199 L388.364 174.199 L388.364 170.634 L390.864 170.634 Q392.623 170.634 393.595 169.8 Q394.567 168.967 395.748 165.865 L396.512 163.921 L386.026 138.412 L390.54 138.412 L398.641 158.689 L406.743 138.412 L411.257 138.412 L399.868 166.745 Z" fill="#000000" fill-rule="nonzero" fill-opacity="1"></path><path clip-path="url(#clip820)" d="M418.549 160.402 L426.188 160.402 L426.188 134.037 L417.877 135.703 L417.877 131.444 L426.141 129.778 L430.817 129.778 L430.817 160.402 L438.456 160.402 L438.456 164.338 L418.549 164.338 L418.549 160.402 Z" fill="#000000" fill-rule="nonzero" fill-opacity="1"></path></svg>
