<svg xmlns="http://www.w3.org/2000/svg" xmlns:xlink="http://www.w3.org/1999/xlink" width="600" height="400" viewBox="0 0 2400 1600">
<defs>
  <clipPath id="clip910">
    <rect x="0" y="0" width="2400" height="1600"></rect>
  </clipPath>
</defs>
<path clip-path="url(#clip910)" d="M0 1600 L2400 1600 L2400 0 L0 0  Z" fill="#ffffff" fill-rule="evenodd" fill-opacity="1"></path>
<defs>
  <clipPath id="clip911">
    <rect x="480" y="0" width="1681" height="1600"></rect>
  </clipPath>
</defs>
<path clip-path="url(#clip910)" d="M112.177 1486.45 L2352.76 1486.45 L2352.76 47.2441 L112.177 47.2441  Z" fill="#ffffff" fill-rule="evenodd" fill-opacity="1"></path>
<defs>
  <clipPath id="clip912">
    <rect x="112" y="47" width="2242" height="1440"></rect>
  </clipPath>
</defs>
<polyline clip-path="url(#clip912)" style="stroke:#000000; stroke-linecap:round; stroke-linejoin:round; stroke-width:2; stroke-opacity:0.1; fill:none" points="527.281,1486.45 527.281,47.2441 "></polyline>
<polyline clip-path="url(#clip912)" style="stroke:#000000; stroke-linecap:round; stroke-linejoin:round; stroke-width:2; stroke-opacity:0.1; fill:none" points="978.167,1486.45 978.167,47.2441 "></polyline>
<polyline clip-path="url(#clip912)" style="stroke:#000000; stroke-linecap:round; stroke-linejoin:round; stroke-width:2; stroke-opacity:0.1; fill:none" points="1429.05,1486.45 1429.05,47.2441 "></polyline>
<polyline clip-path="url(#clip912)" style="stroke:#000000; stroke-linecap:round; stroke-linejoin:round; stroke-width:2; stroke-opacity:0.1; fill:none" points="1879.94,1486.45 1879.94,47.2441 "></polyline>
<polyline clip-path="url(#clip912)" style="stroke:#000000; stroke-linecap:round; stroke-linejoin:round; stroke-width:2; stroke-opacity:0.1; fill:none" points="2330.82,1486.45 2330.82,47.2441 "></polyline>
<polyline clip-path="url(#clip910)" style="stroke:#000000; stroke-linecap:round; stroke-linejoin:round; stroke-width:4; stroke-opacity:1; fill:none" points="112.177,1486.45 2352.76,1486.45 "></polyline>
<polyline clip-path="url(#clip910)" style="stroke:#000000; stroke-linecap:round; stroke-linejoin:round; stroke-width:4; stroke-opacity:1; fill:none" points="527.281,1486.45 527.281,1467.55 "></polyline>
<polyline clip-path="url(#clip910)" style="stroke:#000000; stroke-linecap:round; stroke-linejoin:round; stroke-width:4; stroke-opacity:1; fill:none" points="978.167,1486.45 978.167,1467.55 "></polyline>
<polyline clip-path="url(#clip910)" style="stroke:#000000; stroke-linecap:round; stroke-linejoin:round; stroke-width:4; stroke-opacity:1; fill:none" points="1429.05,1486.45 1429.05,1467.55 "></polyline>
<polyline clip-path="url(#clip910)" style="stroke:#000000; stroke-linecap:round; stroke-linejoin:round; stroke-width:4; stroke-opacity:1; fill:none" points="1879.94,1486.45 1879.94,1467.55 "></polyline>
<polyline clip-path="url(#clip910)" style="stroke:#000000; stroke-linecap:round; stroke-linejoin:round; stroke-width:4; stroke-opacity:1; fill:none" points="2330.82,1486.45 2330.82,1467.55 "></polyline>
<path clip-path="url(#clip910)" d="M527.281 1517.37 Q523.67 1517.37 521.841 1520.93 Q520.036 1524.47 520.036 1531.6 Q520.036 1538.71 521.841 1542.27 Q523.67 1545.82 527.281 1545.82 Q530.915 1545.82 532.721 1542.27 Q534.549 1538.71 534.549 1531.6 Q534.549 1524.47 532.721 1520.93 Q530.915 1517.37 527.281 1517.37 M527.281 1513.66 Q533.091 1513.66 536.147 1518.27 Q539.225 1522.85 539.225 1531.6 Q539.225 1540.33 536.147 1544.94 Q533.091 1549.52 527.281 1549.52 Q521.471 1549.52 518.392 1544.94 Q515.336 1540.33 515.336 1531.6 Q515.336 1522.85 518.392 1518.27 Q521.471 1513.66 527.281 1513.66 Z" fill="#000000" fill-rule="nonzero" fill-opacity="1"></path><path clip-path="url(#clip910)" d="M941.859 1544.91 L958.179 1544.91 L958.179 1548.85 L936.234 1548.85 L936.234 1544.91 Q938.896 1542.16 943.48 1537.53 Q948.086 1532.88 949.267 1531.53 Q951.512 1529.01 952.392 1527.27 Q953.294 1525.51 953.294 1523.82 Q953.294 1521.07 951.35 1519.33 Q949.429 1517.6 946.327 1517.6 Q944.128 1517.6 941.674 1518.36 Q939.243 1519.13 936.466 1520.68 L936.466 1515.95 Q939.29 1514.82 941.743 1514.24 Q944.197 1513.66 946.234 1513.66 Q951.604 1513.66 954.799 1516.35 Q957.993 1519.03 957.993 1523.52 Q957.993 1525.65 957.183 1527.57 Q956.396 1529.47 954.29 1532.07 Q953.711 1532.74 950.609 1535.95 Q947.507 1539.15 941.859 1544.91 Z" fill="#000000" fill-rule="nonzero" fill-opacity="1"></path><path clip-path="url(#clip910)" d="M968.04 1514.29 L986.396 1514.29 L986.396 1518.22 L972.322 1518.22 L972.322 1526.7 Q973.34 1526.35 974.359 1526.19 Q975.378 1526 976.396 1526 Q982.183 1526 985.563 1529.17 Q988.942 1532.34 988.942 1537.76 Q988.942 1543.34 985.47 1546.44 Q981.998 1549.52 975.678 1549.52 Q973.503 1549.52 971.234 1549.15 Q968.989 1548.78 966.581 1548.04 L966.581 1543.34 Q968.665 1544.47 970.887 1545.03 Q973.109 1545.58 975.586 1545.58 Q979.59 1545.58 981.928 1543.48 Q984.266 1541.37 984.266 1537.76 Q984.266 1534.15 981.928 1532.04 Q979.59 1529.94 975.586 1529.94 Q973.711 1529.94 971.836 1530.35 Q969.984 1530.77 968.04 1531.65 L968.04 1514.29 Z" fill="#000000" fill-rule="nonzero" fill-opacity="1"></path><path clip-path="url(#clip910)" d="M1008.16 1517.37 Q1004.54 1517.37 1002.72 1520.93 Q1000.91 1524.47 1000.91 1531.6 Q1000.91 1538.71 1002.72 1542.27 Q1004.54 1545.82 1008.16 1545.82 Q1011.79 1545.82 1013.59 1542.27 Q1015.42 1538.71 1015.42 1531.6 Q1015.42 1524.47 1013.59 1520.93 Q1011.79 1517.37 1008.16 1517.37 M1008.16 1513.66 Q1013.97 1513.66 1017.02 1518.27 Q1020.1 1522.85 1020.1 1531.6 Q1020.1 1540.33 1017.02 1544.94 Q1013.97 1549.52 1008.16 1549.52 Q1002.34 1549.52 999.266 1544.94 Q996.211 1540.33 996.211 1531.6 Q996.211 1522.85 999.266 1518.27 Q1002.34 1513.66 1008.16 1513.66 Z" fill="#000000" fill-rule="nonzero" fill-opacity="1"></path><path clip-path="url(#clip910)" d="M1388.67 1514.29 L1407.03 1514.29 L1407.03 1518.22 L1392.95 1518.22 L1392.95 1526.7 Q1393.97 1526.35 1394.99 1526.19 Q1396.01 1526 1397.03 1526 Q1402.81 1526 1406.19 1529.17 Q1409.57 1532.34 1409.57 1537.76 Q1409.57 1543.34 1406.1 1546.44 Q1402.63 1549.52 1396.31 1549.52 Q1394.13 1549.52 1391.87 1549.15 Q1389.62 1548.78 1387.21 1548.04 L1387.21 1543.34 Q1389.3 1544.47 1391.52 1545.03 Q1393.74 1545.58 1396.22 1545.58 Q1400.22 1545.58 1402.56 1543.48 Q1404.9 1541.37 1404.9 1537.76 Q1404.9 1534.15 1402.56 1532.04 Q1400.22 1529.94 1396.22 1529.94 Q1394.34 1529.94 1392.47 1530.35 Q1390.62 1530.77 1388.67 1531.65 L1388.67 1514.29 Z" fill="#000000" fill-rule="nonzero" fill-opacity="1"></path><path clip-path="url(#clip910)" d="M1428.79 1517.37 Q1425.18 1517.37 1423.35 1520.93 Q1421.54 1524.47 1421.54 1531.6 Q1421.54 1538.71 1423.35 1542.27 Q1425.18 1545.82 1428.79 1545.82 Q1432.42 1545.82 1434.23 1542.27 Q1436.06 1538.71 1436.06 1531.6 Q1436.06 1524.47 1434.23 1520.93 Q1432.42 1517.37 1428.79 1517.37 M1428.79 1513.66 Q1434.6 1513.66 1437.65 1518.27 Q1440.73 1522.85 1440.73 1531.6 Q1440.73 1540.33 1437.65 1544.94 Q1434.6 1549.52 1428.79 1549.52 Q1422.98 1549.52 1419.9 1544.94 Q1416.84 1540.33 1416.84 1531.6 Q1416.84 1522.85 1419.9 1518.27 Q1422.98 1513.66 1428.79 1513.66 Z" fill="#000000" fill-rule="nonzero" fill-opacity="1"></path><path clip-path="url(#clip910)" d="M1458.95 1517.37 Q1455.34 1517.37 1453.51 1520.93 Q1451.7 1524.47 1451.7 1531.6 Q1451.7 1538.71 1453.51 1542.27 Q1455.34 1545.82 1458.95 1545.82 Q1462.58 1545.82 1464.39 1542.27 Q1466.22 1538.71 1466.22 1531.6 Q1466.22 1524.47 1464.39 1520.93 Q1462.58 1517.37 1458.95 1517.37 M1458.95 1513.66 Q1464.76 1513.66 1467.81 1518.27 Q1470.89 1522.85 1470.89 1531.6 Q1470.89 1540.33 1467.81 1544.94 Q1464.76 1549.52 1458.95 1549.52 Q1453.14 1549.52 1450.06 1544.94 Q1447 1540.33 1447 1531.6 Q1447 1522.85 1450.06 1518.27 Q1453.14 1513.66 1458.95 1513.66 Z" fill="#000000" fill-rule="nonzero" fill-opacity="1"></path><path clip-path="url(#clip910)" d="M1838.21 1514.29 L1860.44 1514.29 L1860.44 1516.28 L1847.89 1548.85 L1843.01 1548.85 L1854.81 1518.22 L1838.21 1518.22 L1838.21 1514.29 Z" fill="#000000" fill-rule="nonzero" fill-opacity="1"></path><path clip-path="url(#clip910)" d="M1869.6 1514.29 L1887.96 1514.29 L1887.96 1518.22 L1873.89 1518.22 L1873.89 1526.7 Q1874.9 1526.35 1875.92 1526.19 Q1876.94 1526 1877.96 1526 Q1883.75 1526 1887.13 1529.17 Q1890.51 1532.34 1890.51 1537.76 Q1890.51 1543.34 1887.03 1546.44 Q1883.56 1549.52 1877.24 1549.52 Q1875.07 1549.52 1872.8 1549.15 Q1870.55 1548.78 1868.14 1548.04 L1868.14 1543.34 Q1870.23 1544.47 1872.45 1545.03 Q1874.67 1545.58 1877.15 1545.58 Q1881.15 1545.58 1883.49 1543.48 Q1885.83 1541.37 1885.83 1537.76 Q1885.83 1534.15 1883.49 1532.04 Q1881.15 1529.94 1877.15 1529.94 Q1875.27 1529.94 1873.4 1530.35 Q1871.55 1530.77 1869.6 1531.65 L1869.6 1514.29 Z" fill="#000000" fill-rule="nonzero" fill-opacity="1"></path><path clip-path="url(#clip910)" d="M1909.72 1517.37 Q1906.11 1517.37 1904.28 1520.93 Q1902.47 1524.47 1902.47 1531.6 Q1902.47 1538.71 1904.28 1542.27 Q1906.11 1545.82 1909.72 1545.82 Q1913.35 1545.82 1915.16 1542.27 Q1916.99 1538.71 1916.99 1531.6 Q1916.99 1524.47 1915.16 1520.93 Q1913.35 1517.37 1909.72 1517.37 M1909.72 1513.66 Q1915.53 1513.66 1918.58 1518.27 Q1921.66 1522.85 1921.66 1531.6 Q1921.66 1540.33 1918.58 1544.94 Q1915.53 1549.52 1909.72 1549.52 Q1903.91 1549.52 1900.83 1544.94 Q1897.77 1540.33 1897.77 1531.6 Q1897.77 1522.85 1900.83 1518.27 Q1903.91 1513.66 1909.72 1513.66 Z" fill="#000000" fill-rule="nonzero" fill-opacity="1"></path><path clip-path="url(#clip910)" d="M2275.35 1544.91 L2282.99 1544.91 L2282.99 1518.55 L2274.68 1520.21 L2274.68 1515.95 L2282.94 1514.29 L2287.62 1514.29 L2287.62 1544.91 L2295.26 1544.91 L2295.26 1548.85 L2275.35 1548.85 L2275.35 1544.91 Z" fill="#000000" fill-rule="nonzero" fill-opacity="1"></path><path clip-path="url(#clip910)" d="M2314.7 1517.37 Q2311.09 1517.37 2309.26 1520.93 Q2307.46 1524.47 2307.46 1531.6 Q2307.46 1538.71 2309.26 1542.27 Q2311.09 1545.82 2314.7 1545.82 Q2318.34 1545.82 2320.14 1542.27 Q2321.97 1538.71 2321.97 1531.6 Q2321.97 1524.47 2320.14 1520.93 Q2318.34 1517.37 2314.7 1517.37 M2314.7 1513.66 Q2320.51 1513.66 2323.57 1518.27 Q2326.65 1522.85 2326.65 1531.6 Q2326.65 1540.33 2323.57 1544.94 Q2320.51 1549.52 2314.7 1549.52 Q2308.89 1549.52 2305.81 1544.94 Q2302.76 1540.33 2302.76 1531.6 Q2302.76 1522.85 2305.81 1518.27 Q2308.89 1513.66 2314.7 1513.66 Z" fill="#000000" fill-rule="nonzero" fill-opacity="1"></path><path clip-path="url(#clip910)" d="M2344.86 1517.37 Q2341.25 1517.37 2339.42 1520.93 Q2337.62 1524.47 2337.62 1531.6 Q2337.62 1538.71 2339.42 1542.27 Q2341.25 1545.82 2344.86 1545.82 Q2348.5 1545.82 2350.3 1542.27 Q2352.13 1538.71 2352.13 1531.6 Q2352.13 1524.47 2350.3 1520.93 Q2348.5 1517.37 2344.86 1517.37 M2344.86 1513.66 Q2350.67 1513.66 2353.73 1518.27 Q2356.81 1522.85 2356.81 1531.6 Q2356.81 1540.33 2353.73 1544.94 Q2350.67 1549.52 2344.86 1549.52 Q2339.05 1549.52 2335.98 1544.94 Q2332.92 1540.33 2332.92 1531.6 Q2332.92 1522.85 2335.98 1518.27 Q2339.05 1513.66 2344.86 1513.66 Z" fill="#000000" fill-rule="nonzero" fill-opacity="1"></path><path clip-path="url(#clip910)" d="M2375.03 1517.37 Q2371.41 1517.37 2369.59 1520.93 Q2367.78 1524.47 2367.78 1531.6 Q2367.78 1538.71 2369.59 1542.27 Q2371.41 1545.82 2375.03 1545.82 Q2378.66 1545.82 2380.47 1542.27 Q2382.29 1538.71 2382.29 1531.6 Q2382.29 1524.47 2380.47 1520.93 Q2378.66 1517.37 2375.03 1517.37 M2375.03 1513.66 Q2380.84 1513.66 2383.89 1518.27 Q2386.97 1522.85 2386.97 1531.6 Q2386.97 1540.33 2383.89 1544.94 Q2380.84 1549.52 2375.03 1549.52 Q2369.22 1549.52 2366.14 1544.94 Q2363.08 1540.33 2363.08 1531.6 Q2363.08 1522.85 2366.14 1518.27 Q2369.22 1513.66 2375.03 1513.66 Z" fill="#000000" fill-rule="nonzero" fill-opacity="1"></path><polyline clip-path="url(#clip912)" style="stroke:#000000; stroke-linecap:round; stroke-linejoin:round; stroke-width:2; stroke-opacity:0.1; fill:none" points="112.177,1479.61 2352.76,1479.61 "></polyline>
<polyline clip-path="url(#clip912)" style="stroke:#000000; stroke-linecap:round; stroke-linejoin:round; stroke-width:2; stroke-opacity:0.1; fill:none" points="112.177,1140.7 2352.76,1140.7 "></polyline>
<polyline clip-path="url(#clip912)" style="stroke:#000000; stroke-linecap:round; stroke-linejoin:round; stroke-width:2; stroke-opacity:0.1; fill:none" points="112.177,801.801 2352.76,801.801 "></polyline>
<polyline clip-path="url(#clip912)" style="stroke:#000000; stroke-linecap:round; stroke-linejoin:round; stroke-width:2; stroke-opacity:0.1; fill:none" points="112.177,462.899 2352.76,462.899 "></polyline>
<polyline clip-path="url(#clip912)" style="stroke:#000000; stroke-linecap:round; stroke-linejoin:round; stroke-width:2; stroke-opacity:0.1; fill:none" points="112.177,123.996 2352.76,123.996 "></polyline>
<polyline clip-path="url(#clip910)" style="stroke:#000000; stroke-linecap:round; stroke-linejoin:round; stroke-width:4; stroke-opacity:1; fill:none" points="112.177,1486.45 112.177,47.2441 "></polyline>
<polyline clip-path="url(#clip910)" style="stroke:#000000; stroke-linecap:round; stroke-linejoin:round; stroke-width:4; stroke-opacity:1; fill:none" points="112.177,1479.61 131.075,1479.61 "></polyline>
<polyline clip-path="url(#clip910)" style="stroke:#000000; stroke-linecap:round; stroke-linejoin:round; stroke-width:4; stroke-opacity:1; fill:none" points="112.177,1140.7 131.075,1140.7 "></polyline>
<polyline clip-path="url(#clip910)" style="stroke:#000000; stroke-linecap:round; stroke-linejoin:round; stroke-width:4; stroke-opacity:1; fill:none" points="112.177,801.801 131.075,801.801 "></polyline>
<polyline clip-path="url(#clip910)" style="stroke:#000000; stroke-linecap:round; stroke-linejoin:round; stroke-width:4; stroke-opacity:1; fill:none" points="112.177,462.899 131.075,462.899 "></polyline>
<polyline clip-path="url(#clip910)" style="stroke:#000000; stroke-linecap:round; stroke-linejoin:round; stroke-width:4; stroke-opacity:1; fill:none" points="112.177,123.996 131.075,123.996 "></polyline>
<path clip-path="url(#clip910)" d="M64.2328 1465.4 Q60.6217 1465.4 58.793 1468.97 Q56.9875 1472.51 56.9875 1479.64 Q56.9875 1486.75 58.793 1490.31 Q60.6217 1493.85 64.2328 1493.85 Q67.867 1493.85 69.6726 1490.31 Q71.5013 1486.75 71.5013 1479.64 Q71.5013 1472.51 69.6726 1468.97 Q67.867 1465.4 64.2328 1465.4 M64.2328 1461.7 Q70.0429 1461.7 73.0985 1466.31 Q76.1772 1470.89 76.1772 1479.64 Q76.1772 1488.37 73.0985 1492.97 Q70.0429 1497.56 64.2328 1497.56 Q58.4226 1497.56 55.344 1492.97 Q52.2884 1488.37 52.2884 1479.64 Q52.2884 1470.89 55.344 1466.31 Q58.4226 1461.7 64.2328 1461.7 Z" fill="#000000" fill-rule="nonzero" fill-opacity="1"></path><path clip-path="url(#clip910)" d="M59.8578 1154.05 L76.1772 1154.05 L76.1772 1157.98 L54.2328 1157.98 L54.2328 1154.05 Q56.8949 1151.29 61.4782 1146.66 Q66.0846 1142.01 67.2652 1140.67 Q69.5105 1138.15 70.3902 1136.41 Q71.2929 1134.65 71.2929 1132.96 Q71.2929 1130.21 69.3485 1128.47 Q67.4272 1126.73 64.3254 1126.73 Q62.1263 1126.73 59.6726 1127.5 Q57.2421 1128.26 54.4643 1129.81 L54.4643 1125.09 Q57.2884 1123.96 59.7421 1123.38 Q62.1958 1122.8 64.2328 1122.8 Q69.6031 1122.8 72.7976 1125.48 Q75.992 1128.17 75.992 1132.66 Q75.992 1134.79 75.1818 1136.71 Q74.3948 1138.61 72.2883 1141.2 Q71.7096 1141.87 68.6078 1145.09 Q65.5059 1148.28 59.8578 1154.05 Z" fill="#000000" fill-rule="nonzero" fill-opacity="1"></path><path clip-path="url(#clip910)" d="M66.5939 788.595 L54.7884 807.044 L66.5939 807.044 L66.5939 788.595 M65.367 784.521 L71.2466 784.521 L71.2466 807.044 L76.1772 807.044 L76.1772 810.933 L71.2466 810.933 L71.2466 819.081 L66.5939 819.081 L66.5939 810.933 L50.9921 810.933 L50.9921 806.419 L65.367 784.521 Z" fill="#000000" fill-rule="nonzero" fill-opacity="1"></path><path clip-path="url(#clip910)" d="M64.6495 461.035 Q61.5013 461.035 59.6495 463.188 Q57.8208 465.341 57.8208 469.091 Q57.8208 472.817 59.6495 474.993 Q61.5013 477.146 64.6495 477.146 Q67.7976 477.146 69.6263 474.993 Q71.4781 472.817 71.4781 469.091 Q71.4781 465.341 69.6263 463.188 Q67.7976 461.035 64.6495 461.035 M73.9318 446.382 L73.9318 450.642 Q72.1726 449.808 70.367 449.369 Q68.5846 448.929 66.8254 448.929 Q62.1958 448.929 59.7421 452.054 Q57.3115 455.179 56.9643 461.498 Q58.33 459.484 60.3902 458.419 Q62.4504 457.331 64.9272 457.331 Q70.1355 457.331 73.1448 460.503 Q76.1772 463.651 76.1772 469.091 Q76.1772 474.415 73.029 477.632 Q69.8809 480.85 64.6495 480.85 Q58.6541 480.85 55.4828 476.267 Q52.3116 471.66 52.3116 462.933 Q52.3116 454.739 56.2004 449.878 Q60.0893 444.994 66.6402 444.994 Q68.3994 444.994 70.1818 445.341 Q71.9874 445.688 73.9318 446.382 Z" fill="#000000" fill-rule="nonzero" fill-opacity="1"></path><path clip-path="url(#clip910)" d="M64.3254 124.864 Q60.9921 124.864 59.0708 126.647 Q57.1726 128.429 57.1726 131.554 Q57.1726 134.679 59.0708 136.461 Q60.9921 138.244 64.3254 138.244 Q67.6587 138.244 69.58 136.461 Q71.5013 134.656 71.5013 131.554 Q71.5013 128.429 69.58 126.647 Q67.6819 124.864 64.3254 124.864 M59.6495 122.873 Q56.6402 122.133 54.9504 120.072 Q53.2838 118.012 53.2838 115.049 Q53.2838 110.906 56.2236 108.498 Q59.1865 106.091 64.3254 106.091 Q69.4874 106.091 72.4272 108.498 Q75.367 110.906 75.367 115.049 Q75.367 118.012 73.6772 120.072 Q72.0105 122.133 69.0244 122.873 Q72.404 123.66 74.279 125.952 Q76.1772 128.244 76.1772 131.554 Q76.1772 136.577 73.0985 139.262 Q70.0429 141.947 64.3254 141.947 Q58.6078 141.947 55.5291 139.262 Q52.4736 136.577 52.4736 131.554 Q52.4736 128.244 54.3717 125.952 Q56.2699 123.66 59.6495 122.873 M57.9365 115.489 Q57.9365 118.174 59.6032 119.679 Q61.293 121.184 64.3254 121.184 Q67.3346 121.184 69.0244 119.679 Q70.7374 118.174 70.7374 115.489 Q70.7374 112.804 69.0244 111.299 Q67.3346 109.795 64.3254 109.795 Q61.293 109.795 59.6032 111.299 Q57.9365 112.804 57.9365 115.489 Z" fill="#000000" fill-rule="nonzero" fill-opacity="1"></path><polyline clip-path="url(#clip912)" style="stroke:#009af9; stroke-linecap:round; stroke-linejoin:round; stroke-width:4; stroke-opacity:0; fill:none" points="175.59,1445.72 527.281,1216.96 563.352,1192.56 707.635,1084.78 887.99,983.114 1068.34,869.581 1423.64,700.13 1789.76,344.283 2289.34,107.051 "></polyline>
<line clip-path="url(#clip912)" x1="175.59" y1="1445.72" x2="159.59" y2="1429.72" style="stroke:#009af9; stroke-width:4; stroke-opacity:1"></line>
<line clip-path="url(#clip912)" x1="175.59" y1="1445.72" x2="159.59" y2="1461.72" style="stroke:#009af9; stroke-width:4; stroke-opacity:1"></line>
<line clip-path="url(#clip912)" x1="175.59" y1="1445.72" x2="191.59" y2="1461.72" style="stroke:#009af9; stroke-width:4; stroke-opacity:1"></line>
<line clip-path="url(#clip912)" x1="175.59" y1="1445.72" x2="191.59" y2="1429.72" style="stroke:#009af9; stroke-width:4; stroke-opacity:1"></line>
<line clip-path="url(#clip912)" x1="527.281" y1="1216.96" x2="511.281" y2="1200.96" style="stroke:#009af9; stroke-width:4; stroke-opacity:1"></line>
<line clip-path="url(#clip912)" x1="527.281" y1="1216.96" x2="511.281" y2="1232.96" style="stroke:#009af9; stroke-width:4; stroke-opacity:1"></line>
<line clip-path="url(#clip912)" x1="527.281" y1="1216.96" x2="543.281" y2="1232.96" style="stroke:#009af9; stroke-width:4; stroke-opacity:1"></line>
<line clip-path="url(#clip912)" x1="527.281" y1="1216.96" x2="543.281" y2="1200.96" style="stroke:#009af9; stroke-width:4; stroke-opacity:1"></line>
<line clip-path="url(#clip912)" x1="563.352" y1="1192.56" x2="547.352" y2="1176.56" style="stroke:#009af9; stroke-width:4; stroke-opacity:1"></line>
<line clip-path="url(#clip912)" x1="563.352" y1="1192.56" x2="547.352" y2="1208.56" style="stroke:#009af9; stroke-width:4; stroke-opacity:1"></line>
<line clip-path="url(#clip912)" x1="563.352" y1="1192.56" x2="579.352" y2="1208.56" style="stroke:#009af9; stroke-width:4; stroke-opacity:1"></line>
<line clip-path="url(#clip912)" x1="563.352" y1="1192.56" x2="579.352" y2="1176.56" style="stroke:#009af9; stroke-width:4; stroke-opacity:1"></line>
<line clip-path="url(#clip912)" x1="707.635" y1="1084.78" x2="691.635" y2="1068.78" style="stroke:#009af9; stroke-width:4; stroke-opacity:1"></line>
<line clip-path="url(#clip912)" x1="707.635" y1="1084.78" x2="691.635" y2="1100.78" style="stroke:#009af9; stroke-width:4; stroke-opacity:1"></line>
<line clip-path="url(#clip912)" x1="707.635" y1="1084.78" x2="723.635" y2="1100.78" style="stroke:#009af9; stroke-width:4; stroke-opacity:1"></line>
<line clip-path="url(#clip912)" x1="707.635" y1="1084.78" x2="723.635" y2="1068.78" style="stroke:#009af9; stroke-width:4; stroke-opacity:1"></line>
<line clip-path="url(#clip912)" x1="887.99" y1="983.114" x2="871.99" y2="967.114" style="stroke:#009af9; stroke-width:4; stroke-opacity:1"></line>
<line clip-path="url(#clip912)" x1="887.99" y1="983.114" x2="871.99" y2="999.114" style="stroke:#009af9; stroke-width:4; stroke-opacity:1"></line>
<line clip-path="url(#clip912)" x1="887.99" y1="983.114" x2="903.99" y2="999.114" style="stroke:#009af9; stroke-width:4; stroke-opacity:1"></line>
<line clip-path="url(#clip912)" x1="887.99" y1="983.114" x2="903.99" y2="967.114" style="stroke:#009af9; stroke-width:4; stroke-opacity:1"></line>
<line clip-path="url(#clip912)" x1="1068.34" y1="869.581" x2="1052.34" y2="853.581" style="stroke:#009af9; stroke-width:4; stroke-opacity:1"></line>
<line clip-path="url(#clip912)" x1="1068.34" y1="869.581" x2="1052.34" y2="885.581" style="stroke:#009af9; stroke-width:4; stroke-opacity:1"></line>
<line clip-path="url(#clip912)" x1="1068.34" y1="869.581" x2="1084.34" y2="885.581" style="stroke:#009af9; stroke-width:4; stroke-opacity:1"></line>
<line clip-path="url(#clip912)" x1="1068.34" y1="869.581" x2="1084.34" y2="853.581" style="stroke:#009af9; stroke-width:4; stroke-opacity:1"></line>
<line clip-path="url(#clip912)" x1="1423.64" y1="700.13" x2="1407.64" y2="684.13" style="stroke:#009af9; stroke-width:4; stroke-opacity:1"></line>
<line clip-path="url(#clip912)" x1="1423.64" y1="700.13" x2="1407.64" y2="716.13" style="stroke:#009af9; stroke-width:4; stroke-opacity:1"></line>
<line clip-path="url(#clip912)" x1="1423.64" y1="700.13" x2="1439.64" y2="716.13" style="stroke:#009af9; stroke-width:4; stroke-opacity:1"></line>
<line clip-path="url(#clip912)" x1="1423.64" y1="700.13" x2="1439.64" y2="684.13" style="stroke:#009af9; stroke-width:4; stroke-opacity:1"></line>
<line clip-path="url(#clip912)" x1="1789.76" y1="344.283" x2="1773.76" y2="328.283" style="stroke:#009af9; stroke-width:4; stroke-opacity:1"></line>
<line clip-path="url(#clip912)" x1="1789.76" y1="344.283" x2="1773.76" y2="360.283" style="stroke:#009af9; stroke-width:4; stroke-opacity:1"></line>
<line clip-path="url(#clip912)" x1="1789.76" y1="344.283" x2="1805.76" y2="360.283" style="stroke:#009af9; stroke-width:4; stroke-opacity:1"></line>
<line clip-path="url(#clip912)" x1="1789.76" y1="344.283" x2="1805.76" y2="328.283" style="stroke:#009af9; stroke-width:4; stroke-opacity:1"></line>
<line clip-path="url(#clip912)" x1="2289.34" y1="107.051" x2="2273.34" y2="91.0509" style="stroke:#009af9; stroke-width:4; stroke-opacity:1"></line>
<line clip-path="url(#clip912)" x1="2289.34" y1="107.051" x2="2273.34" y2="123.051" style="stroke:#009af9; stroke-width:4; stroke-opacity:1"></line>
<line clip-path="url(#clip912)" x1="2289.34" y1="107.051" x2="2305.34" y2="123.051" style="stroke:#009af9; stroke-width:4; stroke-opacity:1"></line>
<line clip-path="url(#clip912)" x1="2289.34" y1="107.051" x2="2305.34" y2="91.0509" style="stroke:#009af9; stroke-width:4; stroke-opacity:1"></line>
<polyline clip-path="url(#clip912)" style="stroke:#e26f46; stroke-linecap:round; stroke-linejoin:round; stroke-width:4; stroke-opacity:1; fill:none" points="175.59,1441.32 189.351,1432.51 316.598,1351.04 393.068,1302.08 457.722,1260.68 527.955,1215.71 592.704,1174.26 662.121,1129.81 742.547,1078.32 814.021,1032.56 876.697,992.43 945.031,948.679 1013.77,904.668 1089.77,856.009 1162.08,809.71 1237.27,761.57 1300.56,721.047 1377.84,671.572 1448.62,626.251 1514,584.393 1580.23,541.992 1654.45,494.472 1721.7,451.412 1798.7,402.11 1870,356.462 1940.29,311.458 2008.54,267.763 2078.5,222.969 2155.15,173.893 2266.5,102.602 2289.34,87.9763 "></polyline>
<path clip-path="url(#clip910)" d="M186.863 250.738 L463.351 250.738 L463.351 95.2176 L186.863 95.2176  Z" fill="#ffffff" fill-rule="evenodd" fill-opacity="1"></path>
<polyline clip-path="url(#clip910)" style="stroke:#000000; stroke-linecap:round; stroke-linejoin:round; stroke-width:4; stroke-opacity:1; fill:none" points="186.863,250.738 463.351,250.738 463.351,95.2176 186.863,95.2176 186.863,250.738 "></polyline>
<polyline clip-path="url(#clip910)" style="stroke:#009af9; stroke-linecap:round; stroke-linejoin:round; stroke-width:4; stroke-opacity:0; fill:none" points="211.758,147.058 361.13,147.058 "></polyline>
<line clip-path="url(#clip910)" x1="286.444" y1="147.058" x2="263.689" y2="124.302" style="stroke:#009af9; stroke-width:4.55111; stroke-opacity:1"></line>
<line clip-path="url(#clip910)" x1="286.444" y1="147.058" x2="263.689" y2="169.813" style="stroke:#009af9; stroke-width:4.55111; stroke-opacity:1"></line>
<line clip-path="url(#clip910)" x1="286.444" y1="147.058" x2="309.2" y2="169.813" style="stroke:#009af9; stroke-width:4.55111; stroke-opacity:1"></line>
<line clip-path="url(#clip910)" x1="286.444" y1="147.058" x2="309.2" y2="124.302" style="stroke:#009af9; stroke-width:4.55111; stroke-opacity:1"></line>
<path clip-path="url(#clip910)" d="M399.868 166.745 Q398.063 171.375 396.35 172.787 Q394.637 174.199 391.766 174.199 L388.364 174.199 L388.364 170.634 L390.864 170.634 Q392.623 170.634 393.595 169.8 Q394.567 168.967 395.748 165.865 L396.512 163.921 L386.026 138.412 L390.54 138.412 L398.641 158.689 L406.743 138.412 L411.257 138.412 L399.868 166.745 Z" fill="#000000" fill-rule="nonzero" fill-opacity="1"></path><path clip-path="url(#clip910)" d="M418.549 160.402 L426.188 160.402 L426.188 134.037 L417.877 135.703 L417.877 131.444 L426.141 129.778 L430.817 129.778 L430.817 160.402 L438.456 160.402 L438.456 164.338 L418.549 164.338 L418.549 160.402 Z" fill="#000000" fill-rule="nonzero" fill-opacity="1"></path><polyline clip-path="url(#clip910)" style="stroke:#e26f46; stroke-linecap:round; stroke-linejoin:round; stroke-width:4; stroke-opacity:1; fill:none" points="211.758,198.898 361.13,198.898 "></polyline>
<path clip-path="url(#clip910)" d="M399.868 218.585 Q398.063 223.215 396.35 224.627 Q394.637 226.039 391.766 226.039 L388.364 226.039 L388.364 222.474 L390.864 222.474 Q392.623 222.474 393.595 221.64 Q394.567 220.807 395.748 217.705 L396.512 215.761 L386.026 190.252 L390.54 190.252 L398.641 210.529 L406.743 190.252 L411.257 190.252 L399.868 218.585 Z" fill="#000000" fill-rule="nonzero" fill-opacity="1"></path><path clip-path="url(#clip910)" d="M421.766 212.242 L438.086 212.242 L438.086 216.178 L416.141 216.178 L416.141 212.242 Q418.803 209.488 423.387 204.858 Q427.993 200.205 429.174 198.863 Q431.419 196.34 432.299 194.604 Q433.201 192.844 433.201 191.155 Q433.201 188.4 431.257 186.664 Q429.336 184.928 426.234 184.928 Q424.035 184.928 421.581 185.692 Q419.151 186.455 416.373 188.006 L416.373 183.284 Q419.197 182.15 421.65 181.571 Q424.104 180.993 426.141 180.993 Q431.512 180.993 434.706 183.678 Q437.9 186.363 437.9 190.854 Q437.9 192.983 437.09 194.905 Q436.303 196.803 434.197 199.395 Q433.618 200.067 430.516 203.284 Q427.414 206.479 421.766 212.242 Z" fill="#000000" fill-rule="nonzero" fill-opacity="1"></path></svg>
