<svg xmlns="http://www.w3.org/2000/svg" xmlns:xlink="http://www.w3.org/1999/xlink" width="600" height="400" viewBox="0 0 2400 1600">
<defs>
  <clipPath id="clip550">
    <rect x="0" y="0" width="2400" height="1600"></rect>
  </clipPath>
</defs>
<path clip-path="url(#clip550)" d="M0 1600 L2400 1600 L2400 0 L0 0  Z" fill="#ffffff" fill-rule="evenodd" fill-opacity="1"></path>
<defs>
  <clipPath id="clip551">
    <rect x="480" y="0" width="1681" height="1600"></rect>
  </clipPath>
</defs>
<path clip-path="url(#clip550)" d="M213.607 1423.18 L2352.76 1423.18 L2352.76 47.2441 L213.607 47.2441  Z" fill="#ffffff" fill-rule="evenodd" fill-opacity="1"></path>
<defs>
  <clipPath id="clip552">
    <rect x="213" y="47" width="2140" height="1377"></rect>
  </clipPath>
</defs>
<polyline clip-path="url(#clip552)" style="stroke:#000000; stroke-linecap:round; stroke-linejoin:round; stroke-width:2; stroke-opacity:0.1; fill:none" points="507.003,1423.18 507.003,47.2441 "></polyline>
<polyline clip-path="url(#clip552)" style="stroke:#000000; stroke-linecap:round; stroke-linejoin:round; stroke-width:2; stroke-opacity:0.1; fill:none" points="895.092,1423.18 895.092,47.2441 "></polyline>
<polyline clip-path="url(#clip552)" style="stroke:#000000; stroke-linecap:round; stroke-linejoin:round; stroke-width:2; stroke-opacity:0.1; fill:none" points="1283.18,1423.18 1283.18,47.2441 "></polyline>
<polyline clip-path="url(#clip552)" style="stroke:#000000; stroke-linecap:round; stroke-linejoin:round; stroke-width:2; stroke-opacity:0.1; fill:none" points="1671.27,1423.18 1671.27,47.2441 "></polyline>
<polyline clip-path="url(#clip552)" style="stroke:#000000; stroke-linecap:round; stroke-linejoin:round; stroke-width:2; stroke-opacity:0.1; fill:none" points="2059.36,1423.18 2059.36,47.2441 "></polyline>
<polyline clip-path="url(#clip550)" style="stroke:#000000; stroke-linecap:round; stroke-linejoin:round; stroke-width:4; stroke-opacity:1; fill:none" points="213.607,1423.18 2352.76,1423.18 "></polyline>
<polyline clip-path="url(#clip550)" style="stroke:#000000; stroke-linecap:round; stroke-linejoin:round; stroke-width:4; stroke-opacity:1; fill:none" points="507.003,1423.18 507.003,1404.28 "></polyline>
<polyline clip-path="url(#clip550)" style="stroke:#000000; stroke-linecap:round; stroke-linejoin:round; stroke-width:4; stroke-opacity:1; fill:none" points="895.092,1423.18 895.092,1404.28 "></polyline>
<polyline clip-path="url(#clip550)" style="stroke:#000000; stroke-linecap:round; stroke-linejoin:round; stroke-width:4; stroke-opacity:1; fill:none" points="1283.18,1423.18 1283.18,1404.28 "></polyline>
<polyline clip-path="url(#clip550)" style="stroke:#000000; stroke-linecap:round; stroke-linejoin:round; stroke-width:4; stroke-opacity:1; fill:none" points="1671.27,1423.18 1671.27,1404.28 "></polyline>
<polyline clip-path="url(#clip550)" style="stroke:#000000; stroke-linecap:round; stroke-linejoin:round; stroke-width:4; stroke-opacity:1; fill:none" points="2059.36,1423.18 2059.36,1404.28 "></polyline>
<path clip-path="url(#clip550)" d="M478.739 1481.64 L495.059 1481.64 L495.059 1485.58 L473.114 1485.58 L473.114 1481.64 Q475.776 1478.89 480.36 1474.26 Q484.966 1469.61 486.147 1468.27 Q488.392 1465.74 489.272 1464.01 Q490.174 1462.25 490.174 1460.56 Q490.174 1457.8 488.23 1456.07 Q486.309 1454.33 483.207 1454.33 Q481.008 1454.33 478.554 1455.09 Q476.124 1455.86 473.346 1457.41 L473.346 1452.69 Q476.17 1451.55 478.624 1450.97 Q481.077 1450.39 483.114 1450.39 Q488.485 1450.39 491.679 1453.08 Q494.873 1455.77 494.873 1460.26 Q494.873 1462.39 494.063 1464.31 Q493.276 1466.2 491.17 1468.8 Q490.591 1469.47 487.489 1472.69 Q484.387 1475.88 478.739 1481.64 Z" fill="#000000" fill-rule="nonzero" fill-opacity="1"></path><path clip-path="url(#clip550)" d="M504.873 1479.7 L509.758 1479.7 L509.758 1485.58 L504.873 1485.58 L504.873 1479.7 Z" fill="#000000" fill-rule="nonzero" fill-opacity="1"></path><path clip-path="url(#clip550)" d="M519.989 1451.02 L538.345 1451.02 L538.345 1454.96 L524.271 1454.96 L524.271 1463.43 Q525.29 1463.08 526.308 1462.92 Q527.327 1462.73 528.345 1462.73 Q534.133 1462.73 537.512 1465.9 Q540.892 1469.08 540.892 1474.49 Q540.892 1480.07 537.42 1483.17 Q533.947 1486.25 527.628 1486.25 Q525.452 1486.25 523.183 1485.88 Q520.938 1485.51 518.531 1484.77 L518.531 1480.07 Q520.614 1481.2 522.836 1481.76 Q525.058 1482.32 527.535 1482.32 Q531.54 1482.32 533.878 1480.21 Q536.216 1478.1 536.216 1474.49 Q536.216 1470.88 533.878 1468.77 Q531.54 1466.67 527.535 1466.67 Q525.66 1466.67 523.785 1467.08 Q521.933 1467.5 519.989 1468.38 L519.989 1451.02 Z" fill="#000000" fill-rule="nonzero" fill-opacity="1"></path><path clip-path="url(#clip550)" d="M862.257 1451.02 L880.613 1451.02 L880.613 1454.96 L866.539 1454.96 L866.539 1463.43 Q867.558 1463.08 868.576 1462.92 Q869.595 1462.73 870.613 1462.73 Q876.4 1462.73 879.78 1465.9 Q883.16 1469.08 883.16 1474.49 Q883.16 1480.07 879.687 1483.17 Q876.215 1486.25 869.896 1486.25 Q867.72 1486.25 865.451 1485.88 Q863.206 1485.51 860.799 1484.77 L860.799 1480.07 Q862.882 1481.2 865.104 1481.76 Q867.326 1482.32 869.803 1482.32 Q873.808 1482.32 876.146 1480.21 Q878.484 1478.1 878.484 1474.49 Q878.484 1470.88 876.146 1468.77 Q873.808 1466.67 869.803 1466.67 Q867.928 1466.67 866.053 1467.08 Q864.201 1467.5 862.257 1468.38 L862.257 1451.02 Z" fill="#000000" fill-rule="nonzero" fill-opacity="1"></path><path clip-path="url(#clip550)" d="M892.372 1479.7 L897.257 1479.7 L897.257 1485.58 L892.372 1485.58 L892.372 1479.7 Z" fill="#000000" fill-rule="nonzero" fill-opacity="1"></path><path clip-path="url(#clip550)" d="M917.442 1454.1 Q913.831 1454.1 912.002 1457.66 Q910.196 1461.2 910.196 1468.33 Q910.196 1475.44 912.002 1479.01 Q913.831 1482.55 917.442 1482.55 Q921.076 1482.55 922.882 1479.01 Q924.71 1475.44 924.71 1468.33 Q924.71 1461.2 922.882 1457.66 Q921.076 1454.1 917.442 1454.1 M917.442 1450.39 Q923.252 1450.39 926.307 1455 Q929.386 1459.58 929.386 1468.33 Q929.386 1477.06 926.307 1481.67 Q923.252 1486.25 917.442 1486.25 Q911.632 1486.25 908.553 1481.67 Q905.497 1477.06 905.497 1468.33 Q905.497 1459.58 908.553 1455 Q911.632 1450.39 917.442 1450.39 Z" fill="#000000" fill-rule="nonzero" fill-opacity="1"></path><path clip-path="url(#clip550)" d="M1249.5 1451.02 L1271.72 1451.02 L1271.72 1453.01 L1259.18 1485.58 L1254.29 1485.58 L1266.1 1454.96 L1249.5 1454.96 L1249.5 1451.02 Z" fill="#000000" fill-rule="nonzero" fill-opacity="1"></path><path clip-path="url(#clip550)" d="M1280.84 1479.7 L1285.73 1479.7 L1285.73 1485.58 L1280.84 1485.58 L1280.84 1479.7 Z" fill="#000000" fill-rule="nonzero" fill-opacity="1"></path><path clip-path="url(#clip550)" d="M1295.96 1451.02 L1314.32 1451.02 L1314.32 1454.96 L1300.24 1454.96 L1300.24 1463.43 Q1301.26 1463.08 1302.28 1462.92 Q1303.3 1462.73 1304.32 1462.73 Q1310.1 1462.73 1313.48 1465.9 Q1316.86 1469.08 1316.86 1474.49 Q1316.86 1480.07 1313.39 1483.17 Q1309.92 1486.25 1303.6 1486.25 Q1301.42 1486.25 1299.15 1485.88 Q1296.91 1485.51 1294.5 1484.77 L1294.5 1480.07 Q1296.58 1481.2 1298.81 1481.76 Q1301.03 1482.32 1303.51 1482.32 Q1307.51 1482.32 1309.85 1480.21 Q1312.19 1478.1 1312.19 1474.49 Q1312.19 1470.88 1309.85 1468.77 Q1307.51 1466.67 1303.51 1466.67 Q1301.63 1466.67 1299.76 1467.08 Q1297.9 1467.5 1295.96 1468.38 L1295.96 1451.02 Z" fill="#000000" fill-rule="nonzero" fill-opacity="1"></path><path clip-path="url(#clip550)" d="M1623.34 1481.64 L1630.98 1481.64 L1630.98 1455.28 L1622.67 1456.95 L1622.67 1452.69 L1630.94 1451.02 L1635.61 1451.02 L1635.61 1481.64 L1643.25 1481.64 L1643.25 1485.58 L1623.34 1485.58 L1623.34 1481.64 Z" fill="#000000" fill-rule="nonzero" fill-opacity="1"></path><path clip-path="url(#clip550)" d="M1662.69 1454.1 Q1659.08 1454.1 1657.25 1457.66 Q1655.45 1461.2 1655.45 1468.33 Q1655.45 1475.44 1657.25 1479.01 Q1659.08 1482.55 1662.69 1482.55 Q1666.33 1482.55 1668.13 1479.01 Q1669.96 1475.44 1669.96 1468.33 Q1669.96 1461.2 1668.13 1457.66 Q1666.33 1454.1 1662.69 1454.1 M1662.69 1450.39 Q1668.5 1450.39 1671.56 1455 Q1674.64 1459.58 1674.64 1468.33 Q1674.64 1477.06 1671.56 1481.67 Q1668.5 1486.25 1662.69 1486.25 Q1656.88 1486.25 1653.81 1481.67 Q1650.75 1477.06 1650.75 1468.33 Q1650.75 1459.58 1653.81 1455 Q1656.88 1450.39 1662.69 1450.39 Z" fill="#000000" fill-rule="nonzero" fill-opacity="1"></path><path clip-path="url(#clip550)" d="M1682.86 1479.7 L1687.74 1479.7 L1687.74 1485.58 L1682.86 1485.58 L1682.86 1479.7 Z" fill="#000000" fill-rule="nonzero" fill-opacity="1"></path><path clip-path="url(#clip550)" d="M1707.93 1454.1 Q1704.31 1454.1 1702.49 1457.66 Q1700.68 1461.2 1700.68 1468.33 Q1700.68 1475.44 1702.49 1479.01 Q1704.31 1482.55 1707.93 1482.55 Q1711.56 1482.55 1713.37 1479.01 Q1715.19 1475.44 1715.19 1468.33 Q1715.19 1461.2 1713.37 1457.66 Q1711.56 1454.1 1707.93 1454.1 M1707.93 1450.39 Q1713.74 1450.39 1716.79 1455 Q1719.87 1459.58 1719.87 1468.33 Q1719.87 1477.06 1716.79 1481.67 Q1713.74 1486.25 1707.93 1486.25 Q1702.12 1486.25 1699.04 1481.67 Q1695.98 1477.06 1695.98 1468.33 Q1695.98 1459.58 1699.04 1455 Q1702.12 1450.39 1707.93 1450.39 Z" fill="#000000" fill-rule="nonzero" fill-opacity="1"></path><path clip-path="url(#clip550)" d="M2011.93 1481.64 L2019.57 1481.64 L2019.57 1455.28 L2011.26 1456.95 L2011.26 1452.69 L2019.52 1451.02 L2024.2 1451.02 L2024.2 1481.64 L2031.84 1481.64 L2031.84 1485.58 L2011.93 1485.58 L2011.93 1481.64 Z" fill="#000000" fill-rule="nonzero" fill-opacity="1"></path><path clip-path="url(#clip550)" d="M2045.31 1481.64 L2061.63 1481.64 L2061.63 1485.58 L2039.68 1485.58 L2039.68 1481.64 Q2042.35 1478.89 2046.93 1474.26 Q2051.54 1469.61 2052.72 1468.27 Q2054.96 1465.74 2055.84 1464.01 Q2056.74 1462.25 2056.74 1460.56 Q2056.74 1457.8 2054.8 1456.07 Q2052.88 1454.33 2049.78 1454.33 Q2047.58 1454.33 2045.12 1455.09 Q2042.69 1455.86 2039.92 1457.41 L2039.92 1452.69 Q2042.74 1451.55 2045.19 1450.97 Q2047.65 1450.39 2049.68 1450.39 Q2055.05 1450.39 2058.25 1453.08 Q2061.44 1455.77 2061.44 1460.26 Q2061.44 1462.39 2060.63 1464.31 Q2059.85 1466.2 2057.74 1468.8 Q2057.16 1469.47 2054.06 1472.69 Q2050.96 1475.88 2045.31 1481.64 Z" fill="#000000" fill-rule="nonzero" fill-opacity="1"></path><path clip-path="url(#clip550)" d="M2071.44 1479.7 L2076.33 1479.7 L2076.33 1485.58 L2071.44 1485.58 L2071.44 1479.7 Z" fill="#000000" fill-rule="nonzero" fill-opacity="1"></path><path clip-path="url(#clip550)" d="M2086.56 1451.02 L2104.92 1451.02 L2104.92 1454.96 L2090.84 1454.96 L2090.84 1463.43 Q2091.86 1463.08 2092.88 1462.92 Q2093.9 1462.73 2094.92 1462.73 Q2100.7 1462.73 2104.08 1465.9 Q2107.46 1469.08 2107.46 1474.49 Q2107.46 1480.07 2103.99 1483.17 Q2100.52 1486.25 2094.2 1486.25 Q2092.02 1486.25 2089.75 1485.88 Q2087.51 1485.51 2085.1 1484.77 L2085.1 1480.07 Q2087.18 1481.2 2089.41 1481.76 Q2091.63 1482.32 2094.11 1482.32 Q2098.11 1482.32 2100.45 1480.21 Q2102.79 1478.1 2102.79 1474.49 Q2102.79 1470.88 2100.45 1468.77 Q2098.11 1466.67 2094.11 1466.67 Q2092.23 1466.67 2090.36 1467.08 Q2088.5 1467.5 2086.56 1468.38 L2086.56 1451.02 Z" fill="#000000" fill-rule="nonzero" fill-opacity="1"></path><path clip-path="url(#clip550)" d="M1298.11 1546.53 L1298.11 1568.04 L1292.25 1568.04 L1292.25 1546.72 Q1292.25 1541.66 1290.28 1539.14 Q1288.31 1536.63 1284.36 1536.63 Q1279.62 1536.63 1276.88 1539.65 Q1274.14 1542.68 1274.14 1547.9 L1274.14 1568.04 L1268.25 1568.04 L1268.25 1532.4 L1274.14 1532.4 L1274.14 1537.93 Q1276.24 1534.72 1279.08 1533.13 Q1281.94 1531.54 1285.66 1531.54 Q1291.81 1531.54 1294.96 1535.36 Q1298.11 1539.14 1298.11 1546.53 Z" fill="#000000" fill-rule="nonzero" fill-opacity="1"></path><polyline clip-path="url(#clip552)" style="stroke:#000000; stroke-linecap:round; stroke-linejoin:round; stroke-width:2; stroke-opacity:0.1; fill:none" points="213.607,1019.15 2352.76,1019.15 "></polyline>
<polyline clip-path="url(#clip552)" style="stroke:#000000; stroke-linecap:round; stroke-linejoin:round; stroke-width:2; stroke-opacity:0.1; fill:none" points="213.607,503.369 2352.76,503.369 "></polyline>
<polyline clip-path="url(#clip550)" style="stroke:#000000; stroke-linecap:round; stroke-linejoin:round; stroke-width:4; stroke-opacity:1; fill:none" points="213.607,1423.18 213.607,47.2441 "></polyline>
<polyline clip-path="url(#clip550)" style="stroke:#000000; stroke-linecap:round; stroke-linejoin:round; stroke-width:4; stroke-opacity:1; fill:none" points="213.607,1019.15 232.505,1019.15 "></polyline>
<polyline clip-path="url(#clip550)" style="stroke:#000000; stroke-linecap:round; stroke-linejoin:round; stroke-width:4; stroke-opacity:1; fill:none" points="213.607,503.369 232.505,503.369 "></polyline>
<path clip-path="url(#clip550)" d="M51.6634 1038.94 L59.3023 1038.94 L59.3023 1012.57 L50.9921 1014.24 L50.9921 1009.98 L59.256 1008.31 L63.9319 1008.31 L63.9319 1038.94 L71.5707 1038.94 L71.5707 1042.87 L51.6634 1042.87 L51.6634 1038.94 Z" fill="#000000" fill-rule="nonzero" fill-opacity="1"></path><path clip-path="url(#clip550)" d="M91.0151 1011.39 Q87.404 1011.39 85.5753 1014.96 Q83.7697 1018.5 83.7697 1025.63 Q83.7697 1032.73 85.5753 1036.3 Q87.404 1039.84 91.0151 1039.84 Q94.6493 1039.84 96.4548 1036.3 Q98.2835 1032.73 98.2835 1025.63 Q98.2835 1018.5 96.4548 1014.96 Q94.6493 1011.39 91.0151 1011.39 M91.0151 1007.69 Q96.8252 1007.69 99.8808 1012.29 Q102.959 1016.88 102.959 1025.63 Q102.959 1034.35 99.8808 1038.96 Q96.8252 1043.54 91.0151 1043.54 Q85.2049 1043.54 82.1262 1038.96 Q79.0707 1034.35 79.0707 1025.63 Q79.0707 1016.88 82.1262 1012.29 Q85.2049 1007.69 91.0151 1007.69 Z" fill="#000000" fill-rule="nonzero" fill-opacity="1"></path><path clip-path="url(#clip550)" d="M102.959 1001.79 L127.071 1001.79 L127.071 1004.99 L102.959 1004.99 L102.959 1001.79 Z" fill="#000000" fill-rule="nonzero" fill-opacity="1"></path><path clip-path="url(#clip550)" d="M135.929 1012.27 L142.136 1012.27 L142.136 990.843 L135.384 992.197 L135.384 988.737 L142.098 987.383 L145.898 987.383 L145.898 1012.27 L152.104 1012.27 L152.104 1015.46 L135.929 1015.46 L135.929 1012.27 Z" fill="#000000" fill-rule="nonzero" fill-opacity="1"></path><path clip-path="url(#clip550)" d="M167.903 989.884 Q164.969 989.884 163.483 992.78 Q162.016 995.658 162.016 1001.45 Q162.016 1007.22 163.483 1010.12 Q164.969 1013 167.903 1013 Q170.855 1013 172.322 1010.12 Q173.808 1007.22 173.808 1001.45 Q173.808 995.658 172.322 992.78 Q170.855 989.884 167.903 989.884 M167.903 986.875 Q172.623 986.875 175.106 990.617 Q177.607 994.341 177.607 1001.45 Q177.607 1008.54 175.106 1012.28 Q172.623 1016.01 167.903 1016.01 Q163.182 1016.01 160.68 1012.28 Q158.198 1008.54 158.198 1001.45 Q158.198 994.341 160.68 990.617 Q163.182 986.875 167.903 986.875 Z" fill="#000000" fill-rule="nonzero" fill-opacity="1"></path><path clip-path="url(#clip550)" d="M76.9787 523.162 L84.6175 523.162 L84.6175 496.796 L76.3074 498.463 L76.3074 494.203 L84.5712 492.537 L89.2471 492.537 L89.2471 523.162 L96.886 523.162 L96.886 527.097 L76.9787 527.097 L76.9787 523.162 Z" fill="#000000" fill-rule="nonzero" fill-opacity="1"></path><path clip-path="url(#clip550)" d="M116.33 495.615 Q112.719 495.615 110.891 499.18 Q109.085 502.722 109.085 509.851 Q109.085 516.958 110.891 520.523 Q112.719 524.064 116.33 524.064 Q119.965 524.064 121.77 520.523 Q123.599 516.958 123.599 509.851 Q123.599 502.722 121.77 499.18 Q119.965 495.615 116.33 495.615 M116.33 491.912 Q122.14 491.912 125.196 496.518 Q128.275 501.101 128.275 509.851 Q128.275 518.578 125.196 523.185 Q122.14 527.768 116.33 527.768 Q110.52 527.768 107.441 523.185 Q104.386 518.578 104.386 509.851 Q104.386 501.101 107.441 496.518 Q110.52 491.912 116.33 491.912 Z" fill="#000000" fill-rule="nonzero" fill-opacity="1"></path><path clip-path="url(#clip550)" d="M128.275 486.013 L152.386 486.013 L152.386 489.21 L128.275 489.21 L128.275 486.013 Z" fill="#000000" fill-rule="nonzero" fill-opacity="1"></path><path clip-path="url(#clip550)" d="M160.624 471.606 L175.539 471.606 L175.539 474.804 L164.103 474.804 L164.103 481.687 Q164.931 481.405 165.759 481.274 Q166.586 481.123 167.414 481.123 Q172.116 481.123 174.862 483.7 Q177.607 486.276 177.607 490.677 Q177.607 495.21 174.786 497.73 Q171.965 500.232 166.831 500.232 Q165.063 500.232 163.22 499.931 Q161.395 499.63 159.439 499.028 L159.439 495.21 Q161.132 496.132 162.937 496.583 Q164.743 497.034 166.755 497.034 Q170.009 497.034 171.909 495.323 Q173.808 493.611 173.808 490.677 Q173.808 487.743 171.909 486.032 Q170.009 484.32 166.755 484.32 Q165.232 484.32 163.709 484.659 Q162.204 484.997 160.624 485.712 L160.624 471.606 Z" fill="#000000" fill-rule="nonzero" fill-opacity="1"></path><polyline clip-path="url(#clip552)" style="stroke:#009af9; stroke-linecap:round; stroke-linejoin:round; stroke-width:4; stroke-opacity:1; fill:none" points="274.149,86.1857 429.385,86.1857 584.621,241.312 739.857,241.312 895.092,430.129 1050.33,430.129 1205.56,643.234 1360.8,643.234 1516.04,875.385 1671.27,875.385 1826.51,1123.22 1981.74,1123.22 2136.98,1384.24 2292.21,1384.24 "></polyline>
<path clip-path="url(#clip550)" d="M1736.73 196.789 L2281.45 196.789 L2281.45 93.1086 L1736.73 93.1086  Z" fill="#ffffff" fill-rule="evenodd" fill-opacity="1"></path>
<polyline clip-path="url(#clip550)" style="stroke:#000000; stroke-linecap:round; stroke-linejoin:round; stroke-width:4; stroke-opacity:1; fill:none" points="1736.73,196.789 2281.45,196.789 2281.45,93.1086 1736.73,93.1086 1736.73,196.789 "></polyline>
<polyline clip-path="url(#clip550)" style="stroke:#009af9; stroke-linecap:round; stroke-linejoin:round; stroke-width:4; stroke-opacity:1; fill:none" points="1760.5,144.949 1903.11,144.949 "></polyline>
<path clip-path="url(#clip550)" d="M1940.28 149.196 Q1935.11 149.196 1933.12 150.377 Q1931.13 151.557 1931.13 154.405 Q1931.13 156.673 1932.61 158.016 Q1934.12 159.335 1936.69 159.335 Q1940.23 159.335 1942.36 156.835 Q1944.51 154.312 1944.51 150.145 L1944.51 149.196 L1940.28 149.196 M1948.77 147.437 L1948.77 162.229 L1944.51 162.229 L1944.51 158.293 Q1943.05 160.655 1940.88 161.789 Q1938.7 162.9 1935.55 162.9 Q1931.57 162.9 1929.21 160.678 Q1926.87 158.432 1926.87 154.682 Q1926.87 150.307 1929.79 148.085 Q1932.73 145.863 1938.54 145.863 L1944.51 145.863 L1944.51 145.446 Q1944.51 142.507 1942.57 140.909 Q1940.65 139.289 1937.15 139.289 Q1934.93 139.289 1932.82 139.821 Q1930.72 140.354 1928.77 141.419 L1928.77 137.483 Q1931.11 136.581 1933.31 136.141 Q1935.51 135.678 1937.59 135.678 Q1943.22 135.678 1945.99 138.594 Q1948.77 141.511 1948.77 147.437 Z" fill="#000000" fill-rule="nonzero" fill-opacity="1"></path><path clip-path="url(#clip550)" d="M1976.16 149.289 Q1976.16 144.59 1974.21 141.928 Q1972.29 139.243 1968.91 139.243 Q1965.53 139.243 1963.59 141.928 Q1961.67 144.59 1961.67 149.289 Q1961.67 153.988 1963.59 156.673 Q1965.53 159.335 1968.91 159.335 Q1972.29 159.335 1974.21 156.673 Q1976.16 153.988 1976.16 149.289 M1961.67 140.238 Q1963.01 137.923 1965.05 136.812 Q1967.11 135.678 1969.95 135.678 Q1974.67 135.678 1977.61 139.428 Q1980.58 143.178 1980.58 149.289 Q1980.58 155.4 1977.61 159.15 Q1974.67 162.9 1969.95 162.9 Q1967.11 162.9 1965.05 161.789 Q1963.01 160.655 1961.67 158.34 L1961.67 162.229 L1957.38 162.229 L1957.38 126.21 L1961.67 126.21 L1961.67 140.238 Z" fill="#000000" fill-rule="nonzero" fill-opacity="1"></path><path clip-path="url(#clip550)" d="M2004.17 137.067 L2004.17 141.094 Q2002.36 140.169 2000.42 139.706 Q1998.47 139.243 1996.39 139.243 Q1993.22 139.243 1991.62 140.215 Q1990.05 141.187 1990.05 143.131 Q1990.05 144.613 1991.18 145.469 Q1992.31 146.303 1995.74 147.067 L1997.2 147.391 Q2001.73 148.363 2003.63 150.145 Q2005.55 151.905 2005.55 155.076 Q2005.55 158.687 2002.68 160.793 Q1999.84 162.9 1994.84 162.9 Q1992.75 162.9 1990.48 162.483 Q1988.24 162.09 1985.74 161.28 L1985.74 156.881 Q1988.1 158.108 1990.39 158.733 Q1992.68 159.335 1994.93 159.335 Q1997.94 159.335 1999.56 158.317 Q2001.18 157.275 2001.18 155.4 Q2001.18 153.664 2000 152.738 Q1998.84 151.812 1994.88 150.956 L1993.4 150.608 Q1989.44 149.775 1987.68 148.062 Q1985.92 146.326 1985.92 143.317 Q1985.92 139.659 1988.52 137.669 Q1991.11 135.678 1995.88 135.678 Q1998.24 135.678 2000.32 136.025 Q2002.41 136.372 2004.17 137.067 Z" fill="#000000" fill-rule="nonzero" fill-opacity="1"></path><path clip-path="url(#clip550)" d="M2022.38 139.289 Q2018.96 139.289 2016.97 141.974 Q2014.98 144.636 2014.98 149.289 Q2014.98 153.942 2016.94 156.627 Q2018.93 159.289 2022.38 159.289 Q2025.79 159.289 2027.78 156.604 Q2029.77 153.918 2029.77 149.289 Q2029.77 144.682 2027.78 141.997 Q2025.79 139.289 2022.38 139.289 M2022.38 135.678 Q2027.94 135.678 2031.11 139.289 Q2034.28 142.9 2034.28 149.289 Q2034.28 155.655 2031.11 159.289 Q2027.94 162.9 2022.38 162.9 Q2016.8 162.9 2013.63 159.289 Q2010.48 155.655 2010.48 149.289 Q2010.48 142.9 2013.63 139.289 Q2016.8 135.678 2022.38 135.678 Z" fill="#000000" fill-rule="nonzero" fill-opacity="1"></path><path clip-path="url(#clip550)" d="M2041.34 126.21 L2045.6 126.21 L2045.6 162.229 L2041.34 162.229 L2041.34 126.21 Z" fill="#000000" fill-rule="nonzero" fill-opacity="1"></path><path clip-path="url(#clip550)" d="M2054.07 151.997 L2054.07 136.303 L2058.33 136.303 L2058.33 151.835 Q2058.33 155.516 2059.77 157.368 Q2061.2 159.196 2064.07 159.196 Q2067.52 159.196 2069.51 156.997 Q2071.53 154.798 2071.53 151.002 L2071.53 136.303 L2075.79 136.303 L2075.79 162.229 L2071.53 162.229 L2071.53 158.247 Q2069.98 160.608 2067.92 161.766 Q2065.88 162.9 2063.17 162.9 Q2058.7 162.9 2056.39 160.122 Q2054.07 157.344 2054.07 151.997 M2064.79 135.678 L2064.79 135.678 Z" fill="#000000" fill-rule="nonzero" fill-opacity="1"></path><path clip-path="url(#clip550)" d="M2088.77 128.942 L2088.77 136.303 L2097.54 136.303 L2097.54 139.613 L2088.77 139.613 L2088.77 153.687 Q2088.77 156.858 2089.63 157.761 Q2090.51 158.664 2093.17 158.664 L2097.54 158.664 L2097.54 162.229 L2093.17 162.229 Q2088.24 162.229 2086.36 160.4 Q2084.49 158.548 2084.49 153.687 L2084.49 139.613 L2081.36 139.613 L2081.36 136.303 L2084.49 136.303 L2084.49 128.942 L2088.77 128.942 Z" fill="#000000" fill-rule="nonzero" fill-opacity="1"></path><path clip-path="url(#clip550)" d="M2125.32 148.201 L2125.32 150.284 L2105.74 150.284 Q2106.02 154.682 2108.38 156.997 Q2110.76 159.289 2115 159.289 Q2117.45 159.289 2119.74 158.687 Q2122.06 158.085 2124.33 156.881 L2124.33 160.909 Q2122.04 161.881 2119.63 162.391 Q2117.22 162.9 2114.74 162.9 Q2108.54 162.9 2104.91 159.289 Q2101.29 155.678 2101.29 149.52 Q2101.29 143.155 2104.72 139.428 Q2108.17 135.678 2114 135.678 Q2119.23 135.678 2122.27 139.057 Q2125.32 142.414 2125.32 148.201 M2121.06 146.951 Q2121.02 143.456 2119.1 141.372 Q2117.2 139.289 2114.05 139.289 Q2110.48 139.289 2108.33 141.303 Q2106.2 143.317 2105.88 146.974 L2121.06 146.951 Z" fill="#000000" fill-rule="nonzero" fill-opacity="1"></path><path clip-path="url(#clip550)" d="M2169.56 148.201 L2169.56 150.284 L2149.97 150.284 Q2150.25 154.682 2152.61 156.997 Q2155 159.289 2159.23 159.289 Q2161.69 159.289 2163.98 158.687 Q2166.29 158.085 2168.56 156.881 L2168.56 160.909 Q2166.27 161.881 2163.86 162.391 Q2161.46 162.9 2158.98 162.9 Q2152.78 162.9 2149.14 159.289 Q2145.53 155.678 2145.53 149.52 Q2145.53 143.155 2148.96 139.428 Q2152.41 135.678 2158.24 135.678 Q2163.47 135.678 2166.5 139.057 Q2169.56 142.414 2169.56 148.201 M2165.3 146.951 Q2165.25 143.456 2163.33 141.372 Q2161.43 139.289 2158.29 139.289 Q2154.72 139.289 2152.57 141.303 Q2150.44 143.317 2150.11 146.974 L2165.3 146.951 Z" fill="#000000" fill-rule="nonzero" fill-opacity="1"></path><path clip-path="url(#clip550)" d="M2191.57 140.284 Q2190.85 139.868 2190 139.682 Q2189.16 139.474 2188.15 139.474 Q2184.53 139.474 2182.59 141.835 Q2180.67 144.173 2180.67 148.571 L2180.67 162.229 L2176.39 162.229 L2176.39 136.303 L2180.67 136.303 L2180.67 140.331 Q2182.01 137.969 2184.16 136.835 Q2186.32 135.678 2189.4 135.678 Q2189.84 135.678 2190.37 135.747 Q2190.9 135.794 2191.55 135.909 L2191.57 140.284 Z" fill="#000000" fill-rule="nonzero" fill-opacity="1"></path><path clip-path="url(#clip550)" d="M2210.23 140.284 Q2209.51 139.868 2208.66 139.682 Q2207.82 139.474 2206.8 139.474 Q2203.19 139.474 2201.25 141.835 Q2199.33 144.173 2199.33 148.571 L2199.33 162.229 L2195.04 162.229 L2195.04 136.303 L2199.33 136.303 L2199.33 140.331 Q2200.67 137.969 2202.82 136.835 Q2204.97 135.678 2208.05 135.678 Q2208.49 135.678 2209.03 135.747 Q2209.56 135.794 2210.21 135.909 L2210.23 140.284 Z" fill="#000000" fill-rule="nonzero" fill-opacity="1"></path><path clip-path="url(#clip550)" d="M2223.7 139.289 Q2220.28 139.289 2218.28 141.974 Q2216.29 144.636 2216.29 149.289 Q2216.29 153.942 2218.26 156.627 Q2220.25 159.289 2223.7 159.289 Q2227.1 159.289 2229.09 156.604 Q2231.09 153.918 2231.09 149.289 Q2231.09 144.682 2229.09 141.997 Q2227.1 139.289 2223.7 139.289 M2223.7 135.678 Q2229.26 135.678 2232.43 139.289 Q2235.6 142.9 2235.6 149.289 Q2235.6 155.655 2232.43 159.289 Q2229.26 162.9 2223.7 162.9 Q2218.12 162.9 2214.95 159.289 Q2211.8 155.655 2211.8 149.289 Q2211.8 142.9 2214.95 139.289 Q2218.12 135.678 2223.7 135.678 Z" fill="#000000" fill-rule="nonzero" fill-opacity="1"></path><path clip-path="url(#clip550)" d="M2257.68 140.284 Q2256.97 139.868 2256.11 139.682 Q2255.28 139.474 2254.26 139.474 Q2250.65 139.474 2248.7 141.835 Q2246.78 144.173 2246.78 148.571 L2246.78 162.229 L2242.5 162.229 L2242.5 136.303 L2246.78 136.303 L2246.78 140.331 Q2248.12 137.969 2250.28 136.835 Q2252.43 135.678 2255.51 135.678 Q2255.95 135.678 2256.48 135.747 Q2257.01 135.794 2257.66 135.909 L2257.68 140.284 Z" fill="#000000" fill-rule="nonzero" fill-opacity="1"></path></svg>
