<svg xmlns="http://www.w3.org/2000/svg" xmlns:xlink="http://www.w3.org/1999/xlink" width="600" height="400" viewBox="0 0 2400 1600">
<defs>
  <clipPath id="clip580">
    <rect x="0" y="0" width="2400" height="1600"></rect>
  </clipPath>
</defs>
<path clip-path="url(#clip580)" d="M0 1600 L2400 1600 L2400 0 L0 0  Z" fill="#ffffff" fill-rule="evenodd" fill-opacity="1"></path>
<defs>
  <clipPath id="clip581">
    <rect x="480" y="0" width="1681" height="1600"></rect>
  </clipPath>
</defs>
<path clip-path="url(#clip580)" d="M147.478 1486.45 L2352.76 1486.45 L2352.76 47.2441 L147.478 47.2441  Z" fill="#ffffff" fill-rule="evenodd" fill-opacity="1"></path>
<defs>
  <clipPath id="clip582">
    <rect x="147" y="47" width="2206" height="1440"></rect>
  </clipPath>
</defs>
<polyline clip-path="url(#clip582)" style="stroke:#000000; stroke-linecap:round; stroke-linejoin:round; stroke-width:2; stroke-opacity:0.1; fill:none" points="209.891,1486.45 209.891,47.2441 "></polyline>
<polyline clip-path="url(#clip582)" style="stroke:#000000; stroke-linecap:round; stroke-linejoin:round; stroke-width:2; stroke-opacity:0.1; fill:none" points="872.12,1486.45 872.12,47.2441 "></polyline>
<polyline clip-path="url(#clip582)" style="stroke:#000000; stroke-linecap:round; stroke-linejoin:round; stroke-width:2; stroke-opacity:0.1; fill:none" points="1534.35,1486.45 1534.35,47.2441 "></polyline>
<polyline clip-path="url(#clip582)" style="stroke:#000000; stroke-linecap:round; stroke-linejoin:round; stroke-width:2; stroke-opacity:0.1; fill:none" points="2196.58,1486.45 2196.58,47.2441 "></polyline>
<polyline clip-path="url(#clip580)" style="stroke:#000000; stroke-linecap:round; stroke-linejoin:round; stroke-width:4; stroke-opacity:1; fill:none" points="147.478,1486.45 2352.76,1486.45 "></polyline>
<polyline clip-path="url(#clip580)" style="stroke:#000000; stroke-linecap:round; stroke-linejoin:round; stroke-width:4; stroke-opacity:1; fill:none" points="209.891,1486.45 209.891,1467.55 "></polyline>
<polyline clip-path="url(#clip580)" style="stroke:#000000; stroke-linecap:round; stroke-linejoin:round; stroke-width:4; stroke-opacity:1; fill:none" points="872.12,1486.45 872.12,1467.55 "></polyline>
<polyline clip-path="url(#clip580)" style="stroke:#000000; stroke-linecap:round; stroke-linejoin:round; stroke-width:4; stroke-opacity:1; fill:none" points="1534.35,1486.45 1534.35,1467.55 "></polyline>
<polyline clip-path="url(#clip580)" style="stroke:#000000; stroke-linecap:round; stroke-linejoin:round; stroke-width:4; stroke-opacity:1; fill:none" points="2196.58,1486.45 2196.58,1467.55 "></polyline>
<path clip-path="url(#clip580)" d="M209.891 1517.37 Q206.28 1517.37 204.452 1520.93 Q202.646 1524.47 202.646 1531.6 Q202.646 1538.71 204.452 1542.27 Q206.28 1545.82 209.891 1545.82 Q213.526 1545.82 215.331 1542.27 Q217.16 1538.71 217.16 1531.6 Q217.16 1524.47 215.331 1520.93 Q213.526 1517.37 209.891 1517.37 M209.891 1513.66 Q215.702 1513.66 218.757 1518.27 Q221.836 1522.85 221.836 1531.6 Q221.836 1540.33 218.757 1544.94 Q215.702 1549.52 209.891 1549.52 Q204.081 1549.52 201.003 1544.94 Q197.947 1540.33 197.947 1531.6 Q197.947 1522.85 201.003 1518.27 Q204.081 1513.66 209.891 1513.66 Z" fill="#000000" fill-rule="nonzero" fill-opacity="1"></path><path clip-path="url(#clip580)" d="M862.502 1544.91 L870.14 1544.91 L870.14 1518.55 L861.83 1520.21 L861.83 1515.95 L870.094 1514.29 L874.77 1514.29 L874.77 1544.91 L882.409 1544.91 L882.409 1548.85 L862.502 1548.85 L862.502 1544.91 Z" fill="#000000" fill-rule="nonzero" fill-opacity="1"></path><path clip-path="url(#clip580)" d="M1529 1544.91 L1545.32 1544.91 L1545.32 1548.85 L1523.38 1548.85 L1523.38 1544.91 Q1526.04 1542.16 1530.62 1537.53 Q1535.23 1532.88 1536.41 1531.53 Q1538.65 1529.01 1539.53 1527.27 Q1540.44 1525.51 1540.44 1523.82 Q1540.44 1521.07 1538.49 1519.33 Q1536.57 1517.6 1533.47 1517.6 Q1531.27 1517.6 1528.82 1518.36 Q1526.38 1519.13 1523.61 1520.68 L1523.61 1515.95 Q1526.43 1514.82 1528.88 1514.24 Q1531.34 1513.66 1533.38 1513.66 Q1538.75 1513.66 1541.94 1516.35 Q1545.13 1519.03 1545.13 1523.52 Q1545.13 1525.65 1544.32 1527.57 Q1543.54 1529.47 1541.43 1532.07 Q1540.85 1532.74 1537.75 1535.95 Q1534.65 1539.15 1529 1544.91 Z" fill="#000000" fill-rule="nonzero" fill-opacity="1"></path><path clip-path="url(#clip580)" d="M2200.82 1530.21 Q2204.18 1530.93 2206.05 1533.2 Q2207.95 1535.47 2207.95 1538.8 Q2207.95 1543.92 2204.43 1546.72 Q2200.92 1549.52 2194.43 1549.52 Q2192.26 1549.52 2189.94 1549.08 Q2187.65 1548.66 2185.2 1547.81 L2185.2 1543.29 Q2187.14 1544.43 2189.46 1545.01 Q2191.77 1545.58 2194.3 1545.58 Q2198.69 1545.58 2200.99 1543.85 Q2203.3 1542.11 2203.3 1538.8 Q2203.3 1535.75 2201.15 1534.03 Q2199.02 1532.3 2195.2 1532.3 L2191.17 1532.3 L2191.17 1528.45 L2195.38 1528.45 Q2198.83 1528.45 2200.66 1527.09 Q2202.49 1525.7 2202.49 1523.11 Q2202.49 1520.45 2200.59 1519.03 Q2198.72 1517.6 2195.2 1517.6 Q2193.28 1517.6 2191.08 1518.01 Q2188.88 1518.43 2186.24 1519.31 L2186.24 1515.14 Q2188.9 1514.4 2191.22 1514.03 Q2193.55 1513.66 2195.62 1513.66 Q2200.94 1513.66 2204.04 1516.09 Q2207.14 1518.5 2207.14 1522.62 Q2207.14 1525.49 2205.5 1527.48 Q2203.86 1529.45 2200.82 1530.21 Z" fill="#000000" fill-rule="nonzero" fill-opacity="1"></path><polyline clip-path="url(#clip582)" style="stroke:#000000; stroke-linecap:round; stroke-linejoin:round; stroke-width:2; stroke-opacity:0.1; fill:none" points="147.478,1438.85 2352.76,1438.85 "></polyline>
<polyline clip-path="url(#clip582)" style="stroke:#000000; stroke-linecap:round; stroke-linejoin:round; stroke-width:2; stroke-opacity:0.1; fill:none" points="147.478,1176.12 2352.76,1176.12 "></polyline>
<polyline clip-path="url(#clip582)" style="stroke:#000000; stroke-linecap:round; stroke-linejoin:round; stroke-width:2; stroke-opacity:0.1; fill:none" points="147.478,913.383 2352.76,913.383 "></polyline>
<polyline clip-path="url(#clip582)" style="stroke:#000000; stroke-linecap:round; stroke-linejoin:round; stroke-width:2; stroke-opacity:0.1; fill:none" points="147.478,650.648 2352.76,650.648 "></polyline>
<polyline clip-path="url(#clip582)" style="stroke:#000000; stroke-linecap:round; stroke-linejoin:round; stroke-width:2; stroke-opacity:0.1; fill:none" points="147.478,387.913 2352.76,387.913 "></polyline>
<polyline clip-path="url(#clip582)" style="stroke:#000000; stroke-linecap:round; stroke-linejoin:round; stroke-width:2; stroke-opacity:0.1; fill:none" points="147.478,125.178 2352.76,125.178 "></polyline>
<polyline clip-path="url(#clip580)" style="stroke:#000000; stroke-linecap:round; stroke-linejoin:round; stroke-width:4; stroke-opacity:1; fill:none" points="147.478,1486.45 147.478,47.2441 "></polyline>
<polyline clip-path="url(#clip580)" style="stroke:#000000; stroke-linecap:round; stroke-linejoin:round; stroke-width:4; stroke-opacity:1; fill:none" points="147.478,1438.85 166.376,1438.85 "></polyline>
<polyline clip-path="url(#clip580)" style="stroke:#000000; stroke-linecap:round; stroke-linejoin:round; stroke-width:4; stroke-opacity:1; fill:none" points="147.478,1176.12 166.376,1176.12 "></polyline>
<polyline clip-path="url(#clip580)" style="stroke:#000000; stroke-linecap:round; stroke-linejoin:round; stroke-width:4; stroke-opacity:1; fill:none" points="147.478,913.383 166.376,913.383 "></polyline>
<polyline clip-path="url(#clip580)" style="stroke:#000000; stroke-linecap:round; stroke-linejoin:round; stroke-width:4; stroke-opacity:1; fill:none" points="147.478,650.648 166.376,650.648 "></polyline>
<polyline clip-path="url(#clip580)" style="stroke:#000000; stroke-linecap:round; stroke-linejoin:round; stroke-width:4; stroke-opacity:1; fill:none" points="147.478,387.913 166.376,387.913 "></polyline>
<polyline clip-path="url(#clip580)" style="stroke:#000000; stroke-linecap:round; stroke-linejoin:round; stroke-width:4; stroke-opacity:1; fill:none" points="147.478,125.178 166.376,125.178 "></polyline>
<path clip-path="url(#clip580)" d="M51.3625 1439.3 L81.0383 1439.3 L81.0383 1443.24 L51.3625 1443.24 L51.3625 1439.3 Z" fill="#000000" fill-rule="nonzero" fill-opacity="1"></path><path clip-path="url(#clip580)" d="M95.1586 1452.2 L111.478 1452.2 L111.478 1456.13 L89.5336 1456.13 L89.5336 1452.2 Q92.1956 1449.44 96.7789 1444.81 Q101.385 1440.16 102.566 1438.82 Q104.811 1436.3 105.691 1434.56 Q106.594 1432.8 106.594 1431.11 Q106.594 1428.36 104.649 1426.62 Q102.728 1424.88 99.6261 1424.88 Q97.4271 1424.88 94.9734 1425.65 Q92.5428 1426.41 89.7651 1427.96 L89.7651 1423.24 Q92.5891 1422.11 95.0428 1421.53 Q97.4965 1420.95 99.5335 1420.95 Q104.904 1420.95 108.098 1423.63 Q111.293 1426.32 111.293 1430.81 Q111.293 1432.94 110.483 1434.86 Q109.696 1436.76 107.589 1439.35 Q107.01 1440.02 103.909 1443.24 Q100.807 1446.43 95.1586 1452.2 Z" fill="#000000" fill-rule="nonzero" fill-opacity="1"></path><path clip-path="url(#clip580)" d="M50.9921 1176.57 L80.6679 1176.57 L80.6679 1180.5 L50.9921 1180.5 L50.9921 1176.57 Z" fill="#000000" fill-rule="nonzero" fill-opacity="1"></path><path clip-path="url(#clip580)" d="M91.5706 1189.46 L99.2095 1189.46 L99.2095 1163.1 L90.8993 1164.76 L90.8993 1160.5 L99.1632 1158.84 L103.839 1158.84 L103.839 1189.46 L111.478 1189.46 L111.478 1193.4 L91.5706 1193.4 L91.5706 1189.46 Z" fill="#000000" fill-rule="nonzero" fill-opacity="1"></path><path clip-path="url(#clip580)" d="M99.5335 899.182 Q95.9224 899.182 94.0937 902.746 Q92.2882 906.288 92.2882 913.418 Q92.2882 920.524 94.0937 924.089 Q95.9224 927.63 99.5335 927.63 Q103.168 927.63 104.973 924.089 Q106.802 920.524 106.802 913.418 Q106.802 906.288 104.973 902.746 Q103.168 899.182 99.5335 899.182 M99.5335 895.478 Q105.344 895.478 108.399 900.084 Q111.478 904.668 111.478 913.418 Q111.478 922.144 108.399 926.751 Q105.344 931.334 99.5335 931.334 Q93.7234 931.334 90.6447 926.751 Q87.5892 922.144 87.5892 913.418 Q87.5892 904.668 90.6447 900.084 Q93.7234 895.478 99.5335 895.478 Z" fill="#000000" fill-rule="nonzero" fill-opacity="1"></path><path clip-path="url(#clip580)" d="M91.5706 663.993 L99.2095 663.993 L99.2095 637.627 L90.8993 639.294 L90.8993 635.034 L99.1632 633.368 L103.839 633.368 L103.839 663.993 L111.478 663.993 L111.478 667.928 L91.5706 667.928 L91.5706 663.993 Z" fill="#000000" fill-rule="nonzero" fill-opacity="1"></path><path clip-path="url(#clip580)" d="M95.1586 401.258 L111.478 401.258 L111.478 405.193 L89.5336 405.193 L89.5336 401.258 Q92.1956 398.503 96.7789 393.873 Q101.385 389.221 102.566 387.878 Q104.811 385.355 105.691 383.619 Q106.594 381.86 106.594 380.17 Q106.594 377.415 104.649 375.679 Q102.728 373.943 99.6261 373.943 Q97.4271 373.943 94.9734 374.707 Q92.5428 375.471 89.7651 377.022 L89.7651 372.299 Q92.5891 371.165 95.0428 370.586 Q97.4965 370.008 99.5335 370.008 Q104.904 370.008 108.098 372.693 Q111.293 375.378 111.293 379.869 Q111.293 381.998 110.483 383.92 Q109.696 385.818 107.589 388.41 Q107.01 389.082 103.909 392.299 Q100.807 395.494 95.1586 401.258 Z" fill="#000000" fill-rule="nonzero" fill-opacity="1"></path><path clip-path="url(#clip580)" d="M104.348 123.823 Q107.705 124.541 109.58 126.81 Q111.478 129.078 111.478 132.411 Q111.478 137.527 107.959 140.328 Q104.441 143.129 97.9595 143.129 Q95.7836 143.129 93.4688 142.689 Q91.1771 142.272 88.7234 141.416 L88.7234 136.902 Q90.6678 138.036 92.9826 138.615 Q95.2974 139.194 97.8206 139.194 Q102.219 139.194 104.51 137.458 Q106.825 135.722 106.825 132.411 Q106.825 129.356 104.672 127.643 Q102.543 125.907 98.7234 125.907 L94.6956 125.907 L94.6956 122.064 L98.9085 122.064 Q102.358 122.064 104.186 120.698 Q106.015 119.31 106.015 116.717 Q106.015 114.055 104.117 112.643 Q102.242 111.208 98.7234 111.208 Q96.8021 111.208 94.603 111.624 Q92.4039 112.041 89.7651 112.921 L89.7651 108.754 Q92.4271 108.013 94.7419 107.643 Q97.0798 107.273 99.14 107.273 Q104.464 107.273 107.566 109.703 Q110.668 112.111 110.668 116.231 Q110.668 119.101 109.024 121.092 Q107.381 123.06 104.348 123.823 Z" fill="#000000" fill-rule="nonzero" fill-opacity="1"></path><polyline clip-path="url(#clip582)" style="stroke:#009af9; stroke-linecap:round; stroke-linejoin:round; stroke-width:4; stroke-opacity:1; fill:none" points="209.891,913.383 230.906,905.045 251.921,896.708 272.935,888.371 293.95,880.033 314.965,871.696 335.979,863.358 356.994,855.021 378.009,846.683 399.023,838.346 420.038,830.008 441.053,821.671 462.067,813.334 483.082,804.996 504.097,796.659 525.111,788.321 546.126,779.984 567.141,771.646 588.155,763.309 609.17,754.971 630.185,746.634 651.199,738.297 672.214,729.959 693.229,721.622 714.243,713.284 735.258,704.947 756.272,696.609 777.287,688.272 798.302,679.935 819.316,671.597 840.331,663.26 861.346,654.922 882.36,646.585 903.375,638.247 924.39,629.91 945.404,621.572 966.419,613.235 987.434,604.898 1008.45,596.56 1029.46,588.223 1050.48,579.885 1071.49,571.548 1092.51,563.21 1113.52,554.873 1134.54,546.535 1155.55,538.198 1176.57,529.861 1197.58,521.523 1218.59,513.186 1239.61,504.848 1260.62,496.511 1281.64,488.173 1302.65,479.836 1323.67,471.499 1344.68,463.161 1365.7,454.824 1386.71,446.486 1407.73,438.149 1428.74,429.811 1449.76,421.474 1470.77,413.136 1491.79,404.799 1512.8,396.462 1533.81,388.124 1554.83,379.787 1575.84,371.449 1596.86,363.112 1617.87,354.774 1638.89,346.437 1659.9,338.099 1680.92,329.762 1701.93,321.425 1722.95,313.087 1743.96,304.75 1764.98,296.412 1785.99,288.075 1807.01,279.737 1828.02,271.4 1849.03,263.063 1870.05,254.725 1891.06,246.388 1912.08,238.05 1933.09,229.713 1954.11,221.375 1975.12,213.038 1996.14,204.7 2017.15,196.363 2038.17,188.026 2059.18,179.688 2080.2,171.351 2101.21,163.013 2122.23,154.676 2143.24,146.338 2164.25,138.001 2185.27,129.663 2206.28,121.326 2227.3,112.989 2248.31,104.651 2269.33,96.3137 2290.34,87.9763 "></polyline>
<polyline clip-path="url(#clip582)" style="stroke:#e26f46; stroke-linecap:round; stroke-linejoin:round; stroke-width:4; stroke-opacity:1; fill:none" points="209.891,913.383 230.906,905.047 251.921,896.719 272.935,888.408 293.95,880.123 314.965,871.871 335.979,863.66 356.994,855.501 378.009,847.4 399.023,839.366 420.038,831.408 441.053,823.533 462.067,815.752 483.082,808.07 504.097,800.498 525.111,793.044 546.126,785.715 567.141,778.521 588.155,771.47 609.17,764.569 630.185,757.828 651.199,751.256 672.214,744.859 693.229,738.647 714.243,732.628 735.258,726.811 756.272,721.204 777.287,715.814 798.302,710.652 819.316,705.725 840.331,701.041 861.346,696.609 882.36,692.437 903.375,688.534 924.39,684.908 945.404,681.567 966.419,678.521 987.434,675.776 1008.45,673.343 1029.46,671.228 1050.48,669.44 1071.49,667.989 1092.51,666.882 1113.52,666.127 1134.54,665.733 1155.55,665.709 1176.57,666.063 1197.58,666.803 1218.59,667.937 1239.61,669.475 1260.62,671.423 1281.64,673.792 1302.65,676.589 1323.67,679.822 1344.68,683.5 1365.7,687.632 1386.71,692.226 1407.73,697.289 1428.74,702.832 1449.76,708.861 1470.77,715.385 1491.79,722.414 1512.8,729.954 1533.81,738.015 1554.83,746.605 1575.84,755.732 1596.86,765.405 1617.87,775.632 1638.89,786.422 1659.9,797.782 1680.92,809.722 1701.93,822.249 1722.95,835.373 1743.96,849.101 1764.98,863.442 1785.99,878.405 1807.01,893.997 1828.02,910.227 1849.03,927.103 1870.05,944.635 1891.06,962.829 1912.08,981.696 1933.09,1001.24 1954.11,1021.48 1975.12,1042.41 1996.14,1064.05 2017.15,1086.4 2038.17,1109.47 2059.18,1133.27 2080.2,1157.81 2101.21,1183.1 2122.23,1209.15 2143.24,1235.96 2164.25,1263.54 2185.27,1291.9 2206.28,1321.05 2227.3,1351 2248.31,1381.75 2269.33,1413.32 2290.34,1445.72 "></polyline>
<polyline clip-path="url(#clip582)" style="stroke:#3da44d; stroke-linecap:round; stroke-linejoin:round; stroke-width:4; stroke-opacity:1; fill:none" points="209.891,913.383 230.906,905.047 251.921,896.719 272.935,888.408 293.95,880.123 314.965,871.87 335.979,863.66 356.994,855.5 378.009,847.397 399.023,839.362 420.038,831.401 441.053,823.522 462.067,815.734 483.082,808.044 504.097,800.46 525.111,792.99 546.126,785.641 567.141,778.421 588.155,771.337 609.17,764.395 630.185,757.603 651.199,750.968 672.214,744.496 693.229,738.194 714.243,732.067 735.258,726.123 756.272,720.366 777.287,714.803 798.302,709.439 819.316,704.28 840.331,699.329 861.346,694.592 882.36,690.073 903.375,685.777 924.39,681.707 945.404,677.867 966.419,674.261 987.434,670.891 1008.45,667.76 1029.46,664.871 1050.48,662.226 1071.49,659.826 1092.51,657.674 1113.52,655.77 1134.54,654.114 1155.55,652.708 1176.57,651.552 1197.58,650.644 1218.59,649.985 1239.61,649.573 1260.62,649.406 1281.64,649.483 1302.65,649.802 1323.67,650.358 1344.68,651.15 1365.7,652.173 1386.71,653.424 1407.73,654.897 1428.74,656.588 1449.76,658.491 1470.77,660.6 1491.79,662.908 1512.8,665.408 1533.81,668.093 1554.83,670.955 1575.84,673.984 1596.86,677.172 1617.87,680.509 1638.89,683.985 1659.9,687.589 1680.92,691.309 1701.93,695.133 1722.95,699.049 1743.96,703.044 1764.98,707.103 1785.99,711.212 1807.01,715.357 1828.02,719.521 1849.03,723.688 1870.05,727.841 1891.06,731.963 1912.08,736.035 1933.09,740.038 1954.11,743.953 1975.12,747.758 1996.14,751.434 2017.15,754.958 2038.17,758.308 2059.18,761.46 2080.2,764.39 2101.21,767.075 2122.23,769.488 2143.24,771.602 2164.25,773.392 2185.27,774.83 2206.28,775.886 2227.3,776.531 2248.31,776.736 2269.33,776.469 2290.34,775.698 "></polyline>
<polyline clip-path="url(#clip582)" style="stroke:#c271d2; stroke-linecap:round; stroke-linejoin:round; stroke-width:4; stroke-opacity:1; fill:none" points="209.891,913.383 230.906,905.047 251.921,896.719 272.935,888.408 293.95,880.123 314.965,871.87 335.979,863.66 356.994,855.5 378.009,847.397 399.023,839.362 420.038,831.401 441.053,823.522 462.067,815.734 483.082,808.044 504.097,800.461 525.111,792.991 546.126,785.642 567.141,778.422 588.155,771.338 609.17,764.396 630.185,757.605 651.199,750.971 672.214,744.5 693.229,738.199 714.243,732.075 735.258,726.133 756.272,720.38 777.287,714.821 798.302,709.462 819.316,704.309 840.331,699.366 861.346,694.638 882.36,690.131 903.375,685.849 924.39,681.796 945.404,677.976 966.419,674.393 987.434,671.051 1008.45,667.953 1029.46,665.103 1050.48,662.503 1071.49,660.155 1092.51,658.063 1113.52,656.229 1134.54,654.654 1155.55,653.34 1176.57,652.288 1197.58,651.5 1218.59,650.977 1239.61,650.718 1260.62,650.726 1281.64,650.999 1302.65,651.538 1323.67,652.343 1344.68,653.412 1365.7,654.745 1386.71,656.341 1407.73,658.2 1428.74,660.318 1449.76,662.695 1470.77,665.328 1491.79,668.217 1512.8,671.357 1533.81,674.747 1554.83,678.384 1575.84,682.265 1596.86,686.387 1617.87,690.747 1638.89,695.342 1659.9,700.167 1680.92,705.22 1701.93,710.497 1722.95,715.993 1743.96,721.705 1764.98,727.629 1785.99,733.761 1807.01,740.096 1828.02,746.631 1849.03,753.36 1870.05,760.281 1891.06,767.389 1912.08,774.679 1933.09,782.148 1954.11,789.792 1975.12,797.606 1996.14,805.587 2017.15,813.731 2038.17,822.035 2059.18,830.495 2080.2,839.108 2101.21,847.87 2122.23,856.781 2143.24,865.836 2164.25,875.034 2185.27,884.373 2206.28,893.851 2227.3,903.468 2248.31,913.223 2269.33,923.116 2290.34,933.146 "></polyline>
<path clip-path="url(#clip580)" d="M220.987 354.418 L563.482 354.418 L563.482 95.2176 L220.987 95.2176  Z" fill="#ffffff" fill-rule="evenodd" fill-opacity="1"></path>
<polyline clip-path="url(#clip580)" style="stroke:#000000; stroke-linecap:round; stroke-linejoin:round; stroke-width:4; stroke-opacity:1; fill:none" points="220.987,354.418 563.482,354.418 563.482,95.2176 220.987,95.2176 220.987,354.418 "></polyline>
<polyline clip-path="url(#clip580)" style="stroke:#009af9; stroke-linecap:round; stroke-linejoin:round; stroke-width:4; stroke-opacity:1; fill:none" points="245.49,147.058 392.509,147.058 "></polyline>
<path clip-path="url(#clip580)" d="M438.725 148.689 L438.725 164.338 L434.466 164.338 L434.466 148.828 Q434.466 145.148 433.03 143.319 Q431.595 141.49 428.725 141.49 Q425.276 141.49 423.285 143.69 Q421.294 145.889 421.294 149.685 L421.294 164.338 L417.012 164.338 L417.012 138.412 L421.294 138.412 L421.294 142.44 Q422.822 140.102 424.882 138.944 Q426.966 137.787 429.674 137.787 Q434.141 137.787 436.433 140.565 Q438.725 143.319 438.725 148.689 Z" fill="#000000" fill-rule="nonzero" fill-opacity="1"></path><path clip-path="url(#clip580)" d="M462.845 142.81 L492.521 142.81 L492.521 146.699 L462.845 146.699 L462.845 142.81 M462.845 152.254 L492.521 152.254 L492.521 156.189 L462.845 156.189 L462.845 152.254 Z" fill="#000000" fill-rule="nonzero" fill-opacity="1"></path><path clip-path="url(#clip580)" d="M518.493 160.402 L526.132 160.402 L526.132 134.037 L517.822 135.703 L517.822 131.444 L526.085 129.778 L530.761 129.778 L530.761 160.402 L538.4 160.402 L538.4 164.338 L518.493 164.338 L518.493 160.402 Z" fill="#000000" fill-rule="nonzero" fill-opacity="1"></path><polyline clip-path="url(#clip580)" style="stroke:#e26f46; stroke-linecap:round; stroke-linejoin:round; stroke-width:4; stroke-opacity:1; fill:none" points="245.49,198.898 392.509,198.898 "></polyline>
<path clip-path="url(#clip580)" d="M438.725 200.529 L438.725 216.178 L434.466 216.178 L434.466 200.668 Q434.466 196.988 433.03 195.159 Q431.595 193.33 428.725 193.33 Q425.276 193.33 423.285 195.53 Q421.294 197.729 421.294 201.525 L421.294 216.178 L417.012 216.178 L417.012 190.252 L421.294 190.252 L421.294 194.28 Q422.822 191.942 424.882 190.784 Q426.966 189.627 429.674 189.627 Q434.141 189.627 436.433 192.405 Q438.725 195.159 438.725 200.529 Z" fill="#000000" fill-rule="nonzero" fill-opacity="1"></path><path clip-path="url(#clip580)" d="M462.845 194.65 L492.521 194.65 L492.521 198.539 L462.845 198.539 L462.845 194.65 M462.845 204.094 L492.521 204.094 L492.521 208.029 L462.845 208.029 L462.845 204.094 Z" fill="#000000" fill-rule="nonzero" fill-opacity="1"></path><path clip-path="url(#clip580)" d="M531.849 197.543 Q535.206 198.261 537.081 200.529 Q538.979 202.798 538.979 206.131 Q538.979 211.247 535.46 214.048 Q531.942 216.849 525.46 216.849 Q523.284 216.849 520.97 216.409 Q518.678 215.992 516.224 215.136 L516.224 210.622 Q518.169 211.756 520.484 212.335 Q522.798 212.914 525.321 212.914 Q529.72 212.914 532.011 211.178 Q534.326 209.441 534.326 206.131 Q534.326 203.076 532.173 201.363 Q530.044 199.627 526.224 199.627 L522.197 199.627 L522.197 195.784 L526.409 195.784 Q529.859 195.784 531.687 194.418 Q533.516 193.03 533.516 190.437 Q533.516 187.775 531.618 186.363 Q529.743 184.928 526.224 184.928 Q524.303 184.928 522.104 185.344 Q519.905 185.761 517.266 186.641 L517.266 182.474 Q519.928 181.733 522.243 181.363 Q524.581 180.993 526.641 180.993 Q531.965 180.993 535.067 183.423 Q538.169 185.83 538.169 189.951 Q538.169 192.821 536.525 194.812 Q534.882 196.78 531.849 197.543 Z" fill="#000000" fill-rule="nonzero" fill-opacity="1"></path><polyline clip-path="url(#clip580)" style="stroke:#3da44d; stroke-linecap:round; stroke-linejoin:round; stroke-width:4; stroke-opacity:1; fill:none" points="245.49,250.738 392.509,250.738 "></polyline>
<path clip-path="url(#clip580)" d="M438.725 252.369 L438.725 268.018 L434.466 268.018 L434.466 252.508 Q434.466 248.828 433.03 246.999 Q431.595 245.17 428.725 245.17 Q425.276 245.17 423.285 247.37 Q421.294 249.569 421.294 253.365 L421.294 268.018 L417.012 268.018 L417.012 242.092 L421.294 242.092 L421.294 246.12 Q422.822 243.782 424.882 242.624 Q426.966 241.467 429.674 241.467 Q434.141 241.467 436.433 244.245 Q438.725 246.999 438.725 252.369 Z" fill="#000000" fill-rule="nonzero" fill-opacity="1"></path><path clip-path="url(#clip580)" d="M462.845 246.49 L492.521 246.49 L492.521 250.379 L462.845 250.379 L462.845 246.49 M462.845 255.934 L492.521 255.934 L492.521 259.869 L462.845 259.869 L462.845 255.934 Z" fill="#000000" fill-rule="nonzero" fill-opacity="1"></path><path clip-path="url(#clip580)" d="M517.729 233.458 L536.085 233.458 L536.085 237.393 L522.011 237.393 L522.011 245.865 Q523.03 245.518 524.048 245.356 Q525.067 245.17 526.085 245.17 Q531.872 245.17 535.252 248.342 Q538.632 251.513 538.632 256.93 Q538.632 262.508 535.159 265.61 Q531.687 268.689 525.368 268.689 Q523.192 268.689 520.923 268.318 Q518.678 267.948 516.271 267.207 L516.271 262.508 Q518.354 263.643 520.576 264.198 Q522.798 264.754 525.275 264.754 Q529.28 264.754 531.618 262.647 Q533.956 260.541 533.956 256.93 Q533.956 253.319 531.618 251.212 Q529.28 249.106 525.275 249.106 Q523.4 249.106 521.525 249.522 Q519.673 249.939 517.729 250.819 L517.729 233.458 Z" fill="#000000" fill-rule="nonzero" fill-opacity="1"></path><polyline clip-path="url(#clip580)" style="stroke:#c271d2; stroke-linecap:round; stroke-linejoin:round; stroke-width:4; stroke-opacity:1; fill:none" points="245.49,302.578 392.509,302.578 "></polyline>
<path clip-path="url(#clip580)" d="M438.725 304.209 L438.725 319.858 L434.466 319.858 L434.466 304.348 Q434.466 300.668 433.03 298.839 Q431.595 297.01 428.725 297.01 Q425.276 297.01 423.285 299.21 Q421.294 301.409 421.294 305.205 L421.294 319.858 L417.012 319.858 L417.012 293.932 L421.294 293.932 L421.294 297.96 Q422.822 295.622 424.882 294.464 Q426.966 293.307 429.674 293.307 Q434.141 293.307 436.433 296.085 Q438.725 298.839 438.725 304.209 Z" fill="#000000" fill-rule="nonzero" fill-opacity="1"></path><path clip-path="url(#clip580)" d="M462.845 298.33 L492.521 298.33 L492.521 302.219 L462.845 302.219 L462.845 298.33 M462.845 307.774 L492.521 307.774 L492.521 311.709 L462.845 311.709 L462.845 307.774 Z" fill="#000000" fill-rule="nonzero" fill-opacity="1"></path><path clip-path="url(#clip580)" d="M516.502 285.298 L538.724 285.298 L538.724 287.288 L526.178 319.858 L521.294 319.858 L533.099 289.233 L516.502 289.233 L516.502 285.298 Z" fill="#000000" fill-rule="nonzero" fill-opacity="1"></path></svg>
