<svg xmlns="http://www.w3.org/2000/svg" xmlns:xlink="http://www.w3.org/1999/xlink" width="600" height="400" viewBox="0 0 2400 1600">
<defs>
  <clipPath id="clip090">
    <rect x="0" y="0" width="2400" height="1600"></rect>
  </clipPath>
</defs>
<path clip-path="url(#clip090)" d="M0 1600 L2400 1600 L2400 0 L0 0  Z" fill="#ffffff" fill-rule="evenodd" fill-opacity="1"></path>
<defs>
  <clipPath id="clip091">
    <rect x="480" y="0" width="1681" height="1600"></rect>
  </clipPath>
</defs>
<path clip-path="url(#clip090)" d="M251.842 1410.9 L2352.76 1410.9 L2352.76 47.2441 L251.842 47.2441  Z" fill="#ffffff" fill-rule="evenodd" fill-opacity="1"></path>
<defs>
  <clipPath id="clip092">
    <rect x="251" y="47" width="2102" height="1365"></rect>
  </clipPath>
</defs>
<polyline clip-path="url(#clip092)" style="stroke:#000000; stroke-linecap:round; stroke-linejoin:round; stroke-width:2; stroke-opacity:0.1; fill:none" points="1104.1,1410.9 1104.1,47.2441 "></polyline>
<polyline clip-path="url(#clip092)" style="stroke:#000000; stroke-linecap:round; stroke-linejoin:round; stroke-width:2; stroke-opacity:0.1; fill:none" points="2293.3,1410.9 2293.3,47.2441 "></polyline>
<polyline clip-path="url(#clip090)" style="stroke:#000000; stroke-linecap:round; stroke-linejoin:round; stroke-width:4; stroke-opacity:1; fill:none" points="251.842,1410.9 2352.76,1410.9 "></polyline>
<polyline clip-path="url(#clip090)" style="stroke:#000000; stroke-linecap:round; stroke-linejoin:round; stroke-width:4; stroke-opacity:1; fill:none" points="1104.1,1410.9 1104.1,1392 "></polyline>
<polyline clip-path="url(#clip090)" style="stroke:#000000; stroke-linecap:round; stroke-linejoin:round; stroke-width:4; stroke-opacity:1; fill:none" points="2293.3,1410.9 2293.3,1392 "></polyline>
<path clip-path="url(#clip090)" d="M1069.54 1485.02 L1077.18 1485.02 L1077.18 1458.66 L1068.87 1460.32 L1068.87 1456.06 L1077.14 1454.4 L1081.81 1454.4 L1081.81 1485.02 L1089.45 1485.02 L1089.45 1488.96 L1069.54 1488.96 L1069.54 1485.02 Z" fill="#000000" fill-rule="nonzero" fill-opacity="1"></path><path clip-path="url(#clip090)" d="M1108.9 1457.48 Q1105.28 1457.48 1103.46 1461.04 Q1101.65 1464.58 1101.65 1471.71 Q1101.65 1478.82 1103.46 1482.38 Q1105.28 1485.92 1108.9 1485.92 Q1112.53 1485.92 1114.33 1482.38 Q1116.16 1478.82 1116.16 1471.71 Q1116.16 1464.58 1114.33 1461.04 Q1112.53 1457.48 1108.9 1457.48 M1108.9 1453.77 Q1114.71 1453.77 1117.76 1458.38 Q1120.84 1462.96 1120.84 1471.71 Q1120.84 1480.44 1117.76 1485.04 Q1114.71 1489.63 1108.9 1489.63 Q1103.08 1489.63 1100.01 1485.04 Q1096.95 1480.44 1096.95 1471.71 Q1096.95 1462.96 1100.01 1458.38 Q1103.08 1453.77 1108.9 1453.77 Z" fill="#000000" fill-rule="nonzero" fill-opacity="1"></path><path clip-path="url(#clip090)" d="M1133.53 1446.41 Q1136.26 1446.99 1137.79 1448.83 Q1139.33 1450.68 1139.33 1453.38 Q1139.33 1457.54 1136.47 1459.82 Q1133.61 1462.09 1128.34 1462.09 Q1126.58 1462.09 1124.69 1461.73 Q1122.83 1461.4 1120.84 1460.7 L1120.84 1457.03 Q1122.42 1457.95 1124.3 1458.42 Q1126.18 1458.89 1128.23 1458.89 Q1131.8 1458.89 1133.67 1457.48 Q1135.55 1456.07 1135.55 1453.38 Q1135.55 1450.9 1133.8 1449.51 Q1132.07 1448.1 1128.96 1448.1 L1125.69 1448.1 L1125.69 1444.98 L1129.11 1444.98 Q1131.92 1444.98 1133.4 1443.87 Q1134.89 1442.74 1134.89 1440.63 Q1134.89 1438.47 1133.35 1437.32 Q1131.82 1436.16 1128.96 1436.16 Q1127.4 1436.16 1125.62 1436.49 Q1123.83 1436.83 1121.69 1437.55 L1121.69 1434.16 Q1123.85 1433.56 1125.73 1433.26 Q1127.63 1432.96 1129.3 1432.96 Q1133.63 1432.96 1136.15 1434.93 Q1138.67 1436.89 1138.67 1440.24 Q1138.67 1442.57 1137.33 1444.19 Q1136 1445.79 1133.53 1446.41 Z" fill="#000000" fill-rule="nonzero" fill-opacity="1"></path><path clip-path="url(#clip090)" d="M2258.29 1485.02 L2265.93 1485.02 L2265.93 1458.66 L2257.62 1460.32 L2257.62 1456.06 L2265.88 1454.4 L2270.56 1454.4 L2270.56 1485.02 L2278.2 1485.02 L2278.2 1488.96 L2258.29 1488.96 L2258.29 1485.02 Z" fill="#000000" fill-rule="nonzero" fill-opacity="1"></path><path clip-path="url(#clip090)" d="M2297.64 1457.48 Q2294.03 1457.48 2292.2 1461.04 Q2290.39 1464.58 2290.39 1471.71 Q2290.39 1478.82 2292.2 1482.38 Q2294.03 1485.92 2297.64 1485.92 Q2301.27 1485.92 2303.08 1482.38 Q2304.91 1478.82 2304.91 1471.71 Q2304.91 1464.58 2303.08 1461.04 Q2301.27 1457.48 2297.64 1457.48 M2297.64 1453.77 Q2303.45 1453.77 2306.51 1458.38 Q2309.58 1462.96 2309.58 1471.71 Q2309.58 1480.44 2306.51 1485.04 Q2303.45 1489.63 2297.64 1489.63 Q2291.83 1489.63 2288.75 1485.04 Q2285.7 1480.44 2285.7 1471.71 Q2285.7 1462.96 2288.75 1458.38 Q2291.83 1453.77 2297.64 1453.77 Z" fill="#000000" fill-rule="nonzero" fill-opacity="1"></path><path clip-path="url(#clip090)" d="M2319.61 1445.99 Q2317.05 1445.99 2315.55 1447.74 Q2314.06 1449.49 2314.06 1452.54 Q2314.06 1455.57 2315.55 1457.33 Q2317.05 1459.08 2319.61 1459.08 Q2322.17 1459.08 2323.65 1457.33 Q2325.16 1455.57 2325.16 1452.54 Q2325.16 1449.49 2323.65 1447.74 Q2322.17 1445.99 2319.61 1445.99 M2327.15 1434.09 L2327.15 1437.55 Q2325.72 1436.87 2324.25 1436.51 Q2322.81 1436.16 2321.38 1436.16 Q2317.62 1436.16 2315.62 1438.69 Q2313.65 1441.23 2313.36 1446.37 Q2314.47 1444.73 2316.15 1443.87 Q2317.82 1442.98 2319.83 1442.98 Q2324.07 1442.98 2326.51 1445.56 Q2328.98 1448.12 2328.98 1452.54 Q2328.98 1456.86 2326.42 1459.48 Q2323.86 1462.09 2319.61 1462.09 Q2314.74 1462.09 2312.16 1458.37 Q2309.58 1454.62 2309.58 1447.53 Q2309.58 1440.88 2312.74 1436.93 Q2315.9 1432.96 2321.23 1432.96 Q2322.66 1432.96 2324.1 1433.24 Q2325.57 1433.52 2327.15 1434.09 Z" fill="#000000" fill-rule="nonzero" fill-opacity="1"></path><path clip-path="url(#clip090)" d="M1317.23 1552.67 L1317.23 1574.19 L1311.37 1574.19 L1311.37 1552.86 Q1311.37 1547.8 1309.4 1545.29 Q1307.42 1542.77 1303.48 1542.77 Q1298.73 1542.77 1296 1545.79 Q1293.26 1548.82 1293.26 1554.04 L1293.26 1574.19 L1287.37 1574.19 L1287.37 1538.54 L1293.26 1538.54 L1293.26 1544.08 Q1295.36 1540.86 1298.19 1539.27 Q1301.06 1537.68 1304.78 1537.68 Q1310.92 1537.68 1314.08 1541.5 Q1317.23 1545.29 1317.23 1552.67 Z" fill="#000000" fill-rule="nonzero" fill-opacity="1"></path><polyline clip-path="url(#clip092)" style="stroke:#000000; stroke-linecap:round; stroke-linejoin:round; stroke-width:2; stroke-opacity:0.1; fill:none" points="251.842,1298.13 2352.76,1298.13 "></polyline>
<polyline clip-path="url(#clip092)" style="stroke:#000000; stroke-linecap:round; stroke-linejoin:round; stroke-width:2; stroke-opacity:0.1; fill:none" points="251.842,842.596 2352.76,842.596 "></polyline>
<polyline clip-path="url(#clip092)" style="stroke:#000000; stroke-linecap:round; stroke-linejoin:round; stroke-width:2; stroke-opacity:0.1; fill:none" points="251.842,387.061 2352.76,387.061 "></polyline>
<polyline clip-path="url(#clip090)" style="stroke:#000000; stroke-linecap:round; stroke-linejoin:round; stroke-width:4; stroke-opacity:1; fill:none" points="251.842,1410.9 251.842,47.2441 "></polyline>
<polyline clip-path="url(#clip090)" style="stroke:#000000; stroke-linecap:round; stroke-linejoin:round; stroke-width:4; stroke-opacity:1; fill:none" points="251.842,1298.13 270.74,1298.13 "></polyline>
<polyline clip-path="url(#clip090)" style="stroke:#000000; stroke-linecap:round; stroke-linejoin:round; stroke-width:4; stroke-opacity:1; fill:none" points="251.842,842.596 270.74,842.596 "></polyline>
<polyline clip-path="url(#clip090)" style="stroke:#000000; stroke-linecap:round; stroke-linejoin:round; stroke-width:4; stroke-opacity:1; fill:none" points="251.842,387.061 270.74,387.061 "></polyline>
<path clip-path="url(#clip090)" d="M114.931 1317.92 L122.57 1317.92 L122.57 1291.56 L114.26 1293.22 L114.26 1288.96 L122.524 1287.3 L127.2 1287.3 L127.2 1317.92 L134.839 1317.92 L134.839 1321.86 L114.931 1321.86 L114.931 1317.92 Z" fill="#000000" fill-rule="nonzero" fill-opacity="1"></path><path clip-path="url(#clip090)" d="M154.283 1290.38 Q150.672 1290.38 148.843 1293.94 Q147.038 1297.48 147.038 1304.61 Q147.038 1311.72 148.843 1315.28 Q150.672 1318.83 154.283 1318.83 Q157.917 1318.83 159.723 1315.28 Q161.552 1311.72 161.552 1304.61 Q161.552 1297.48 159.723 1293.94 Q157.917 1290.38 154.283 1290.38 M154.283 1286.67 Q160.093 1286.67 163.149 1291.28 Q166.227 1295.86 166.227 1304.61 Q166.227 1313.34 163.149 1317.95 Q160.093 1322.53 154.283 1322.53 Q148.473 1322.53 145.394 1317.95 Q142.339 1313.34 142.339 1304.61 Q142.339 1295.86 145.394 1291.28 Q148.473 1286.67 154.283 1286.67 Z" fill="#000000" fill-rule="nonzero" fill-opacity="1"></path><path clip-path="url(#clip090)" d="M166.227 1280.77 L190.339 1280.77 L190.339 1283.97 L166.227 1283.97 L166.227 1280.77 Z" fill="#000000" fill-rule="nonzero" fill-opacity="1"></path><path clip-path="url(#clip090)" d="M210.05 1279.31 Q212.777 1279.89 214.3 1281.73 Q215.842 1283.58 215.842 1286.29 Q215.842 1290.44 212.984 1292.72 Q210.125 1294.99 204.859 1294.99 Q203.091 1294.99 201.21 1294.64 Q199.348 1294.3 197.354 1293.6 L197.354 1289.93 Q198.934 1290.86 200.815 1291.33 Q202.696 1291.8 204.746 1291.8 Q208.319 1291.8 210.181 1290.39 Q212.062 1288.97 212.062 1286.29 Q212.062 1283.8 210.313 1282.41 Q208.583 1281 205.479 1281 L202.207 1281 L202.207 1277.88 L205.63 1277.88 Q208.432 1277.88 209.918 1276.77 Q211.404 1275.64 211.404 1273.53 Q211.404 1271.37 209.861 1270.22 Q208.338 1269.06 205.479 1269.06 Q203.918 1269.06 202.132 1269.4 Q200.345 1269.73 198.201 1270.45 L198.201 1267.06 Q200.364 1266.46 202.244 1266.16 Q204.144 1265.86 205.818 1265.86 Q210.144 1265.86 212.664 1267.83 Q215.184 1269.79 215.184 1273.14 Q215.184 1275.47 213.849 1277.09 Q212.513 1278.69 210.05 1279.31 Z" fill="#000000" fill-rule="nonzero" fill-opacity="1"></path><path clip-path="url(#clip090)" d="M115.703 862.388 L123.341 862.388 L123.341 836.023 L115.031 837.689 L115.031 833.43 L123.295 831.763 L127.971 831.763 L127.971 862.388 L135.61 862.388 L135.61 866.323 L115.703 866.323 L115.703 862.388 Z" fill="#000000" fill-rule="nonzero" fill-opacity="1"></path><path clip-path="url(#clip090)" d="M155.054 834.842 Q151.443 834.842 149.614 838.407 Q147.809 841.949 147.809 849.078 Q147.809 856.185 149.614 859.749 Q151.443 863.291 155.054 863.291 Q158.688 863.291 160.494 859.749 Q162.323 856.185 162.323 849.078 Q162.323 841.949 160.494 838.407 Q158.688 834.842 155.054 834.842 M155.054 831.138 Q160.864 831.138 163.92 835.745 Q166.999 840.328 166.999 849.078 Q166.999 857.805 163.92 862.411 Q160.864 866.995 155.054 866.995 Q149.244 866.995 146.165 862.411 Q143.11 857.805 143.11 849.078 Q143.11 840.328 146.165 835.745 Q149.244 831.138 155.054 831.138 Z" fill="#000000" fill-rule="nonzero" fill-opacity="1"></path><path clip-path="url(#clip090)" d="M166.999 825.24 L191.11 825.24 L191.11 828.437 L166.999 828.437 L166.999 825.24 Z" fill="#000000" fill-rule="nonzero" fill-opacity="1"></path><path clip-path="url(#clip090)" d="M202.583 835.716 L215.842 835.716 L215.842 838.913 L198.013 838.913 L198.013 835.716 Q200.175 833.478 203.899 829.716 Q207.642 825.936 208.601 824.845 Q210.426 822.795 211.14 821.384 Q211.874 819.955 211.874 818.582 Q211.874 816.344 210.294 814.933 Q208.733 813.523 206.213 813.523 Q204.426 813.523 202.432 814.143 Q200.458 814.764 198.201 816.024 L198.201 812.187 Q200.495 811.266 202.489 810.795 Q204.482 810.325 206.138 810.325 Q210.501 810.325 213.096 812.507 Q215.692 814.689 215.692 818.337 Q215.692 820.068 215.034 821.629 Q214.394 823.171 212.683 825.277 Q212.212 825.823 209.692 828.437 Q207.172 831.033 202.583 835.716 Z" fill="#000000" fill-rule="nonzero" fill-opacity="1"></path><path clip-path="url(#clip090)" d="M115.402 406.854 L123.04 406.854 L123.04 380.488 L114.73 382.155 L114.73 377.895 L122.994 376.229 L127.67 376.229 L127.67 406.854 L135.309 406.854 L135.309 410.789 L115.402 410.789 L115.402 406.854 Z" fill="#000000" fill-rule="nonzero" fill-opacity="1"></path><path clip-path="url(#clip090)" d="M154.753 379.307 Q151.142 379.307 149.313 382.872 Q147.508 386.414 147.508 393.543 Q147.508 400.65 149.313 404.215 Q151.142 407.756 154.753 407.756 Q158.388 407.756 160.193 404.215 Q162.022 400.65 162.022 393.543 Q162.022 386.414 160.193 382.872 Q158.388 379.307 154.753 379.307 M154.753 375.604 Q160.563 375.604 163.619 380.21 Q166.698 384.793 166.698 393.543 Q166.698 402.27 163.619 406.877 Q160.563 411.46 154.753 411.46 Q148.943 411.46 145.864 406.877 Q142.809 402.27 142.809 393.543 Q142.809 384.793 145.864 380.21 Q148.943 375.604 154.753 375.604 Z" fill="#000000" fill-rule="nonzero" fill-opacity="1"></path><path clip-path="url(#clip090)" d="M166.698 369.705 L190.809 369.705 L190.809 372.902 L166.698 372.902 L166.698 369.705 Z" fill="#000000" fill-rule="nonzero" fill-opacity="1"></path><path clip-path="url(#clip090)" d="M199.668 380.181 L205.874 380.181 L205.874 358.759 L199.122 360.113 L199.122 356.652 L205.837 355.298 L209.636 355.298 L209.636 380.181 L215.842 380.181 L215.842 383.378 L199.668 383.378 L199.668 380.181 Z" fill="#000000" fill-rule="nonzero" fill-opacity="1"></path><path clip-path="url(#clip090)" d="M33.7671 754.581 L14.479 754.581 L14.479 748.724 L64.0042 748.724 L64.0042 754.581 L58.657 754.581 Q61.8398 756.427 63.3994 759.26 Q64.9272 762.061 64.9272 766.007 Q64.9272 772.469 59.771 776.543 Q54.6147 780.585 46.212 780.585 Q37.8093 780.585 32.6531 776.543 Q27.4968 772.469 27.4968 766.007 Q27.4968 762.061 29.0564 759.26 Q30.5842 756.427 33.7671 754.581 M46.212 774.537 Q52.6732 774.537 56.3653 771.896 Q60.0256 769.222 60.0256 764.575 Q60.0256 759.928 56.3653 757.255 Q52.6732 754.581 46.212 754.581 Q39.7508 754.581 36.0905 757.255 Q32.3984 759.928 32.3984 764.575 Q32.3984 769.222 36.0905 771.896 Q39.7508 774.537 46.212 774.537 Z" fill="#000000" fill-rule="nonzero" fill-opacity="1"></path><path clip-path="url(#clip090)" d="M28.3562 736.661 L28.3562 730.805 L64.0042 730.805 L64.0042 736.661 L28.3562 736.661 M14.479 736.661 L14.479 730.805 L21.895 730.805 L21.895 736.661 L14.479 736.661 Z" fill="#000000" fill-rule="nonzero" fill-opacity="1"></path><path clip-path="url(#clip090)" d="M14.479 700.504 L19.3487 700.504 L19.3487 706.106 Q19.3487 709.257 20.6219 710.498 Q21.895 711.708 25.2052 711.708 L28.3562 711.708 L28.3562 702.064 L32.9077 702.064 L32.9077 711.708 L64.0042 711.708 L64.0042 717.596 L32.9077 717.596 L32.9077 723.198 L28.3562 723.198 L28.3562 717.596 L25.8736 717.596 Q19.9216 717.596 17.2162 714.827 Q14.479 712.058 14.479 706.042 L14.479 700.504 Z" fill="#000000" fill-rule="nonzero" fill-opacity="1"></path><path clip-path="url(#clip090)" d="M14.479 677.556 L19.3487 677.556 L19.3487 683.158 Q19.3487 686.309 20.6219 687.55 Q21.895 688.76 25.2052 688.76 L28.3562 688.76 L28.3562 679.115 L32.9077 679.115 L32.9077 688.76 L64.0042 688.76 L64.0042 694.648 L32.9077 694.648 L32.9077 700.25 L28.3562 700.25 L28.3562 694.648 L25.8736 694.648 Q19.9216 694.648 17.2162 691.879 Q14.479 689.11 14.479 683.094 L14.479 677.556 Z" fill="#000000" fill-rule="nonzero" fill-opacity="1"></path><polyline clip-path="url(#clip092)" style="stroke:#009af9; stroke-linecap:round; stroke-linejoin:round; stroke-width:4; stroke-opacity:1; fill:none" points="311.302,85.838 707.701,322.758 1104.1,850.823 1500.5,1344.1 1896.9,990.819 2293.3,1372.3 "></polyline>
<path clip-path="url(#clip090)" d="M1997.7 196.379 L2282.73 196.379 L2282.73 92.6992 L1997.7 92.6992  Z" fill="#ffffff" fill-rule="evenodd" fill-opacity="1"></path>
<polyline clip-path="url(#clip090)" style="stroke:#000000; stroke-linecap:round; stroke-linejoin:round; stroke-width:4; stroke-opacity:1; fill:none" points="1997.7,196.379 2282.73,196.379 2282.73,92.6992 1997.7,92.6992 1997.7,196.379 "></polyline>
<polyline clip-path="url(#clip090)" style="stroke:#009af9; stroke-linecap:round; stroke-linejoin:round; stroke-width:4; stroke-opacity:1; fill:none" points="2021.05,144.539 2161.11,144.539 "></polyline>
<path clip-path="url(#clip090)" d="M2203.36 139.829 L2203.36 125.801 L2207.62 125.801 L2207.62 161.819 L2203.36 161.819 L2203.36 157.93 Q2202.02 160.245 2199.96 161.379 Q2197.92 162.49 2195.05 162.49 Q2190.35 162.49 2187.39 158.74 Q2184.45 154.991 2184.45 148.879 Q2184.45 142.768 2187.39 139.018 Q2190.35 135.268 2195.05 135.268 Q2197.92 135.268 2199.96 136.403 Q2202.02 137.514 2203.36 139.829 M2188.85 148.879 Q2188.85 153.578 2190.77 156.264 Q2192.72 158.926 2196.1 158.926 Q2199.47 158.926 2201.42 156.264 Q2203.36 153.578 2203.36 148.879 Q2203.36 144.18 2201.42 141.518 Q2199.47 138.833 2196.1 138.833 Q2192.72 138.833 2190.77 141.518 Q2188.85 144.18 2188.85 148.879 Z" fill="#000000" fill-rule="nonzero" fill-opacity="1"></path><path clip-path="url(#clip090)" d="M2216.4 135.893 L2220.66 135.893 L2220.66 161.819 L2216.4 161.819 L2216.4 135.893 M2216.4 125.801 L2220.66 125.801 L2220.66 131.194 L2216.4 131.194 L2216.4 125.801 Z" fill="#000000" fill-rule="nonzero" fill-opacity="1"></path><path clip-path="url(#clip090)" d="M2242.69 125.801 L2242.69 129.343 L2238.62 129.343 Q2236.33 129.343 2235.42 130.268 Q2234.54 131.194 2234.54 133.602 L2234.54 135.893 L2241.56 135.893 L2241.56 139.204 L2234.54 139.204 L2234.54 161.819 L2230.26 161.819 L2230.26 139.204 L2226.19 139.204 L2226.19 135.893 L2230.26 135.893 L2230.26 134.088 Q2230.26 129.759 2232.28 127.792 Q2234.29 125.801 2238.66 125.801 L2242.69 125.801 Z" fill="#000000" fill-rule="nonzero" fill-opacity="1"></path><path clip-path="url(#clip090)" d="M2259.38 125.801 L2259.38 129.343 L2255.31 129.343 Q2253.02 129.343 2252.11 130.268 Q2251.23 131.194 2251.23 133.602 L2251.23 135.893 L2258.25 135.893 L2258.25 139.204 L2251.23 139.204 L2251.23 161.819 L2246.95 161.819 L2246.95 139.204 L2242.88 139.204 L2242.88 135.893 L2246.95 135.893 L2246.95 134.088 Q2246.95 129.759 2248.97 127.792 Q2250.98 125.801 2255.35 125.801 L2259.38 125.801 Z" fill="#000000" fill-rule="nonzero" fill-opacity="1"></path></svg>
