<svg xmlns="http://www.w3.org/2000/svg" xmlns:xlink="http://www.w3.org/1999/xlink" width="600" height="400" viewBox="0 0 2400 1600">
<defs>
  <clipPath id="clip510">
    <rect x="0" y="0" width="2400" height="1600"></rect>
  </clipPath>
</defs>
<path clip-path="url(#clip510)" d="M0 1600 L2400 1600 L2400 0 L0 0  Z" fill="#ffffff" fill-rule="evenodd" fill-opacity="1"></path>
<defs>
  <clipPath id="clip511">
    <rect x="480" y="0" width="1681" height="1600"></rect>
  </clipPath>
</defs>
<path clip-path="url(#clip510)" d="M256.209 1423.18 L2352.76 1423.18 L2352.76 47.2441 L256.209 47.2441  Z" fill="#ffffff" fill-rule="evenodd" fill-opacity="1"></path>
<defs>
  <clipPath id="clip512">
    <rect x="256" y="47" width="2098" height="1377"></rect>
  </clipPath>
</defs>
<polyline clip-path="url(#clip512)" style="stroke:#000000; stroke-linecap:round; stroke-linejoin:round; stroke-width:2; stroke-opacity:0.1; fill:none" points="315.545,1423.18 315.545,47.2441 "></polyline>
<polyline clip-path="url(#clip512)" style="stroke:#000000; stroke-linecap:round; stroke-linejoin:round; stroke-width:2; stroke-opacity:0.1; fill:none" points="711.12,1423.18 711.12,47.2441 "></polyline>
<polyline clip-path="url(#clip512)" style="stroke:#000000; stroke-linecap:round; stroke-linejoin:round; stroke-width:2; stroke-opacity:0.1; fill:none" points="1106.69,1423.18 1106.69,47.2441 "></polyline>
<polyline clip-path="url(#clip512)" style="stroke:#000000; stroke-linecap:round; stroke-linejoin:round; stroke-width:2; stroke-opacity:0.1; fill:none" points="1502.27,1423.18 1502.27,47.2441 "></polyline>
<polyline clip-path="url(#clip512)" style="stroke:#000000; stroke-linecap:round; stroke-linejoin:round; stroke-width:2; stroke-opacity:0.1; fill:none" points="1897.84,1423.18 1897.84,47.2441 "></polyline>
<polyline clip-path="url(#clip512)" style="stroke:#000000; stroke-linecap:round; stroke-linejoin:round; stroke-width:2; stroke-opacity:0.1; fill:none" points="2293.42,1423.18 2293.42,47.2441 "></polyline>
<polyline clip-path="url(#clip510)" style="stroke:#000000; stroke-linecap:round; stroke-linejoin:round; stroke-width:4; stroke-opacity:1; fill:none" points="256.209,1423.18 2352.76,1423.18 "></polyline>
<polyline clip-path="url(#clip510)" style="stroke:#000000; stroke-linecap:round; stroke-linejoin:round; stroke-width:4; stroke-opacity:1; fill:none" points="315.545,1423.18 315.545,1404.28 "></polyline>
<polyline clip-path="url(#clip510)" style="stroke:#000000; stroke-linecap:round; stroke-linejoin:round; stroke-width:4; stroke-opacity:1; fill:none" points="711.12,1423.18 711.12,1404.28 "></polyline>
<polyline clip-path="url(#clip510)" style="stroke:#000000; stroke-linecap:round; stroke-linejoin:round; stroke-width:4; stroke-opacity:1; fill:none" points="1106.69,1423.18 1106.69,1404.28 "></polyline>
<polyline clip-path="url(#clip510)" style="stroke:#000000; stroke-linecap:round; stroke-linejoin:round; stroke-width:4; stroke-opacity:1; fill:none" points="1502.27,1423.18 1502.27,1404.28 "></polyline>
<polyline clip-path="url(#clip510)" style="stroke:#000000; stroke-linecap:round; stroke-linejoin:round; stroke-width:4; stroke-opacity:1; fill:none" points="1897.84,1423.18 1897.84,1404.28 "></polyline>
<polyline clip-path="url(#clip510)" style="stroke:#000000; stroke-linecap:round; stroke-linejoin:round; stroke-width:4; stroke-opacity:1; fill:none" points="2293.42,1423.18 2293.42,1404.28 "></polyline>
<path clip-path="url(#clip510)" d="M262.571 1468.75 L292.246 1468.75 L292.246 1472.69 L262.571 1472.69 L262.571 1468.75 Z" fill="#000000" fill-rule="nonzero" fill-opacity="1"></path><path clip-path="url(#clip510)" d="M312.339 1454.1 Q308.728 1454.1 306.899 1457.66 Q305.094 1461.2 305.094 1468.33 Q305.094 1475.44 306.899 1479.01 Q308.728 1482.55 312.339 1482.55 Q315.973 1482.55 317.779 1479.01 Q319.607 1475.44 319.607 1468.33 Q319.607 1461.2 317.779 1457.66 Q315.973 1454.1 312.339 1454.1 M312.339 1450.39 Q318.149 1450.39 321.205 1455 Q324.283 1459.58 324.283 1468.33 Q324.283 1477.06 321.205 1481.67 Q318.149 1486.25 312.339 1486.25 Q306.529 1486.25 303.45 1481.67 Q300.395 1477.06 300.395 1468.33 Q300.395 1459.58 303.45 1455 Q306.529 1450.39 312.339 1450.39 Z" fill="#000000" fill-rule="nonzero" fill-opacity="1"></path><path clip-path="url(#clip510)" d="M332.501 1479.7 L337.385 1479.7 L337.385 1485.58 L332.501 1485.58 L332.501 1479.7 Z" fill="#000000" fill-rule="nonzero" fill-opacity="1"></path><path clip-path="url(#clip510)" d="M347.616 1451.02 L365.973 1451.02 L365.973 1454.96 L351.899 1454.96 L351.899 1463.43 Q352.917 1463.08 353.936 1462.92 Q354.954 1462.73 355.973 1462.73 Q361.76 1462.73 365.14 1465.9 Q368.519 1469.08 368.519 1474.49 Q368.519 1480.07 365.047 1483.17 Q361.575 1486.25 355.255 1486.25 Q353.079 1486.25 350.811 1485.88 Q348.566 1485.51 346.158 1484.77 L346.158 1480.07 Q348.241 1481.2 350.464 1481.76 Q352.686 1482.32 355.163 1482.32 Q359.167 1482.32 361.505 1480.21 Q363.843 1478.1 363.843 1474.49 Q363.843 1470.88 361.505 1468.77 Q359.167 1466.67 355.163 1466.67 Q353.288 1466.67 351.413 1467.08 Q349.561 1467.5 347.616 1468.38 L347.616 1451.02 Z" fill="#000000" fill-rule="nonzero" fill-opacity="1"></path><path clip-path="url(#clip510)" d="M688.504 1454.1 Q684.893 1454.1 683.064 1457.66 Q681.259 1461.2 681.259 1468.33 Q681.259 1475.44 683.064 1479.01 Q684.893 1482.55 688.504 1482.55 Q692.138 1482.55 693.944 1479.01 Q695.773 1475.44 695.773 1468.33 Q695.773 1461.2 693.944 1457.66 Q692.138 1454.1 688.504 1454.1 M688.504 1450.39 Q694.314 1450.39 697.37 1455 Q700.449 1459.58 700.449 1468.33 Q700.449 1477.06 697.37 1481.67 Q694.314 1486.25 688.504 1486.25 Q682.694 1486.25 679.615 1481.67 Q676.56 1477.06 676.56 1468.33 Q676.56 1459.58 679.615 1455 Q682.694 1450.39 688.504 1450.39 Z" fill="#000000" fill-rule="nonzero" fill-opacity="1"></path><path clip-path="url(#clip510)" d="M708.666 1479.7 L713.55 1479.7 L713.55 1485.58 L708.666 1485.58 L708.666 1479.7 Z" fill="#000000" fill-rule="nonzero" fill-opacity="1"></path><path clip-path="url(#clip510)" d="M733.735 1454.1 Q730.124 1454.1 728.296 1457.66 Q726.49 1461.2 726.49 1468.33 Q726.49 1475.44 728.296 1479.01 Q730.124 1482.55 733.735 1482.55 Q737.37 1482.55 739.175 1479.01 Q741.004 1475.44 741.004 1468.33 Q741.004 1461.2 739.175 1457.66 Q737.37 1454.1 733.735 1454.1 M733.735 1450.39 Q739.546 1450.39 742.601 1455 Q745.68 1459.58 745.68 1468.33 Q745.68 1477.06 742.601 1481.67 Q739.546 1486.25 733.735 1486.25 Q727.925 1486.25 724.847 1481.67 Q721.791 1477.06 721.791 1468.33 Q721.791 1459.58 724.847 1455 Q727.925 1450.39 733.735 1450.39 Z" fill="#000000" fill-rule="nonzero" fill-opacity="1"></path><path clip-path="url(#clip510)" d="M1084.58 1454.1 Q1080.97 1454.1 1079.14 1457.66 Q1077.33 1461.2 1077.33 1468.33 Q1077.33 1475.44 1079.14 1479.01 Q1080.97 1482.55 1084.58 1482.55 Q1088.21 1482.55 1090.02 1479.01 Q1091.85 1475.44 1091.85 1468.33 Q1091.85 1461.2 1090.02 1457.66 Q1088.21 1454.1 1084.58 1454.1 M1084.58 1450.39 Q1090.39 1450.39 1093.44 1455 Q1096.52 1459.58 1096.52 1468.33 Q1096.52 1477.06 1093.44 1481.67 Q1090.39 1486.25 1084.58 1486.25 Q1078.77 1486.25 1075.69 1481.67 Q1072.63 1477.06 1072.63 1468.33 Q1072.63 1459.58 1075.69 1455 Q1078.77 1450.39 1084.58 1450.39 Z" fill="#000000" fill-rule="nonzero" fill-opacity="1"></path><path clip-path="url(#clip510)" d="M1104.74 1479.7 L1109.62 1479.7 L1109.62 1485.58 L1104.74 1485.58 L1104.74 1479.7 Z" fill="#000000" fill-rule="nonzero" fill-opacity="1"></path><path clip-path="url(#clip510)" d="M1119.85 1451.02 L1138.21 1451.02 L1138.21 1454.96 L1124.14 1454.96 L1124.14 1463.43 Q1125.16 1463.08 1126.17 1462.92 Q1127.19 1462.73 1128.21 1462.73 Q1134 1462.73 1137.38 1465.9 Q1140.76 1469.08 1140.76 1474.49 Q1140.76 1480.07 1137.28 1483.17 Q1133.81 1486.25 1127.49 1486.25 Q1125.32 1486.25 1123.05 1485.88 Q1120.8 1485.51 1118.4 1484.77 L1118.4 1480.07 Q1120.48 1481.2 1122.7 1481.76 Q1124.92 1482.32 1127.4 1482.32 Q1131.41 1482.32 1133.74 1480.21 Q1136.08 1478.1 1136.08 1474.49 Q1136.08 1470.88 1133.74 1468.77 Q1131.41 1466.67 1127.4 1466.67 Q1125.53 1466.67 1123.65 1467.08 Q1121.8 1467.5 1119.85 1468.38 L1119.85 1451.02 Z" fill="#000000" fill-rule="nonzero" fill-opacity="1"></path><path clip-path="url(#clip510)" d="M1469.42 1481.64 L1477.06 1481.64 L1477.06 1455.28 L1468.75 1456.95 L1468.75 1452.69 L1477.02 1451.02 L1481.69 1451.02 L1481.69 1481.64 L1489.33 1481.64 L1489.33 1485.58 L1469.42 1485.58 L1469.42 1481.64 Z" fill="#000000" fill-rule="nonzero" fill-opacity="1"></path><path clip-path="url(#clip510)" d="M1498.77 1479.7 L1503.66 1479.7 L1503.66 1485.58 L1498.77 1485.58 L1498.77 1479.7 Z" fill="#000000" fill-rule="nonzero" fill-opacity="1"></path><path clip-path="url(#clip510)" d="M1523.84 1454.1 Q1520.23 1454.1 1518.4 1457.66 Q1516.6 1461.2 1516.6 1468.33 Q1516.6 1475.44 1518.4 1479.01 Q1520.23 1482.55 1523.84 1482.55 Q1527.48 1482.55 1529.28 1479.01 Q1531.11 1475.44 1531.11 1468.33 Q1531.11 1461.2 1529.28 1457.66 Q1527.48 1454.1 1523.84 1454.1 M1523.84 1450.39 Q1529.65 1450.39 1532.71 1455 Q1535.79 1459.58 1535.79 1468.33 Q1535.79 1477.06 1532.71 1481.67 Q1529.65 1486.25 1523.84 1486.25 Q1518.03 1486.25 1514.95 1481.67 Q1511.9 1477.06 1511.9 1468.33 Q1511.9 1459.58 1514.95 1455 Q1518.03 1450.39 1523.84 1450.39 Z" fill="#000000" fill-rule="nonzero" fill-opacity="1"></path><path clip-path="url(#clip510)" d="M1865.5 1481.64 L1873.13 1481.64 L1873.13 1455.28 L1864.82 1456.95 L1864.82 1452.69 L1873.09 1451.02 L1877.76 1451.02 L1877.76 1481.64 L1885.4 1481.64 L1885.4 1485.58 L1865.5 1485.58 L1865.5 1481.64 Z" fill="#000000" fill-rule="nonzero" fill-opacity="1"></path><path clip-path="url(#clip510)" d="M1894.85 1479.7 L1899.73 1479.7 L1899.73 1485.58 L1894.85 1485.58 L1894.85 1479.7 Z" fill="#000000" fill-rule="nonzero" fill-opacity="1"></path><path clip-path="url(#clip510)" d="M1909.96 1451.02 L1928.32 1451.02 L1928.32 1454.96 L1914.25 1454.96 L1914.25 1463.43 Q1915.26 1463.08 1916.28 1462.92 Q1917.3 1462.73 1918.32 1462.73 Q1924.11 1462.73 1927.49 1465.9 Q1930.87 1469.08 1930.87 1474.49 Q1930.87 1480.07 1927.39 1483.17 Q1923.92 1486.25 1917.6 1486.25 Q1915.43 1486.25 1913.16 1485.88 Q1910.91 1485.51 1908.5 1484.77 L1908.5 1480.07 Q1910.59 1481.2 1912.81 1481.76 Q1915.03 1482.32 1917.51 1482.32 Q1921.51 1482.32 1923.85 1480.21 Q1926.19 1478.1 1926.19 1474.49 Q1926.19 1470.88 1923.85 1468.77 Q1921.51 1466.67 1917.51 1466.67 Q1915.63 1466.67 1913.76 1467.08 Q1911.91 1467.5 1909.96 1468.38 L1909.96 1451.02 Z" fill="#000000" fill-rule="nonzero" fill-opacity="1"></path><path clip-path="url(#clip510)" d="M2264.66 1481.64 L2280.98 1481.64 L2280.98 1485.58 L2259.03 1485.58 L2259.03 1481.64 Q2261.7 1478.89 2266.28 1474.26 Q2270.89 1469.61 2272.07 1468.27 Q2274.31 1465.74 2275.19 1464.01 Q2276.09 1462.25 2276.09 1460.56 Q2276.09 1457.8 2274.15 1456.07 Q2272.23 1454.33 2269.13 1454.33 Q2266.93 1454.33 2264.47 1455.09 Q2262.04 1455.86 2259.26 1457.41 L2259.26 1452.69 Q2262.09 1451.55 2264.54 1450.97 Q2267 1450.39 2269.03 1450.39 Q2274.4 1450.39 2277.6 1453.08 Q2280.79 1455.77 2280.79 1460.26 Q2280.79 1462.39 2279.98 1464.31 Q2279.2 1466.2 2277.09 1468.8 Q2276.51 1469.47 2273.41 1472.69 Q2270.31 1475.88 2264.66 1481.64 Z" fill="#000000" fill-rule="nonzero" fill-opacity="1"></path><path clip-path="url(#clip510)" d="M2290.79 1479.7 L2295.68 1479.7 L2295.68 1485.58 L2290.79 1485.58 L2290.79 1479.7 Z" fill="#000000" fill-rule="nonzero" fill-opacity="1"></path><path clip-path="url(#clip510)" d="M2315.86 1454.1 Q2312.25 1454.1 2310.42 1457.66 Q2308.62 1461.2 2308.62 1468.33 Q2308.62 1475.44 2310.42 1479.01 Q2312.25 1482.55 2315.86 1482.55 Q2319.5 1482.55 2321.3 1479.01 Q2323.13 1475.44 2323.13 1468.33 Q2323.13 1461.2 2321.3 1457.66 Q2319.5 1454.1 2315.86 1454.1 M2315.86 1450.39 Q2321.67 1450.39 2324.73 1455 Q2327.81 1459.58 2327.81 1468.33 Q2327.81 1477.06 2324.73 1481.67 Q2321.67 1486.25 2315.86 1486.25 Q2310.05 1486.25 2306.97 1481.67 Q2303.92 1477.06 2303.92 1468.33 Q2303.92 1459.58 2306.97 1455 Q2310.05 1450.39 2315.86 1450.39 Z" fill="#000000" fill-rule="nonzero" fill-opacity="1"></path><path clip-path="url(#clip510)" d="M1263.01 1545.76 Q1265.08 1546.46 1267.02 1548.76 Q1268.99 1551.05 1270.97 1555.06 L1277.49 1568.04 L1270.58 1568.04 L1264.51 1555.85 Q1262.15 1551.08 1259.92 1549.52 Q1257.73 1547.96 1253.91 1547.96 L1246.9 1547.96 L1246.9 1568.04 L1240.48 1568.04 L1240.48 1520.52 L1254.99 1520.52 Q1263.14 1520.52 1267.15 1523.93 Q1271.16 1527.34 1271.16 1534.21 Q1271.16 1538.7 1269.06 1541.66 Q1266.99 1544.62 1263.01 1545.76 M1246.9 1525.81 L1246.9 1542.68 L1254.99 1542.68 Q1259.64 1542.68 1261.99 1540.54 Q1264.38 1538.38 1264.38 1534.21 Q1264.38 1530.04 1261.99 1527.94 Q1259.64 1525.81 1254.99 1525.81 L1246.9 1525.81 Z" fill="#000000" fill-rule="nonzero" fill-opacity="1"></path><path clip-path="url(#clip510)" d="M1313.08 1548.76 L1313.08 1551.62 L1286.15 1551.62 Q1286.53 1557.67 1289.78 1560.85 Q1293.06 1564 1298.88 1564 Q1302.25 1564 1305.41 1563.17 Q1308.59 1562.35 1311.71 1560.69 L1311.71 1566.23 Q1308.56 1567.57 1305.25 1568.27 Q1301.94 1568.97 1298.53 1568.97 Q1290 1568.97 1285 1564 Q1280.04 1559.04 1280.04 1550.57 Q1280.04 1541.82 1284.75 1536.69 Q1289.49 1531.54 1297.51 1531.54 Q1304.71 1531.54 1308.87 1536.18 Q1313.08 1540.8 1313.08 1548.76 M1307.22 1547.04 Q1307.16 1542.23 1304.51 1539.37 Q1301.9 1536.5 1297.58 1536.5 Q1292.67 1536.5 1289.71 1539.27 Q1286.79 1542.04 1286.34 1547.07 L1307.22 1547.04 Z" fill="#000000" fill-rule="nonzero" fill-opacity="1"></path><path clip-path="url(#clip510)" d="M1338.89 1550.12 Q1331.79 1550.12 1329.05 1551.75 Q1326.32 1553.37 1326.32 1557.29 Q1326.32 1560.4 1328.35 1562.25 Q1330.42 1564.07 1333.96 1564.07 Q1338.83 1564.07 1341.75 1560.63 Q1344.71 1557.16 1344.71 1551.43 L1344.71 1550.12 L1338.89 1550.12 M1350.57 1547.71 L1350.57 1568.04 L1344.71 1568.04 L1344.71 1562.63 Q1342.71 1565.88 1339.72 1567.44 Q1336.72 1568.97 1332.4 1568.97 Q1326.92 1568.97 1323.67 1565.91 Q1320.46 1562.82 1320.46 1557.67 Q1320.46 1551.65 1324.47 1548.6 Q1328.51 1545.54 1336.5 1545.54 L1344.71 1545.54 L1344.71 1544.97 Q1344.71 1540.93 1342.04 1538.73 Q1339.4 1536.5 1334.59 1536.5 Q1331.54 1536.5 1328.64 1537.23 Q1325.74 1537.97 1323.07 1539.43 L1323.07 1534.02 Q1326.28 1532.78 1329.31 1532.17 Q1332.33 1531.54 1335.2 1531.54 Q1342.93 1531.54 1346.75 1535.55 Q1350.57 1539.56 1350.57 1547.71 Z" fill="#000000" fill-rule="nonzero" fill-opacity="1"></path><path clip-path="url(#clip510)" d="M1362.63 1518.52 L1368.49 1518.52 L1368.49 1568.04 L1362.63 1568.04 L1362.63 1518.52 Z" fill="#000000" fill-rule="nonzero" fill-opacity="1"></path><polyline clip-path="url(#clip512)" style="stroke:#000000; stroke-linecap:round; stroke-linejoin:round; stroke-width:2; stroke-opacity:0.1; fill:none" points="256.209,1218.46 2352.76,1218.46 "></polyline>
<polyline clip-path="url(#clip512)" style="stroke:#000000; stroke-linecap:round; stroke-linejoin:round; stroke-width:2; stroke-opacity:0.1; fill:none" points="256.209,992.006 2352.76,992.006 "></polyline>
<polyline clip-path="url(#clip512)" style="stroke:#000000; stroke-linecap:round; stroke-linejoin:round; stroke-width:2; stroke-opacity:0.1; fill:none" points="256.209,765.551 2352.76,765.551 "></polyline>
<polyline clip-path="url(#clip512)" style="stroke:#000000; stroke-linecap:round; stroke-linejoin:round; stroke-width:2; stroke-opacity:0.1; fill:none" points="256.209,539.096 2352.76,539.096 "></polyline>
<polyline clip-path="url(#clip512)" style="stroke:#000000; stroke-linecap:round; stroke-linejoin:round; stroke-width:2; stroke-opacity:0.1; fill:none" points="256.209,312.641 2352.76,312.641 "></polyline>
<polyline clip-path="url(#clip512)" style="stroke:#000000; stroke-linecap:round; stroke-linejoin:round; stroke-width:2; stroke-opacity:0.1; fill:none" points="256.209,86.1857 2352.76,86.1857 "></polyline>
<polyline clip-path="url(#clip510)" style="stroke:#000000; stroke-linecap:round; stroke-linejoin:round; stroke-width:4; stroke-opacity:1; fill:none" points="256.209,1423.18 256.209,47.2441 "></polyline>
<polyline clip-path="url(#clip510)" style="stroke:#000000; stroke-linecap:round; stroke-linejoin:round; stroke-width:4; stroke-opacity:1; fill:none" points="256.209,1218.46 275.106,1218.46 "></polyline>
<polyline clip-path="url(#clip510)" style="stroke:#000000; stroke-linecap:round; stroke-linejoin:round; stroke-width:4; stroke-opacity:1; fill:none" points="256.209,992.006 275.106,992.006 "></polyline>
<polyline clip-path="url(#clip510)" style="stroke:#000000; stroke-linecap:round; stroke-linejoin:round; stroke-width:4; stroke-opacity:1; fill:none" points="256.209,765.551 275.106,765.551 "></polyline>
<polyline clip-path="url(#clip510)" style="stroke:#000000; stroke-linecap:round; stroke-linejoin:round; stroke-width:4; stroke-opacity:1; fill:none" points="256.209,539.096 275.106,539.096 "></polyline>
<polyline clip-path="url(#clip510)" style="stroke:#000000; stroke-linecap:round; stroke-linejoin:round; stroke-width:4; stroke-opacity:1; fill:none" points="256.209,312.641 275.106,312.641 "></polyline>
<polyline clip-path="url(#clip510)" style="stroke:#000000; stroke-linecap:round; stroke-linejoin:round; stroke-width:4; stroke-opacity:1; fill:none" points="256.209,86.1857 275.106,86.1857 "></polyline>
<path clip-path="url(#clip510)" d="M114.26 1218.91 L143.936 1218.91 L143.936 1222.85 L114.26 1222.85 L114.26 1218.91 Z" fill="#000000" fill-rule="nonzero" fill-opacity="1"></path><path clip-path="url(#clip510)" d="M164.028 1204.26 Q160.417 1204.26 158.589 1207.83 Q156.783 1211.37 156.783 1218.5 Q156.783 1225.6 158.589 1229.17 Q160.417 1232.71 164.028 1232.71 Q167.663 1232.71 169.468 1229.17 Q171.297 1225.6 171.297 1218.5 Q171.297 1211.37 169.468 1207.83 Q167.663 1204.26 164.028 1204.26 M164.028 1200.56 Q169.839 1200.56 172.894 1205.16 Q175.973 1209.75 175.973 1218.5 Q175.973 1227.22 172.894 1231.83 Q169.839 1236.41 164.028 1236.41 Q158.218 1236.41 155.14 1231.83 Q152.084 1227.22 152.084 1218.5 Q152.084 1209.75 155.14 1205.16 Q158.218 1200.56 164.028 1200.56 Z" fill="#000000" fill-rule="nonzero" fill-opacity="1"></path><path clip-path="url(#clip510)" d="M184.19 1229.86 L189.075 1229.86 L189.075 1235.74 L184.19 1235.74 L184.19 1229.86 Z" fill="#000000" fill-rule="nonzero" fill-opacity="1"></path><path clip-path="url(#clip510)" d="M199.306 1201.18 L217.662 1201.18 L217.662 1205.12 L203.588 1205.12 L203.588 1213.59 Q204.607 1213.24 205.625 1213.08 Q206.644 1212.89 207.662 1212.89 Q213.449 1212.89 216.829 1216.07 Q220.209 1219.24 220.209 1224.65 Q220.209 1230.23 216.736 1233.33 Q213.264 1236.41 206.945 1236.41 Q204.769 1236.41 202.5 1236.04 Q200.255 1235.67 197.848 1234.93 L197.848 1230.23 Q199.931 1231.37 202.153 1231.92 Q204.375 1232.48 206.852 1232.48 Q210.857 1232.48 213.195 1230.37 Q215.533 1228.26 215.533 1224.65 Q215.533 1221.04 213.195 1218.94 Q210.857 1216.83 206.852 1216.83 Q204.977 1216.83 203.102 1217.25 Q201.25 1217.66 199.306 1218.54 L199.306 1201.18 Z" fill="#000000" fill-rule="nonzero" fill-opacity="1"></path><path clip-path="url(#clip510)" d="M163.033 977.805 Q159.422 977.805 157.593 981.37 Q155.788 984.912 155.788 992.041 Q155.788 999.148 157.593 1002.71 Q159.422 1006.25 163.033 1006.25 Q166.667 1006.25 168.473 1002.71 Q170.302 999.148 170.302 992.041 Q170.302 984.912 168.473 981.37 Q166.667 977.805 163.033 977.805 M163.033 974.101 Q168.843 974.101 171.899 978.708 Q174.977 983.291 174.977 992.041 Q174.977 1000.77 171.899 1005.37 Q168.843 1009.96 163.033 1009.96 Q157.223 1009.96 154.144 1005.37 Q151.089 1000.77 151.089 992.041 Q151.089 983.291 154.144 978.708 Q157.223 974.101 163.033 974.101 Z" fill="#000000" fill-rule="nonzero" fill-opacity="1"></path><path clip-path="url(#clip510)" d="M183.195 1003.41 L188.079 1003.41 L188.079 1009.29 L183.195 1009.29 L183.195 1003.41 Z" fill="#000000" fill-rule="nonzero" fill-opacity="1"></path><path clip-path="url(#clip510)" d="M208.264 977.805 Q204.653 977.805 202.824 981.37 Q201.019 984.912 201.019 992.041 Q201.019 999.148 202.824 1002.71 Q204.653 1006.25 208.264 1006.25 Q211.899 1006.25 213.704 1002.71 Q215.533 999.148 215.533 992.041 Q215.533 984.912 213.704 981.37 Q211.899 977.805 208.264 977.805 M208.264 974.101 Q214.074 974.101 217.13 978.708 Q220.209 983.291 220.209 992.041 Q220.209 1000.77 217.13 1005.37 Q214.074 1009.96 208.264 1009.96 Q202.454 1009.96 199.375 1005.37 Q196.32 1000.77 196.32 992.041 Q196.32 983.291 199.375 978.708 Q202.454 974.101 208.264 974.101 Z" fill="#000000" fill-rule="nonzero" fill-opacity="1"></path><path clip-path="url(#clip510)" d="M164.028 751.35 Q160.417 751.35 158.589 754.915 Q156.783 758.456 156.783 765.586 Q156.783 772.692 158.589 776.257 Q160.417 779.799 164.028 779.799 Q167.663 779.799 169.468 776.257 Q171.297 772.692 171.297 765.586 Q171.297 758.456 169.468 754.915 Q167.663 751.35 164.028 751.35 M164.028 747.646 Q169.839 747.646 172.894 752.253 Q175.973 756.836 175.973 765.586 Q175.973 774.313 172.894 778.919 Q169.839 783.503 164.028 783.503 Q158.218 783.503 155.14 778.919 Q152.084 774.313 152.084 765.586 Q152.084 756.836 155.14 752.253 Q158.218 747.646 164.028 747.646 Z" fill="#000000" fill-rule="nonzero" fill-opacity="1"></path><path clip-path="url(#clip510)" d="M184.19 776.952 L189.075 776.952 L189.075 782.831 L184.19 782.831 L184.19 776.952 Z" fill="#000000" fill-rule="nonzero" fill-opacity="1"></path><path clip-path="url(#clip510)" d="M199.306 748.271 L217.662 748.271 L217.662 752.206 L203.588 752.206 L203.588 760.679 Q204.607 760.331 205.625 760.169 Q206.644 759.984 207.662 759.984 Q213.449 759.984 216.829 763.155 Q220.209 766.327 220.209 771.743 Q220.209 777.322 216.736 780.424 Q213.264 783.503 206.945 783.503 Q204.769 783.503 202.5 783.132 Q200.255 782.762 197.848 782.021 L197.848 777.322 Q199.931 778.456 202.153 779.012 Q204.375 779.567 206.852 779.567 Q210.857 779.567 213.195 777.461 Q215.533 775.354 215.533 771.743 Q215.533 768.132 213.195 766.026 Q210.857 763.919 206.852 763.919 Q204.977 763.919 203.102 764.336 Q201.25 764.753 199.306 765.632 L199.306 748.271 Z" fill="#000000" fill-rule="nonzero" fill-opacity="1"></path><path clip-path="url(#clip510)" d="M153.843 552.441 L161.482 552.441 L161.482 526.075 L153.172 527.742 L153.172 523.483 L161.436 521.816 L166.112 521.816 L166.112 552.441 L173.751 552.441 L173.751 556.376 L153.843 556.376 L153.843 552.441 Z" fill="#000000" fill-rule="nonzero" fill-opacity="1"></path><path clip-path="url(#clip510)" d="M183.195 550.496 L188.079 550.496 L188.079 556.376 L183.195 556.376 L183.195 550.496 Z" fill="#000000" fill-rule="nonzero" fill-opacity="1"></path><path clip-path="url(#clip510)" d="M208.264 524.895 Q204.653 524.895 202.824 528.46 Q201.019 532.001 201.019 539.131 Q201.019 546.237 202.824 549.802 Q204.653 553.344 208.264 553.344 Q211.899 553.344 213.704 549.802 Q215.533 546.237 215.533 539.131 Q215.533 532.001 213.704 528.46 Q211.899 524.895 208.264 524.895 M208.264 521.191 Q214.074 521.191 217.13 525.797 Q220.209 530.381 220.209 539.131 Q220.209 547.858 217.13 552.464 Q214.074 557.047 208.264 557.047 Q202.454 557.047 199.375 552.464 Q196.32 547.858 196.32 539.131 Q196.32 530.381 199.375 525.797 Q202.454 521.191 208.264 521.191 Z" fill="#000000" fill-rule="nonzero" fill-opacity="1"></path><path clip-path="url(#clip510)" d="M154.839 325.986 L162.477 325.986 L162.477 299.62 L154.167 301.287 L154.167 297.028 L162.431 295.361 L167.107 295.361 L167.107 325.986 L174.746 325.986 L174.746 329.921 L154.839 329.921 L154.839 325.986 Z" fill="#000000" fill-rule="nonzero" fill-opacity="1"></path><path clip-path="url(#clip510)" d="M184.19 324.041 L189.075 324.041 L189.075 329.921 L184.19 329.921 L184.19 324.041 Z" fill="#000000" fill-rule="nonzero" fill-opacity="1"></path><path clip-path="url(#clip510)" d="M199.306 295.361 L217.662 295.361 L217.662 299.296 L203.588 299.296 L203.588 307.768 Q204.607 307.421 205.625 307.259 Q206.644 307.074 207.662 307.074 Q213.449 307.074 216.829 310.245 Q220.209 313.416 220.209 318.833 Q220.209 324.412 216.736 327.513 Q213.264 330.592 206.945 330.592 Q204.769 330.592 202.5 330.222 Q200.255 329.851 197.848 329.111 L197.848 324.412 Q199.931 325.546 202.153 326.101 Q204.375 326.657 206.852 326.657 Q210.857 326.657 213.195 324.551 Q215.533 322.444 215.533 318.833 Q215.533 315.222 213.195 313.115 Q210.857 311.009 206.852 311.009 Q204.977 311.009 203.102 311.426 Q201.25 311.842 199.306 312.722 L199.306 295.361 Z" fill="#000000" fill-rule="nonzero" fill-opacity="1"></path><path clip-path="url(#clip510)" d="M157.061 99.5305 L173.38 99.5305 L173.38 103.466 L151.436 103.466 L151.436 99.5305 Q154.098 96.7759 158.681 92.1463 Q163.288 87.4935 164.468 86.151 Q166.714 83.6278 167.593 81.8917 Q168.496 80.1325 168.496 78.4427 Q168.496 75.688 166.552 73.9519 Q164.63 72.2158 161.528 72.2158 Q159.329 72.2158 156.876 72.9797 Q154.445 73.7436 151.667 75.2945 L151.667 70.5723 Q154.491 69.4381 156.945 68.8594 Q159.399 68.2807 161.436 68.2807 Q166.806 68.2807 170.001 70.9658 Q173.195 73.651 173.195 78.1417 Q173.195 80.2714 172.385 82.1926 Q171.598 84.0908 169.491 86.6834 Q168.913 87.3546 165.811 90.5722 Q162.709 93.7667 157.061 99.5305 Z" fill="#000000" fill-rule="nonzero" fill-opacity="1"></path><path clip-path="url(#clip510)" d="M183.195 97.5861 L188.079 97.5861 L188.079 103.466 L183.195 103.466 L183.195 97.5861 Z" fill="#000000" fill-rule="nonzero" fill-opacity="1"></path><path clip-path="url(#clip510)" d="M208.264 71.9844 Q204.653 71.9844 202.824 75.5492 Q201.019 79.0908 201.019 86.2204 Q201.019 93.3268 202.824 96.8916 Q204.653 100.433 208.264 100.433 Q211.899 100.433 213.704 96.8916 Q215.533 93.3268 215.533 86.2204 Q215.533 79.0908 213.704 75.5492 Q211.899 71.9844 208.264 71.9844 M208.264 68.2807 Q214.074 68.2807 217.13 72.8871 Q220.209 77.4704 220.209 86.2204 Q220.209 94.9472 217.13 99.5537 Q214.074 104.137 208.264 104.137 Q202.454 104.137 199.375 99.5537 Q196.32 94.9472 196.32 86.2204 Q196.32 77.4704 199.375 72.8871 Q202.454 68.2807 208.264 68.2807 Z" fill="#000000" fill-rule="nonzero" fill-opacity="1"></path><path clip-path="url(#clip510)" d="M16.4842 811.075 L16.4842 804.646 L64.0042 804.646 L64.0042 811.075 L16.4842 811.075 Z" fill="#000000" fill-rule="nonzero" fill-opacity="1"></path><path clip-path="url(#clip510)" d="M35.1993 764.351 Q31.2526 762.155 29.3747 759.099 Q27.4968 756.044 27.4968 751.906 Q27.4968 746.336 31.4117 743.312 Q35.2948 740.289 42.4881 740.289 L64.0042 740.289 L64.0042 746.177 L42.679 746.177 Q37.5546 746.177 35.072 747.991 Q32.5894 749.805 32.5894 753.529 Q32.5894 758.081 35.6131 760.723 Q38.6368 763.364 43.8567 763.364 L64.0042 763.364 L64.0042 769.253 L42.679 769.253 Q37.5228 769.253 35.072 771.067 Q32.5894 772.881 32.5894 776.669 Q32.5894 781.156 35.6449 783.798 Q38.6686 786.44 43.8567 786.44 L64.0042 786.44 L64.0042 792.328 L28.3562 792.328 L28.3562 786.44 L33.8944 786.44 Q30.616 784.435 29.0564 781.634 Q27.4968 778.833 27.4968 774.982 Q27.4968 771.099 29.4702 768.393 Q31.4436 765.656 35.1993 764.351 Z" fill="#000000" fill-rule="nonzero" fill-opacity="1"></path><path clip-path="url(#clip510)" d="M46.0847 712.407 Q46.0847 719.505 47.7079 722.242 Q49.3312 724.979 53.2461 724.979 Q56.3653 724.979 58.2114 722.942 Q60.0256 720.873 60.0256 717.34 Q60.0256 712.47 56.5881 709.542 Q53.1188 706.582 47.3897 706.582 L46.0847 706.582 L46.0847 712.407 M43.6657 700.726 L64.0042 700.726 L64.0042 706.582 L58.5933 706.582 Q61.8398 708.587 63.3994 711.579 Q64.9272 714.571 64.9272 718.9 Q64.9272 724.374 61.8716 727.621 Q58.7843 730.836 53.6281 730.836 Q47.6125 730.836 44.5569 726.825 Q41.5014 722.783 41.5014 714.794 L41.5014 706.582 L40.9285 706.582 Q36.8862 706.582 34.6901 709.256 Q32.4621 711.898 32.4621 716.704 Q32.4621 719.759 33.1941 722.656 Q33.9262 725.552 35.3903 728.226 L29.9795 728.226 Q28.7381 725.011 28.1334 721.987 Q27.4968 718.964 27.4968 716.099 Q27.4968 708.365 31.5072 704.545 Q35.5176 700.726 43.6657 700.726 Z" fill="#000000" fill-rule="nonzero" fill-opacity="1"></path><path clip-path="url(#clip510)" d="M45.7664 665.205 Q39.4007 665.205 35.8996 667.847 Q32.3984 670.457 32.3984 675.199 Q32.3984 679.91 35.8996 682.552 Q39.4007 685.162 45.7664 685.162 Q52.1003 685.162 55.6014 682.552 Q59.1026 679.91 59.1026 675.199 Q59.1026 670.457 55.6014 667.847 Q52.1003 665.205 45.7664 665.205 M59.58 659.349 Q68.683 659.349 73.1071 663.391 Q77.5631 667.433 77.5631 675.772 Q77.5631 678.86 77.0857 681.597 Q76.6401 684.334 75.6852 686.912 L69.9879 686.912 Q71.3884 684.334 72.0568 681.82 Q72.7252 679.305 72.7252 676.695 Q72.7252 670.934 69.7015 668.07 Q66.7096 665.205 60.6303 665.205 L57.7339 665.205 Q60.885 667.019 62.4446 669.852 Q64.0042 672.685 64.0042 676.632 Q64.0042 683.188 59.0071 687.199 Q54.01 691.209 45.7664 691.209 Q37.491 691.209 32.4939 687.199 Q27.4968 683.188 27.4968 676.632 Q27.4968 672.685 29.0564 669.852 Q30.616 667.019 33.7671 665.205 L28.3562 665.205 L28.3562 659.349 L59.58 659.349 Z" fill="#000000" fill-rule="nonzero" fill-opacity="1"></path><polyline clip-path="url(#clip512)" style="stroke:#009af9; stroke-linecap:round; stroke-linejoin:round; stroke-width:4; stroke-opacity:1; fill:none" points="2293.42,86.1857 1765.99,406.997 1416.79,645.786 1210.82,869.306 1429.07,1141.79 1406.15,987.738 1516.06,993.357 1502.5,992.052 1502.27,992.006 "></polyline>
<line clip-path="url(#clip512)" x1="2293.42" y1="86.1857" x2="2277.42" y2="70.1857" style="stroke:#009af9; stroke-width:4; stroke-opacity:1"></line>
<line clip-path="url(#clip512)" x1="2293.42" y1="86.1857" x2="2277.42" y2="102.186" style="stroke:#009af9; stroke-width:4; stroke-opacity:1"></line>
<line clip-path="url(#clip512)" x1="2293.42" y1="86.1857" x2="2309.42" y2="102.186" style="stroke:#009af9; stroke-width:4; stroke-opacity:1"></line>
<line clip-path="url(#clip512)" x1="2293.42" y1="86.1857" x2="2309.42" y2="70.1857" style="stroke:#009af9; stroke-width:4; stroke-opacity:1"></line>
<line clip-path="url(#clip512)" x1="1765.99" y1="406.997" x2="1749.99" y2="390.997" style="stroke:#009af9; stroke-width:4; stroke-opacity:1"></line>
<line clip-path="url(#clip512)" x1="1765.99" y1="406.997" x2="1749.99" y2="422.997" style="stroke:#009af9; stroke-width:4; stroke-opacity:1"></line>
<line clip-path="url(#clip512)" x1="1765.99" y1="406.997" x2="1781.99" y2="422.997" style="stroke:#009af9; stroke-width:4; stroke-opacity:1"></line>
<line clip-path="url(#clip512)" x1="1765.99" y1="406.997" x2="1781.99" y2="390.997" style="stroke:#009af9; stroke-width:4; stroke-opacity:1"></line>
<line clip-path="url(#clip512)" x1="1416.79" y1="645.786" x2="1400.79" y2="629.786" style="stroke:#009af9; stroke-width:4; stroke-opacity:1"></line>
<line clip-path="url(#clip512)" x1="1416.79" y1="645.786" x2="1400.79" y2="661.786" style="stroke:#009af9; stroke-width:4; stroke-opacity:1"></line>
<line clip-path="url(#clip512)" x1="1416.79" y1="645.786" x2="1432.79" y2="661.786" style="stroke:#009af9; stroke-width:4; stroke-opacity:1"></line>
<line clip-path="url(#clip512)" x1="1416.79" y1="645.786" x2="1432.79" y2="629.786" style="stroke:#009af9; stroke-width:4; stroke-opacity:1"></line>
<line clip-path="url(#clip512)" x1="1210.82" y1="869.306" x2="1194.82" y2="853.306" style="stroke:#009af9; stroke-width:4; stroke-opacity:1"></line>
<line clip-path="url(#clip512)" x1="1210.82" y1="869.306" x2="1194.82" y2="885.306" style="stroke:#009af9; stroke-width:4; stroke-opacity:1"></line>
<line clip-path="url(#clip512)" x1="1210.82" y1="869.306" x2="1226.82" y2="885.306" style="stroke:#009af9; stroke-width:4; stroke-opacity:1"></line>
<line clip-path="url(#clip512)" x1="1210.82" y1="869.306" x2="1226.82" y2="853.306" style="stroke:#009af9; stroke-width:4; stroke-opacity:1"></line>
<line clip-path="url(#clip512)" x1="1429.07" y1="1141.79" x2="1413.07" y2="1125.79" style="stroke:#009af9; stroke-width:4; stroke-opacity:1"></line>
<line clip-path="url(#clip512)" x1="1429.07" y1="1141.79" x2="1413.07" y2="1157.79" style="stroke:#009af9; stroke-width:4; stroke-opacity:1"></line>
<line clip-path="url(#clip512)" x1="1429.07" y1="1141.79" x2="1445.07" y2="1157.79" style="stroke:#009af9; stroke-width:4; stroke-opacity:1"></line>
<line clip-path="url(#clip512)" x1="1429.07" y1="1141.79" x2="1445.07" y2="1125.79" style="stroke:#009af9; stroke-width:4; stroke-opacity:1"></line>
<line clip-path="url(#clip512)" x1="1406.15" y1="987.738" x2="1390.15" y2="971.738" style="stroke:#009af9; stroke-width:4; stroke-opacity:1"></line>
<line clip-path="url(#clip512)" x1="1406.15" y1="987.738" x2="1390.15" y2="1003.74" style="stroke:#009af9; stroke-width:4; stroke-opacity:1"></line>
<line clip-path="url(#clip512)" x1="1406.15" y1="987.738" x2="1422.15" y2="1003.74" style="stroke:#009af9; stroke-width:4; stroke-opacity:1"></line>
<line clip-path="url(#clip512)" x1="1406.15" y1="987.738" x2="1422.15" y2="971.738" style="stroke:#009af9; stroke-width:4; stroke-opacity:1"></line>
<line clip-path="url(#clip512)" x1="1516.06" y1="993.357" x2="1500.06" y2="977.357" style="stroke:#009af9; stroke-width:4; stroke-opacity:1"></line>
<line clip-path="url(#clip512)" x1="1516.06" y1="993.357" x2="1500.06" y2="1009.36" style="stroke:#009af9; stroke-width:4; stroke-opacity:1"></line>
<line clip-path="url(#clip512)" x1="1516.06" y1="993.357" x2="1532.06" y2="1009.36" style="stroke:#009af9; stroke-width:4; stroke-opacity:1"></line>
<line clip-path="url(#clip512)" x1="1516.06" y1="993.357" x2="1532.06" y2="977.357" style="stroke:#009af9; stroke-width:4; stroke-opacity:1"></line>
<line clip-path="url(#clip512)" x1="1502.5" y1="992.052" x2="1486.5" y2="976.052" style="stroke:#009af9; stroke-width:4; stroke-opacity:1"></line>
<line clip-path="url(#clip512)" x1="1502.5" y1="992.052" x2="1486.5" y2="1008.05" style="stroke:#009af9; stroke-width:4; stroke-opacity:1"></line>
<line clip-path="url(#clip512)" x1="1502.5" y1="992.052" x2="1518.5" y2="1008.05" style="stroke:#009af9; stroke-width:4; stroke-opacity:1"></line>
<line clip-path="url(#clip512)" x1="1502.5" y1="992.052" x2="1518.5" y2="976.052" style="stroke:#009af9; stroke-width:4; stroke-opacity:1"></line>
<line clip-path="url(#clip512)" x1="1502.27" y1="992.006" x2="1486.27" y2="976.006" style="stroke:#009af9; stroke-width:4; stroke-opacity:1"></line>
<line clip-path="url(#clip512)" x1="1502.27" y1="992.006" x2="1486.27" y2="1008.01" style="stroke:#009af9; stroke-width:4; stroke-opacity:1"></line>
<line clip-path="url(#clip512)" x1="1502.27" y1="992.006" x2="1518.27" y2="1008.01" style="stroke:#009af9; stroke-width:4; stroke-opacity:1"></line>
<line clip-path="url(#clip512)" x1="1502.27" y1="992.006" x2="1518.27" y2="976.006" style="stroke:#009af9; stroke-width:4; stroke-opacity:1"></line>
<path clip-path="url(#clip510)" d="M2293.42 54.7987 Q2290.71 54.7987 2289.34 57.4723 Q2287.99 60.1285 2287.99 65.4757 Q2287.99 70.8055 2289.34 73.4791 Q2290.71 76.1354 2293.42 76.1354 Q2296.15 76.1354 2297.5 73.4791 Q2298.87 70.8055 2298.87 65.4757 Q2298.87 60.1285 2297.5 57.4723 Q2296.15 54.7987 2293.42 54.7987 M2293.42 52.0209 Q2297.78 52.0209 2300.07 55.4758 Q2302.38 58.9132 2302.38 65.4757 Q2302.38 72.0208 2300.07 75.4757 Q2297.78 78.9131 2293.42 78.9131 Q2289.06 78.9131 2286.75 75.4757 Q2284.46 72.0208 2284.46 65.4757 Q2284.46 58.9132 2286.75 55.4758 Q2289.06 52.0209 2293.42 52.0209 Z" fill="#000000" fill-rule="nonzero" fill-opacity="1"></path><path clip-path="url(#clip510)" d="M1758.77 396.27 L1764.5 396.27 L1764.5 376.496 L1758.27 377.746 L1758.27 374.551 L1764.47 373.301 L1767.97 373.301 L1767.97 396.27 L1773.7 396.27 L1773.7 399.221 L1758.77 399.221 L1758.77 396.27 Z" fill="#000000" fill-rule="nonzero" fill-opacity="1"></path><path clip-path="url(#clip510)" d="M1412.78 635.059 L1425.02 635.059 L1425.02 638.01 L1408.56 638.01 L1408.56 635.059 Q1410.56 632.993 1414 629.521 Q1417.45 626.031 1418.34 625.024 Q1420.02 623.132 1420.68 621.83 Q1421.36 620.51 1421.36 619.243 Q1421.36 617.177 1419.9 615.875 Q1418.46 614.573 1416.13 614.573 Q1414.48 614.573 1412.64 615.146 Q1410.82 615.719 1408.74 616.882 L1408.74 613.34 Q1410.86 612.489 1412.7 612.055 Q1414.54 611.621 1416.06 611.621 Q1420.09 611.621 1422.49 613.635 Q1424.88 615.649 1424.88 619.017 Q1424.88 620.614 1424.28 622.055 Q1423.69 623.479 1422.11 625.423 Q1421.67 625.927 1419.35 628.34 Q1417.02 630.736 1412.78 635.059 Z" fill="#000000" fill-rule="nonzero" fill-opacity="1"></path><path clip-path="url(#clip510)" d="M1214.01 847.555 Q1216.52 848.093 1217.93 849.794 Q1219.35 851.495 1219.35 853.995 Q1219.35 857.832 1216.72 859.933 Q1214.08 862.034 1209.22 862.034 Q1207.58 862.034 1205.85 861.704 Q1204.13 861.391 1202.29 860.749 L1202.29 857.364 Q1203.75 858.214 1205.48 858.648 Q1207.22 859.082 1209.11 859.082 Q1212.41 859.082 1214.13 857.78 Q1215.86 856.478 1215.86 853.995 Q1215.86 851.704 1214.25 850.419 Q1212.65 849.117 1209.79 849.117 L1206.77 849.117 L1206.77 846.235 L1209.93 846.235 Q1212.51 846.235 1213.89 845.211 Q1215.26 844.169 1215.26 842.225 Q1215.26 840.228 1213.83 839.169 Q1212.43 838.093 1209.79 838.093 Q1208.35 838.093 1206.7 838.405 Q1205.05 838.718 1203.07 839.378 L1203.07 836.253 Q1205.07 835.697 1206.8 835.419 Q1208.56 835.141 1210.1 835.141 Q1214.09 835.141 1216.42 836.964 Q1218.75 838.77 1218.75 841.86 Q1218.75 844.013 1217.51 845.506 Q1216.28 846.982 1214.01 847.555 Z" fill="#000000" fill-rule="nonzero" fill-opacity="1"></path><path clip-path="url(#clip510)" d="M1431.32 1111.15 L1422.47 1124.99 L1431.32 1124.99 L1431.32 1111.15 M1430.4 1108.1 L1434.81 1108.1 L1434.81 1124.99 L1438.51 1124.99 L1438.51 1127.91 L1434.81 1127.91 L1434.81 1134.02 L1431.32 1134.02 L1431.32 1127.91 L1419.62 1127.91 L1419.62 1124.52 L1430.4 1108.1 Z" fill="#000000" fill-rule="nonzero" fill-opacity="1"></path><path clip-path="url(#clip510)" d="M1398.86 954.042 L1412.63 954.042 L1412.63 956.993 L1402.07 956.993 L1402.07 963.347 Q1402.84 963.087 1403.6 962.965 Q1404.37 962.826 1405.13 962.826 Q1409.47 962.826 1412 965.205 Q1414.54 967.583 1414.54 971.646 Q1414.54 975.83 1411.94 978.156 Q1409.33 980.465 1404.59 980.465 Q1402.96 980.465 1401.26 980.187 Q1399.57 979.91 1397.77 979.354 L1397.77 975.83 Q1399.33 976.68 1401 977.097 Q1402.66 977.514 1404.52 977.514 Q1407.53 977.514 1409.28 975.934 Q1411.03 974.354 1411.03 971.646 Q1411.03 968.937 1409.28 967.358 Q1407.53 965.778 1404.52 965.778 Q1403.12 965.778 1401.71 966.09 Q1400.32 966.403 1398.86 967.062 L1398.86 954.042 Z" fill="#000000" fill-rule="nonzero" fill-opacity="1"></path><path clip-path="url(#clip510)" d="M1516.36 971.223 Q1514 971.223 1512.61 972.838 Q1511.24 974.452 1511.24 977.265 Q1511.24 980.06 1512.61 981.692 Q1514 983.307 1516.36 983.307 Q1518.72 983.307 1520.09 981.692 Q1521.48 980.06 1521.48 977.265 Q1521.48 974.452 1520.09 972.838 Q1518.72 971.223 1516.36 971.223 M1523.32 960.234 L1523.32 963.428 Q1522 962.803 1520.65 962.473 Q1519.31 962.143 1517.99 962.143 Q1514.52 962.143 1512.68 964.487 Q1510.86 966.831 1510.6 971.571 Q1511.62 970.06 1513.17 969.261 Q1514.71 968.446 1516.57 968.446 Q1520.47 968.446 1522.73 970.824 Q1525.01 973.185 1525.01 977.265 Q1525.01 981.258 1522.64 983.671 Q1520.28 986.084 1516.36 986.084 Q1511.86 986.084 1509.49 982.647 Q1507.11 979.192 1507.11 972.647 Q1507.11 966.501 1510.02 962.855 Q1512.94 959.192 1517.85 959.192 Q1519.17 959.192 1520.51 959.453 Q1521.86 959.713 1523.32 960.234 Z" fill="#000000" fill-rule="nonzero" fill-opacity="1"></path><path clip-path="url(#clip510)" d="M1494.16 958.356 L1510.83 958.356 L1510.83 959.849 L1501.42 984.276 L1497.76 984.276 L1506.61 961.307 L1494.16 961.307 L1494.16 958.356 Z" fill="#000000" fill-rule="nonzero" fill-opacity="1"></path><path clip-path="url(#clip510)" d="M1502.27 971.921 Q1499.77 971.921 1498.33 973.258 Q1496.91 974.595 1496.91 976.939 Q1496.91 979.283 1498.33 980.619 Q1499.77 981.956 1502.27 981.956 Q1504.77 981.956 1506.21 980.619 Q1507.65 979.265 1507.65 976.939 Q1507.65 974.595 1506.21 973.258 Q1504.79 971.921 1502.27 971.921 M1498.76 970.428 Q1496.51 969.873 1495.24 968.328 Q1493.99 966.783 1493.99 964.56 Q1493.99 961.453 1496.19 959.647 Q1498.42 957.842 1502.27 957.842 Q1506.14 957.842 1508.35 959.647 Q1510.55 961.453 1510.55 964.56 Q1510.55 966.783 1509.28 968.328 Q1508.03 969.873 1505.79 970.428 Q1508.33 971.019 1509.74 972.737 Q1511.16 974.456 1511.16 976.939 Q1511.16 980.706 1508.85 982.72 Q1506.56 984.734 1502.27 984.734 Q1497.98 984.734 1495.67 982.72 Q1493.38 980.706 1493.38 976.939 Q1493.38 974.456 1494.8 972.737 Q1496.23 971.019 1498.76 970.428 M1497.48 964.89 Q1497.48 966.904 1498.73 968.033 Q1500 969.161 1502.27 969.161 Q1504.53 969.161 1505.79 968.033 Q1507.08 966.904 1507.08 964.89 Q1507.08 962.876 1505.79 961.748 Q1504.53 960.619 1502.27 960.619 Q1500 960.619 1498.73 961.748 Q1497.48 962.876 1497.48 964.89 Z" fill="#000000" fill-rule="nonzero" fill-opacity="1"></path><circle clip-path="url(#clip512)" cx="2293.42" cy="86.1857" r="14.4" fill="#e26f46" fill-rule="evenodd" fill-opacity="1" stroke="#000000" stroke-opacity="1" stroke-width="3.2"></circle>
<circle clip-path="url(#clip512)" cx="315.545" cy="1384.24" r="14.4" fill="#3da44d" fill-rule="evenodd" fill-opacity="1" stroke="#000000" stroke-opacity="1" stroke-width="3.2"></circle>
<circle clip-path="url(#clip512)" cx="315.545" cy="599.775" r="14.4" fill="#3da44d" fill-rule="evenodd" fill-opacity="1" stroke="#000000" stroke-opacity="1" stroke-width="3.2"></circle>
<circle clip-path="url(#clip512)" cx="1502.27" cy="992.006" r="14.4" fill="#3da44d" fill-rule="evenodd" fill-opacity="1" stroke="#000000" stroke-opacity="1" stroke-width="3.2"></circle>
<path clip-path="url(#clip510)" d="M326.094 300.469 L820.909 300.469 L820.909 93.1086 L326.094 93.1086  Z" fill="#ffffff" fill-rule="evenodd" fill-opacity="1"></path>
<polyline clip-path="url(#clip510)" style="stroke:#000000; stroke-linecap:round; stroke-linejoin:round; stroke-width:4; stroke-opacity:1; fill:none" points="326.094,300.469 820.909,300.469 820.909,93.1086 326.094,93.1086 326.094,300.469 "></polyline>
<polyline clip-path="url(#clip510)" style="stroke:#009af9; stroke-linecap:round; stroke-linejoin:round; stroke-width:4; stroke-opacity:1; fill:none" points="349.389,144.949 489.158,144.949 "></polyline>
<line clip-path="url(#clip510)" x1="419.273" y1="144.949" x2="397.704" y2="123.379" style="stroke:#009af9; stroke-width:4.55111; stroke-opacity:1"></line>
<line clip-path="url(#clip510)" x1="419.273" y1="144.949" x2="397.704" y2="166.518" style="stroke:#009af9; stroke-width:4.55111; stroke-opacity:1"></line>
<line clip-path="url(#clip510)" x1="419.273" y1="144.949" x2="440.843" y2="166.518" style="stroke:#009af9; stroke-width:4.55111; stroke-opacity:1"></line>
<line clip-path="url(#clip510)" x1="419.273" y1="144.949" x2="440.843" y2="123.379" style="stroke:#009af9; stroke-width:4.55111; stroke-opacity:1"></line>
<path clip-path="url(#clip510)" d="M513.032 136.303 L533.263 136.303 L533.263 140.192 L517.245 158.826 L533.263 158.826 L533.263 162.229 L512.453 162.229 L512.453 158.34 L528.472 139.706 L513.032 139.706 L513.032 136.303 Z" fill="#000000" fill-rule="nonzero" fill-opacity="1"></path><path clip-path="url(#clip510)" d="M559.467 170.099 L559.467 173.409 L534.837 173.409 L534.837 170.099 L559.467 170.099 Z" fill="#000000" fill-rule="nonzero" fill-opacity="1"></path><path clip-path="url(#clip510)" d="M563.31 126.21 L567.592 126.21 L567.592 147.483 L580.3 136.303 L585.74 136.303 L571.99 148.432 L586.319 162.229 L580.763 162.229 L567.592 149.567 L567.592 162.229 L563.31 162.229 L563.31 126.21 Z" fill="#000000" fill-rule="nonzero" fill-opacity="1"></path><circle clip-path="url(#clip510)" cx="419.273" cy="196.789" r="20.48" fill="#e26f46" fill-rule="evenodd" fill-opacity="1" stroke="#000000" stroke-opacity="1" stroke-width="4.55111"></circle>
<path clip-path="url(#clip510)" d="M512.453 188.143 L516.713 188.143 L516.713 214.069 L512.453 214.069 L512.453 188.143 M512.453 178.05 L516.713 178.05 L516.713 183.444 L512.453 183.444 L512.453 178.05 Z" fill="#000000" fill-rule="nonzero" fill-opacity="1"></path><path clip-path="url(#clip510)" d="M547.175 198.421 L547.175 214.069 L542.916 214.069 L542.916 198.559 Q542.916 194.879 541.481 193.05 Q540.046 191.222 537.175 191.222 Q533.726 191.222 531.736 193.421 Q529.745 195.62 529.745 199.416 L529.745 214.069 L525.463 214.069 L525.463 188.143 L529.745 188.143 L529.745 192.171 Q531.273 189.833 533.333 188.675 Q535.416 187.518 538.124 187.518 Q542.592 187.518 544.884 190.296 Q547.175 193.05 547.175 198.421 Z" fill="#000000" fill-rule="nonzero" fill-opacity="1"></path><path clip-path="url(#clip510)" d="M555.671 188.143 L559.93 188.143 L559.93 214.069 L555.671 214.069 L555.671 188.143 M555.671 178.05 L559.93 178.05 L559.93 183.444 L555.671 183.444 L555.671 178.05 Z" fill="#000000" fill-rule="nonzero" fill-opacity="1"></path><path clip-path="url(#clip510)" d="M573.055 180.782 L573.055 188.143 L581.828 188.143 L581.828 191.453 L573.055 191.453 L573.055 205.527 Q573.055 208.698 573.911 209.601 Q574.791 210.504 577.453 210.504 L581.828 210.504 L581.828 214.069 L577.453 214.069 Q572.522 214.069 570.647 212.24 Q568.772 210.388 568.772 205.527 L568.772 191.453 L565.647 191.453 L565.647 188.143 L568.772 188.143 L568.772 180.782 L573.055 180.782 Z" fill="#000000" fill-rule="nonzero" fill-opacity="1"></path><path clip-path="url(#clip510)" d="M587.43 188.143 L591.689 188.143 L591.689 214.069 L587.43 214.069 L587.43 188.143 M587.43 178.05 L591.689 178.05 L591.689 183.444 L587.43 183.444 L587.43 178.05 Z" fill="#000000" fill-rule="nonzero" fill-opacity="1"></path><path clip-path="url(#clip510)" d="M612.383 201.036 Q607.221 201.036 605.231 202.217 Q603.24 203.397 603.24 206.245 Q603.24 208.513 604.721 209.856 Q606.226 211.175 608.795 211.175 Q612.337 211.175 614.467 208.675 Q616.619 206.152 616.619 201.985 L616.619 201.036 L612.383 201.036 M620.879 199.277 L620.879 214.069 L616.619 214.069 L616.619 210.133 Q615.161 212.495 612.985 213.629 Q610.809 214.74 607.661 214.74 Q603.68 214.74 601.319 212.518 Q598.981 210.272 598.981 206.522 Q598.981 202.147 601.897 199.925 Q604.837 197.703 610.647 197.703 L616.619 197.703 L616.619 197.286 Q616.619 194.347 614.675 192.749 Q612.754 191.129 609.258 191.129 Q607.036 191.129 604.93 191.661 Q602.823 192.194 600.879 193.259 L600.879 189.323 Q603.217 188.421 605.416 187.981 Q607.615 187.518 609.698 187.518 Q615.323 187.518 618.101 190.434 Q620.879 193.351 620.879 199.277 Z" fill="#000000" fill-rule="nonzero" fill-opacity="1"></path><path clip-path="url(#clip510)" d="M629.652 178.05 L633.911 178.05 L633.911 214.069 L629.652 214.069 L629.652 178.05 Z" fill="#000000" fill-rule="nonzero" fill-opacity="1"></path><path clip-path="url(#clip510)" d="M654.837 188.143 L659.351 188.143 L667.452 209.902 L675.554 188.143 L680.068 188.143 L670.346 214.069 L664.559 214.069 L654.837 188.143 Z" fill="#000000" fill-rule="nonzero" fill-opacity="1"></path><path clip-path="url(#clip510)" d="M697.73 201.036 Q692.568 201.036 690.577 202.217 Q688.587 203.397 688.587 206.245 Q688.587 208.513 690.068 209.856 Q691.573 211.175 694.142 211.175 Q697.684 211.175 699.813 208.675 Q701.966 206.152 701.966 201.985 L701.966 201.036 L697.73 201.036 M706.225 199.277 L706.225 214.069 L701.966 214.069 L701.966 210.133 Q700.508 212.495 698.332 213.629 Q696.156 214.74 693.008 214.74 Q689.026 214.74 686.665 212.518 Q684.327 210.272 684.327 206.522 Q684.327 202.147 687.244 199.925 Q690.184 197.703 695.994 197.703 L701.966 197.703 L701.966 197.286 Q701.966 194.347 700.022 192.749 Q698.1 191.129 694.605 191.129 Q692.383 191.129 690.276 191.661 Q688.17 192.194 686.226 193.259 L686.226 189.323 Q688.563 188.421 690.763 187.981 Q692.962 187.518 695.045 187.518 Q700.67 187.518 703.448 190.434 Q706.225 193.351 706.225 199.277 Z" fill="#000000" fill-rule="nonzero" fill-opacity="1"></path><path clip-path="url(#clip510)" d="M714.999 178.05 L719.258 178.05 L719.258 214.069 L714.999 214.069 L714.999 178.05 Z" fill="#000000" fill-rule="nonzero" fill-opacity="1"></path><path clip-path="url(#clip510)" d="M727.73 203.837 L727.73 188.143 L731.989 188.143 L731.989 203.675 Q731.989 207.356 733.424 209.208 Q734.86 211.036 737.73 211.036 Q741.179 211.036 743.17 208.837 Q745.184 206.638 745.184 202.842 L745.184 188.143 L749.443 188.143 L749.443 214.069 L745.184 214.069 L745.184 210.087 Q743.633 212.448 741.572 213.606 Q739.535 214.74 736.827 214.74 Q732.36 214.74 730.045 211.962 Q727.73 209.184 727.73 203.837 M738.447 187.518 L738.447 187.518 Z" fill="#000000" fill-rule="nonzero" fill-opacity="1"></path><path clip-path="url(#clip510)" d="M780.392 200.041 L780.392 202.124 L760.808 202.124 Q761.086 206.522 763.447 208.837 Q765.832 211.129 770.068 211.129 Q772.521 211.129 774.813 210.527 Q777.128 209.925 779.396 208.721 L779.396 212.749 Q777.105 213.721 774.697 214.231 Q772.29 214.74 769.813 214.74 Q763.609 214.74 759.975 211.129 Q756.364 207.518 756.364 201.36 Q756.364 194.995 759.79 191.268 Q763.239 187.518 769.072 187.518 Q774.304 187.518 777.336 190.897 Q780.392 194.254 780.392 200.041 M776.132 198.791 Q776.086 195.296 774.165 193.212 Q772.267 191.129 769.119 191.129 Q765.554 191.129 763.401 193.143 Q761.271 195.157 760.947 198.814 L776.132 198.791 Z" fill="#000000" fill-rule="nonzero" fill-opacity="1"></path><circle clip-path="url(#clip510)" cx="419.273" cy="248.629" r="20.48" fill="#3da44d" fill-rule="evenodd" fill-opacity="1" stroke="#000000" stroke-opacity="1" stroke-width="4.55111"></circle>
<path clip-path="url(#clip510)" d="M525.856 252.876 Q520.694 252.876 518.703 254.057 Q516.713 255.237 516.713 258.085 Q516.713 260.353 518.194 261.696 Q519.699 263.015 522.268 263.015 Q525.81 263.015 527.939 260.515 Q530.092 257.992 530.092 253.825 L530.092 252.876 L525.856 252.876 M534.351 251.117 L534.351 265.909 L530.092 265.909 L530.092 261.973 Q528.634 264.335 526.458 265.469 Q524.282 266.58 521.134 266.58 Q517.152 266.58 514.791 264.358 Q512.453 262.112 512.453 258.362 Q512.453 253.987 515.37 251.765 Q518.31 249.543 524.12 249.543 L530.092 249.543 L530.092 249.126 Q530.092 246.187 528.148 244.589 Q526.226 242.969 522.731 242.969 Q520.509 242.969 518.402 243.501 Q516.296 244.034 514.351 245.099 L514.351 241.163 Q516.689 240.261 518.888 239.821 Q521.088 239.358 523.171 239.358 Q528.796 239.358 531.574 242.274 Q534.351 245.191 534.351 251.117 Z" fill="#000000" fill-rule="nonzero" fill-opacity="1"></path><path clip-path="url(#clip510)" d="M561.782 240.978 L561.782 244.96 Q559.976 243.964 558.148 243.478 Q556.342 242.969 554.49 242.969 Q550.347 242.969 548.055 245.608 Q545.763 248.224 545.763 252.969 Q545.763 257.714 548.055 260.353 Q550.347 262.969 554.49 262.969 Q556.342 262.969 558.148 262.483 Q559.976 261.973 561.782 260.978 L561.782 264.913 Q559.999 265.747 558.078 266.163 Q556.18 266.58 554.027 266.58 Q548.171 266.58 544.722 262.899 Q541.273 259.219 541.273 252.969 Q541.273 246.626 544.745 242.992 Q548.24 239.358 554.305 239.358 Q556.273 239.358 558.148 239.775 Q560.023 240.168 561.782 240.978 Z" fill="#000000" fill-rule="nonzero" fill-opacity="1"></path><path clip-path="url(#clip510)" d="M573.402 232.622 L573.402 239.983 L582.175 239.983 L582.175 243.293 L573.402 243.293 L573.402 257.367 Q573.402 260.538 574.259 261.441 Q575.138 262.344 577.8 262.344 L582.175 262.344 L582.175 265.909 L577.8 265.909 Q572.87 265.909 570.995 264.08 Q569.12 262.228 569.12 257.367 L569.12 243.293 L565.995 243.293 L565.995 239.983 L569.12 239.983 L569.12 232.622 L573.402 232.622 Z" fill="#000000" fill-rule="nonzero" fill-opacity="1"></path><path clip-path="url(#clip510)" d="M587.337 255.677 L587.337 239.983 L591.596 239.983 L591.596 255.515 Q591.596 259.196 593.032 261.048 Q594.467 262.876 597.337 262.876 Q600.786 262.876 602.777 260.677 Q604.791 258.478 604.791 254.682 L604.791 239.983 L609.05 239.983 L609.05 265.909 L604.791 265.909 L604.791 261.927 Q603.24 264.288 601.18 265.446 Q599.143 266.58 596.434 266.58 Q591.967 266.58 589.652 263.802 Q587.337 261.024 587.337 255.677 M598.055 239.358 L598.055 239.358 Z" fill="#000000" fill-rule="nonzero" fill-opacity="1"></path><path clip-path="url(#clip510)" d="M629.605 252.876 Q624.443 252.876 622.453 254.057 Q620.462 255.237 620.462 258.085 Q620.462 260.353 621.943 261.696 Q623.448 263.015 626.018 263.015 Q629.559 263.015 631.689 260.515 Q633.842 257.992 633.842 253.825 L633.842 252.876 L629.605 252.876 M638.101 251.117 L638.101 265.909 L633.842 265.909 L633.842 261.973 Q632.383 264.335 630.207 265.469 Q628.031 266.58 624.883 266.58 Q620.902 266.58 618.541 264.358 Q616.203 262.112 616.203 258.362 Q616.203 253.987 619.119 251.765 Q622.059 249.543 627.869 249.543 L633.842 249.543 L633.842 249.126 Q633.842 246.187 631.897 244.589 Q629.976 242.969 626.48 242.969 Q624.258 242.969 622.152 243.501 Q620.045 244.034 618.101 245.099 L618.101 241.163 Q620.439 240.261 622.638 239.821 Q624.837 239.358 626.92 239.358 Q632.545 239.358 635.323 242.274 Q638.101 245.191 638.101 251.117 Z" fill="#000000" fill-rule="nonzero" fill-opacity="1"></path><path clip-path="url(#clip510)" d="M646.874 229.89 L651.133 229.89 L651.133 265.909 L646.874 265.909 L646.874 229.89 Z" fill="#000000" fill-rule="nonzero" fill-opacity="1"></path><path clip-path="url(#clip510)" d="M672.059 239.983 L676.573 239.983 L684.675 261.742 L692.776 239.983 L697.29 239.983 L687.568 265.909 L681.781 265.909 L672.059 239.983 Z" fill="#000000" fill-rule="nonzero" fill-opacity="1"></path><path clip-path="url(#clip510)" d="M714.952 252.876 Q709.79 252.876 707.8 254.057 Q705.809 255.237 705.809 258.085 Q705.809 260.353 707.29 261.696 Q708.795 263.015 711.364 263.015 Q714.906 263.015 717.036 260.515 Q719.188 257.992 719.188 253.825 L719.188 252.876 L714.952 252.876 M723.448 251.117 L723.448 265.909 L719.188 265.909 L719.188 261.973 Q717.73 264.335 715.554 265.469 Q713.378 266.58 710.23 266.58 Q706.249 266.58 703.887 264.358 Q701.55 262.112 701.55 258.362 Q701.55 253.987 704.466 251.765 Q707.406 249.543 713.216 249.543 L719.188 249.543 L719.188 249.126 Q719.188 246.187 717.244 244.589 Q715.323 242.969 711.827 242.969 Q709.605 242.969 707.499 243.501 Q705.392 244.034 703.448 245.099 L703.448 241.163 Q705.786 240.261 707.985 239.821 Q710.184 239.358 712.267 239.358 Q717.892 239.358 720.67 242.274 Q723.448 245.191 723.448 251.117 Z" fill="#000000" fill-rule="nonzero" fill-opacity="1"></path><path clip-path="url(#clip510)" d="M732.221 229.89 L736.48 229.89 L736.48 265.909 L732.221 265.909 L732.221 229.89 Z" fill="#000000" fill-rule="nonzero" fill-opacity="1"></path><path clip-path="url(#clip510)" d="M744.952 255.677 L744.952 239.983 L749.211 239.983 L749.211 255.515 Q749.211 259.196 750.646 261.048 Q752.082 262.876 754.952 262.876 Q758.401 262.876 760.392 260.677 Q762.406 258.478 762.406 254.682 L762.406 239.983 L766.665 239.983 L766.665 265.909 L762.406 265.909 L762.406 261.927 Q760.855 264.288 758.795 265.446 Q756.758 266.58 754.049 266.58 Q749.582 266.58 747.267 263.802 Q744.952 261.024 744.952 255.677 M755.67 239.358 L755.67 239.358 Z" fill="#000000" fill-rule="nonzero" fill-opacity="1"></path><path clip-path="url(#clip510)" d="M797.614 251.881 L797.614 253.964 L778.031 253.964 Q778.308 258.362 780.669 260.677 Q783.054 262.969 787.29 262.969 Q789.744 262.969 792.035 262.367 Q794.35 261.765 796.618 260.561 L796.618 264.589 Q794.327 265.561 791.919 266.071 Q789.512 266.58 787.035 266.58 Q780.832 266.58 777.197 262.969 Q773.586 259.358 773.586 253.2 Q773.586 246.835 777.012 243.108 Q780.461 239.358 786.294 239.358 Q791.526 239.358 794.558 242.737 Q797.614 246.094 797.614 251.881 M793.355 250.631 Q793.308 247.136 791.387 245.052 Q789.489 242.969 786.341 242.969 Q782.776 242.969 780.623 244.983 Q778.494 246.997 778.169 250.654 L793.355 250.631 Z" fill="#000000" fill-rule="nonzero" fill-opacity="1"></path></svg>
