<svg xmlns="http://www.w3.org/2000/svg" xmlns:xlink="http://www.w3.org/1999/xlink" width="600" height="400" viewBox="0 0 2400 1600">
<defs>
  <clipPath id="clip180">
    <rect x="0" y="0" width="2400" height="1600"></rect>
  </clipPath>
</defs>
<path clip-path="url(#clip180)" d="M0 1600 L2400 1600 L2400 0 L0 0  Z" fill="#ffffff" fill-rule="evenodd" fill-opacity="1"></path>
<defs>
  <clipPath id="clip181">
    <rect x="480" y="0" width="1681" height="1600"></rect>
  </clipPath>
</defs>
<path clip-path="url(#clip180)" d="M251.56 1423.18 L2352.76 1423.18 L2352.76 47.2441 L251.56 47.2441  Z" fill="#ffffff" fill-rule="evenodd" fill-opacity="1"></path>
<defs>
  <clipPath id="clip182">
    <rect x="251" y="47" width="2102" height="1377"></rect>
  </clipPath>
</defs>
<polyline clip-path="url(#clip182)" style="stroke:#000000; stroke-linecap:round; stroke-linejoin:round; stroke-width:2; stroke-opacity:0.1; fill:none" points="311.028,1423.18 311.028,47.2441 "></polyline>
<polyline clip-path="url(#clip182)" style="stroke:#000000; stroke-linecap:round; stroke-linejoin:round; stroke-width:2; stroke-opacity:0.1; fill:none" points="806.593,1423.18 806.593,47.2441 "></polyline>
<polyline clip-path="url(#clip182)" style="stroke:#000000; stroke-linecap:round; stroke-linejoin:round; stroke-width:2; stroke-opacity:0.1; fill:none" points="1302.16,1423.18 1302.16,47.2441 "></polyline>
<polyline clip-path="url(#clip182)" style="stroke:#000000; stroke-linecap:round; stroke-linejoin:round; stroke-width:2; stroke-opacity:0.1; fill:none" points="1797.72,1423.18 1797.72,47.2441 "></polyline>
<polyline clip-path="url(#clip182)" style="stroke:#000000; stroke-linecap:round; stroke-linejoin:round; stroke-width:2; stroke-opacity:0.1; fill:none" points="2293.29,1423.18 2293.29,47.2441 "></polyline>
<polyline clip-path="url(#clip180)" style="stroke:#000000; stroke-linecap:round; stroke-linejoin:round; stroke-width:4; stroke-opacity:1; fill:none" points="251.56,1423.18 2352.76,1423.18 "></polyline>
<polyline clip-path="url(#clip180)" style="stroke:#000000; stroke-linecap:round; stroke-linejoin:round; stroke-width:4; stroke-opacity:1; fill:none" points="311.028,1423.18 311.028,1404.28 "></polyline>
<polyline clip-path="url(#clip180)" style="stroke:#000000; stroke-linecap:round; stroke-linejoin:round; stroke-width:4; stroke-opacity:1; fill:none" points="806.593,1423.18 806.593,1404.28 "></polyline>
<polyline clip-path="url(#clip180)" style="stroke:#000000; stroke-linecap:round; stroke-linejoin:round; stroke-width:4; stroke-opacity:1; fill:none" points="1302.16,1423.18 1302.16,1404.28 "></polyline>
<polyline clip-path="url(#clip180)" style="stroke:#000000; stroke-linecap:round; stroke-linejoin:round; stroke-width:4; stroke-opacity:1; fill:none" points="1797.72,1423.18 1797.72,1404.28 "></polyline>
<polyline clip-path="url(#clip180)" style="stroke:#000000; stroke-linecap:round; stroke-linejoin:round; stroke-width:4; stroke-opacity:1; fill:none" points="2293.29,1423.18 2293.29,1404.28 "></polyline>
<path clip-path="url(#clip180)" d="M311.028 1454.1 Q307.417 1454.1 305.588 1457.66 Q303.783 1461.2 303.783 1468.33 Q303.783 1475.44 305.588 1479.01 Q307.417 1482.55 311.028 1482.55 Q314.662 1482.55 316.468 1479.01 Q318.297 1475.44 318.297 1468.33 Q318.297 1461.2 316.468 1457.66 Q314.662 1454.1 311.028 1454.1 M311.028 1450.39 Q316.838 1450.39 319.894 1455 Q322.972 1459.58 322.972 1468.33 Q322.972 1477.06 319.894 1481.67 Q316.838 1486.25 311.028 1486.25 Q305.218 1486.25 302.139 1481.67 Q299.084 1477.06 299.084 1468.33 Q299.084 1459.58 302.139 1455 Q305.218 1450.39 311.028 1450.39 Z" fill="#000000" fill-rule="nonzero" fill-opacity="1"></path><path clip-path="url(#clip180)" d="M801.246 1481.64 L817.565 1481.64 L817.565 1485.58 L795.621 1485.58 L795.621 1481.64 Q798.283 1478.89 802.866 1474.26 Q807.473 1469.61 808.653 1468.27 Q810.899 1465.74 811.778 1464.01 Q812.681 1462.25 812.681 1460.56 Q812.681 1457.8 810.737 1456.07 Q808.815 1454.33 805.713 1454.33 Q803.514 1454.33 801.061 1455.09 Q798.63 1455.86 795.852 1457.41 L795.852 1452.69 Q798.676 1451.55 801.13 1450.97 Q803.584 1450.39 805.621 1450.39 Q810.991 1450.39 814.186 1453.08 Q817.38 1455.77 817.38 1460.26 Q817.38 1462.39 816.57 1464.31 Q815.783 1466.2 813.676 1468.8 Q813.098 1469.47 809.996 1472.69 Q806.894 1475.88 801.246 1481.64 Z" fill="#000000" fill-rule="nonzero" fill-opacity="1"></path><path clip-path="url(#clip180)" d="M1305.17 1455.09 L1293.36 1473.54 L1305.17 1473.54 L1305.17 1455.09 M1303.94 1451.02 L1309.82 1451.02 L1309.82 1473.54 L1314.75 1473.54 L1314.75 1477.43 L1309.82 1477.43 L1309.82 1485.58 L1305.17 1485.58 L1305.17 1477.43 L1289.57 1477.43 L1289.57 1472.92 L1303.94 1451.02 Z" fill="#000000" fill-rule="nonzero" fill-opacity="1"></path><path clip-path="url(#clip180)" d="M1798.13 1466.44 Q1794.98 1466.44 1793.13 1468.59 Q1791.3 1470.74 1791.3 1474.49 Q1791.3 1478.22 1793.13 1480.39 Q1794.98 1482.55 1798.13 1482.55 Q1801.28 1482.55 1803.11 1480.39 Q1804.96 1478.22 1804.96 1474.49 Q1804.96 1470.74 1803.11 1468.59 Q1801.28 1466.44 1798.13 1466.44 M1807.41 1451.78 L1807.41 1456.04 Q1805.65 1455.21 1803.85 1454.77 Q1802.06 1454.33 1800.3 1454.33 Q1795.67 1454.33 1793.22 1457.45 Q1790.79 1460.58 1790.44 1466.9 Q1791.81 1464.89 1793.87 1463.82 Q1795.93 1462.73 1798.41 1462.73 Q1803.61 1462.73 1806.62 1465.9 Q1809.66 1469.05 1809.66 1474.49 Q1809.66 1479.82 1806.51 1483.03 Q1803.36 1486.25 1798.13 1486.25 Q1792.13 1486.25 1788.96 1481.67 Q1785.79 1477.06 1785.79 1468.33 Q1785.79 1460.14 1789.68 1455.28 Q1793.57 1450.39 1800.12 1450.39 Q1801.88 1450.39 1803.66 1450.74 Q1805.47 1451.09 1807.41 1451.78 Z" fill="#000000" fill-rule="nonzero" fill-opacity="1"></path><path clip-path="url(#clip180)" d="M2293.29 1469.17 Q2289.95 1469.17 2288.03 1470.95 Q2286.14 1472.73 2286.14 1475.86 Q2286.14 1478.98 2288.03 1480.77 Q2289.95 1482.55 2293.29 1482.55 Q2296.62 1482.55 2298.54 1480.77 Q2300.46 1478.96 2300.46 1475.86 Q2300.46 1472.73 2298.54 1470.95 Q2296.64 1469.17 2293.29 1469.17 M2288.61 1467.18 Q2285.6 1466.44 2283.91 1464.38 Q2282.25 1462.32 2282.25 1459.35 Q2282.25 1455.21 2285.19 1452.8 Q2288.15 1450.39 2293.29 1450.39 Q2298.45 1450.39 2301.39 1452.8 Q2304.33 1455.21 2304.33 1459.35 Q2304.33 1462.32 2302.64 1464.38 Q2300.97 1466.44 2297.99 1467.18 Q2301.37 1467.96 2303.24 1470.26 Q2305.14 1472.55 2305.14 1475.86 Q2305.14 1480.88 2302.06 1483.57 Q2299.01 1486.25 2293.29 1486.25 Q2287.57 1486.25 2284.49 1483.57 Q2281.44 1480.88 2281.44 1475.86 Q2281.44 1472.55 2283.33 1470.26 Q2285.23 1467.96 2288.61 1467.18 M2286.9 1459.79 Q2286.9 1462.48 2288.57 1463.98 Q2290.26 1465.49 2293.29 1465.49 Q2296.3 1465.49 2297.99 1463.98 Q2299.7 1462.48 2299.7 1459.79 Q2299.7 1457.11 2297.99 1455.6 Q2296.3 1454.1 2293.29 1454.1 Q2290.26 1454.1 2288.57 1455.6 Q2286.9 1457.11 2286.9 1459.79 Z" fill="#000000" fill-rule="nonzero" fill-opacity="1"></path><path clip-path="url(#clip180)" d="M1176.36 1550.12 Q1169.26 1550.12 1166.52 1551.75 Q1163.78 1553.37 1163.78 1557.29 Q1163.78 1560.4 1165.82 1562.25 Q1167.89 1564.07 1171.42 1564.07 Q1176.29 1564.07 1179.22 1560.63 Q1182.18 1557.16 1182.18 1551.43 L1182.18 1550.12 L1176.36 1550.12 M1188.04 1547.71 L1188.04 1568.04 L1182.18 1568.04 L1182.18 1562.63 Q1180.18 1565.88 1177.18 1567.44 Q1174.19 1568.97 1169.86 1568.97 Q1164.39 1568.97 1161.14 1565.91 Q1157.93 1562.82 1157.93 1557.67 Q1157.93 1551.65 1161.94 1548.6 Q1165.98 1545.54 1173.97 1545.54 L1182.18 1545.54 L1182.18 1544.97 Q1182.18 1540.93 1179.51 1538.73 Q1176.87 1536.5 1172.06 1536.5 Q1169 1536.5 1166.11 1537.23 Q1163.21 1537.97 1160.54 1539.43 L1160.54 1534.02 Q1163.75 1532.78 1166.78 1532.17 Q1169.8 1531.54 1172.66 1531.54 Q1180.4 1531.54 1184.22 1535.55 Q1188.04 1539.56 1188.04 1547.71 Z" fill="#000000" fill-rule="nonzero" fill-opacity="1"></path><path clip-path="url(#clip180)" d="M1205.89 1522.27 L1205.89 1532.4 L1217.96 1532.4 L1217.96 1536.95 L1205.89 1536.95 L1205.89 1556.3 Q1205.89 1560.66 1207.07 1561.9 Q1208.28 1563.14 1211.94 1563.14 L1217.96 1563.14 L1217.96 1568.04 L1211.94 1568.04 Q1205.16 1568.04 1202.58 1565.53 Q1200 1562.98 1200 1556.3 L1200 1536.95 L1195.71 1536.95 L1195.71 1532.4 L1200 1532.4 L1200 1522.27 L1205.89 1522.27 Z" fill="#000000" fill-rule="nonzero" fill-opacity="1"></path><path clip-path="url(#clip180)" d="M1231.45 1522.27 L1231.45 1532.4 L1243.51 1532.4 L1243.51 1536.95 L1231.45 1536.95 L1231.45 1556.3 Q1231.45 1560.66 1232.63 1561.9 Q1233.84 1563.14 1237.5 1563.14 L1243.51 1563.14 L1243.51 1568.04 L1237.5 1568.04 Q1230.72 1568.04 1228.14 1565.53 Q1225.56 1562.98 1225.56 1556.3 L1225.56 1536.95 L1221.27 1536.95 L1221.27 1532.4 L1225.56 1532.4 L1225.56 1522.27 L1231.45 1522.27 Z" fill="#000000" fill-rule="nonzero" fill-opacity="1"></path><path clip-path="url(#clip180)" d="M1281.71 1548.76 L1281.71 1551.62 L1254.78 1551.62 Q1255.16 1557.67 1258.41 1560.85 Q1261.69 1564 1267.51 1564 Q1270.89 1564 1274.04 1563.17 Q1277.22 1562.35 1280.34 1560.69 L1280.34 1566.23 Q1277.19 1567.57 1273.88 1568.27 Q1270.57 1568.97 1267.16 1568.97 Q1258.63 1568.97 1253.64 1564 Q1248.67 1559.04 1248.67 1550.57 Q1248.67 1541.82 1253.38 1536.69 Q1258.12 1531.54 1266.14 1531.54 Q1273.34 1531.54 1277.51 1536.18 Q1281.71 1540.8 1281.71 1548.76 M1275.85 1547.04 Q1275.79 1542.23 1273.15 1539.37 Q1270.54 1536.5 1266.21 1536.5 Q1261.31 1536.5 1258.35 1539.27 Q1255.42 1542.04 1254.97 1547.07 L1275.85 1547.04 Z" fill="#000000" fill-rule="nonzero" fill-opacity="1"></path><path clip-path="url(#clip180)" d="M1319.07 1539.24 Q1321.27 1535.29 1324.33 1533.41 Q1327.38 1531.54 1331.52 1531.54 Q1337.09 1531.54 1340.11 1535.45 Q1343.14 1539.33 1343.14 1546.53 L1343.14 1568.04 L1337.25 1568.04 L1337.25 1546.72 Q1337.25 1541.59 1335.43 1539.11 Q1333.62 1536.63 1329.9 1536.63 Q1325.35 1536.63 1322.7 1539.65 Q1320.06 1542.68 1320.06 1547.9 L1320.06 1568.04 L1314.17 1568.04 L1314.17 1546.72 Q1314.17 1541.56 1312.36 1539.11 Q1310.54 1536.63 1306.76 1536.63 Q1302.27 1536.63 1299.63 1539.68 Q1296.99 1542.71 1296.99 1547.9 L1296.99 1568.04 L1291.1 1568.04 L1291.1 1532.4 L1296.99 1532.4 L1296.99 1537.93 Q1298.99 1534.66 1301.79 1533.1 Q1304.59 1531.54 1308.44 1531.54 Q1312.33 1531.54 1315.03 1533.51 Q1317.77 1535.48 1319.07 1539.24 Z" fill="#000000" fill-rule="nonzero" fill-opacity="1"></path><path clip-path="url(#clip180)" d="M1360.48 1562.7 L1360.48 1581.6 L1354.6 1581.6 L1354.6 1532.4 L1360.48 1532.4 L1360.48 1537.81 Q1362.33 1534.62 1365.13 1533.1 Q1367.96 1531.54 1371.88 1531.54 Q1378.37 1531.54 1382.41 1536.69 Q1386.49 1541.85 1386.49 1550.25 Q1386.49 1558.65 1382.41 1563.81 Q1378.37 1568.97 1371.88 1568.97 Q1367.96 1568.97 1365.13 1567.44 Q1362.33 1565.88 1360.48 1562.7 M1380.41 1550.25 Q1380.41 1543.79 1377.73 1540.13 Q1375.09 1536.44 1370.45 1536.44 Q1365.8 1536.44 1363.13 1540.13 Q1360.48 1543.79 1360.48 1550.25 Q1360.48 1556.71 1363.13 1560.4 Q1365.8 1564.07 1370.45 1564.07 Q1375.09 1564.07 1377.73 1560.4 Q1380.41 1556.71 1380.41 1550.25 Z" fill="#000000" fill-rule="nonzero" fill-opacity="1"></path><path clip-path="url(#clip180)" d="M1401.99 1522.27 L1401.99 1532.4 L1414.05 1532.4 L1414.05 1536.95 L1401.99 1536.95 L1401.99 1556.3 Q1401.99 1560.66 1403.17 1561.9 Q1404.38 1563.14 1408.04 1563.14 L1414.05 1563.14 L1414.05 1568.04 L1408.04 1568.04 Q1401.26 1568.04 1398.68 1565.53 Q1396.1 1562.98 1396.1 1556.3 L1396.1 1536.95 L1391.8 1536.95 L1391.8 1532.4 L1396.1 1532.4 L1396.1 1522.27 L1401.99 1522.27 Z" fill="#000000" fill-rule="nonzero" fill-opacity="1"></path><path clip-path="url(#clip180)" d="M1444.48 1533.45 L1444.48 1538.98 Q1442 1537.71 1439.32 1537.07 Q1436.65 1536.44 1433.78 1536.44 Q1429.42 1536.44 1427.23 1537.77 Q1425.06 1539.11 1425.06 1541.79 Q1425.06 1543.82 1426.62 1545 Q1428.18 1546.15 1432.89 1547.2 L1434.9 1547.64 Q1441.14 1548.98 1443.75 1551.43 Q1446.39 1553.85 1446.39 1558.21 Q1446.39 1563.17 1442.44 1566.07 Q1438.53 1568.97 1431.65 1568.97 Q1428.79 1568.97 1425.67 1568.39 Q1422.58 1567.85 1419.14 1566.74 L1419.14 1560.69 Q1422.39 1562.38 1425.54 1563.24 Q1428.69 1564.07 1431.78 1564.07 Q1435.92 1564.07 1438.15 1562.66 Q1440.37 1561.23 1440.37 1558.65 Q1440.37 1556.27 1438.75 1554.99 Q1437.16 1553.72 1431.72 1552.54 L1429.68 1552.07 Q1424.24 1550.92 1421.82 1548.56 Q1419.4 1546.18 1419.4 1542.04 Q1419.4 1537.01 1422.96 1534.27 Q1426.53 1531.54 1433.08 1531.54 Q1436.33 1531.54 1439.2 1532.01 Q1442.06 1532.49 1444.48 1533.45 Z" fill="#000000" fill-rule="nonzero" fill-opacity="1"></path><polyline clip-path="url(#clip182)" style="stroke:#000000; stroke-linecap:round; stroke-linejoin:round; stroke-width:2; stroke-opacity:0.1; fill:none" points="251.56,1129.72 2352.76,1129.72 "></polyline>
<polyline clip-path="url(#clip182)" style="stroke:#000000; stroke-linecap:round; stroke-linejoin:round; stroke-width:2; stroke-opacity:0.1; fill:none" points="251.56,310.388 2352.76,310.388 "></polyline>
<polyline clip-path="url(#clip180)" style="stroke:#000000; stroke-linecap:round; stroke-linejoin:round; stroke-width:4; stroke-opacity:1; fill:none" points="251.56,1423.18 251.56,47.2441 "></polyline>
<polyline clip-path="url(#clip180)" style="stroke:#000000; stroke-linecap:round; stroke-linejoin:round; stroke-width:4; stroke-opacity:1; fill:none" points="251.56,1129.72 270.458,1129.72 "></polyline>
<polyline clip-path="url(#clip180)" style="stroke:#000000; stroke-linecap:round; stroke-linejoin:round; stroke-width:4; stroke-opacity:1; fill:none" points="251.56,310.388 270.458,310.388 "></polyline>
<path clip-path="url(#clip180)" d="M114.931 1149.51 L122.57 1149.51 L122.57 1123.15 L114.26 1124.81 L114.26 1120.56 L122.524 1118.89 L127.2 1118.89 L127.2 1149.51 L134.839 1149.51 L134.839 1153.45 L114.931 1153.45 L114.931 1149.51 Z" fill="#000000" fill-rule="nonzero" fill-opacity="1"></path><path clip-path="url(#clip180)" d="M154.283 1121.97 Q150.672 1121.97 148.843 1125.53 Q147.038 1129.07 147.038 1136.2 Q147.038 1143.31 148.843 1146.88 Q150.672 1150.42 154.283 1150.42 Q157.917 1150.42 159.723 1146.88 Q161.552 1143.31 161.552 1136.2 Q161.552 1129.07 159.723 1125.53 Q157.917 1121.97 154.283 1121.97 M154.283 1118.26 Q160.093 1118.26 163.149 1122.87 Q166.227 1127.45 166.227 1136.2 Q166.227 1144.93 163.149 1149.54 Q160.093 1154.12 154.283 1154.12 Q148.473 1154.12 145.394 1149.54 Q142.339 1144.93 142.339 1136.2 Q142.339 1127.45 145.394 1122.87 Q148.473 1118.26 154.283 1118.26 Z" fill="#000000" fill-rule="nonzero" fill-opacity="1"></path><path clip-path="url(#clip180)" d="M166.227 1112.37 L190.339 1112.37 L190.339 1115.56 L166.227 1115.56 L166.227 1112.37 Z" fill="#000000" fill-rule="nonzero" fill-opacity="1"></path><path clip-path="url(#clip180)" d="M198.577 1097.96 L213.491 1097.96 L213.491 1101.16 L202.056 1101.16 L202.056 1108.04 Q202.884 1107.76 203.711 1107.63 Q204.539 1107.48 205.366 1107.48 Q210.068 1107.48 212.814 1110.05 Q215.56 1112.63 215.56 1117.03 Q215.56 1121.56 212.739 1124.08 Q209.918 1126.58 204.783 1126.58 Q203.015 1126.58 201.172 1126.28 Q199.348 1125.98 197.392 1125.38 L197.392 1121.56 Q199.085 1122.48 200.89 1122.94 Q202.696 1123.39 204.708 1123.39 Q207.962 1123.39 209.861 1121.68 Q211.761 1119.96 211.761 1117.03 Q211.761 1114.1 209.861 1112.38 Q207.962 1110.67 204.708 1110.67 Q203.185 1110.67 201.661 1111.01 Q200.157 1111.35 198.577 1112.06 L198.577 1097.96 Z" fill="#000000" fill-rule="nonzero" fill-opacity="1"></path><path clip-path="url(#clip180)" d="M144.855 330.18 L152.493 330.18 L152.493 303.815 L144.183 305.481 L144.183 301.222 L152.447 299.555 L157.123 299.555 L157.123 330.18 L164.762 330.18 L164.762 334.115 L144.855 334.115 L144.855 330.18 Z" fill="#000000" fill-rule="nonzero" fill-opacity="1"></path><path clip-path="url(#clip180)" d="M184.206 302.634 Q180.595 302.634 178.766 306.199 Q176.961 309.741 176.961 316.87 Q176.961 323.977 178.766 327.541 Q180.595 331.083 184.206 331.083 Q187.84 331.083 189.646 327.541 Q191.475 323.977 191.475 316.87 Q191.475 309.741 189.646 306.199 Q187.84 302.634 184.206 302.634 M184.206 298.93 Q190.016 298.93 193.072 303.537 Q196.151 308.12 196.151 316.87 Q196.151 325.597 193.072 330.203 Q190.016 334.787 184.206 334.787 Q178.396 334.787 175.317 330.203 Q172.262 325.597 172.262 316.87 Q172.262 308.12 175.317 303.537 Q178.396 298.93 184.206 298.93 Z" fill="#000000" fill-rule="nonzero" fill-opacity="1"></path><path clip-path="url(#clip180)" d="M205.855 281.126 Q202.921 281.126 201.436 284.023 Q199.969 286.9 199.969 292.693 Q199.969 298.467 201.436 301.364 Q202.921 304.241 205.855 304.241 Q208.808 304.241 210.275 301.364 Q211.761 298.467 211.761 292.693 Q211.761 286.9 210.275 284.023 Q208.808 281.126 205.855 281.126 M205.855 278.117 Q210.576 278.117 213.059 281.86 Q215.56 285.584 215.56 292.693 Q215.56 299.784 213.059 303.527 Q210.576 307.25 205.855 307.25 Q201.135 307.25 198.633 303.527 Q196.151 299.784 196.151 292.693 Q196.151 285.584 198.633 281.86 Q201.135 278.117 205.855 278.117 Z" fill="#000000" fill-rule="nonzero" fill-opacity="1"></path><path clip-path="url(#clip180)" d="M14.1925 841.885 L79.3773 841.885 L79.3773 847.296 L14.1925 847.296 L14.1925 841.885 Z" fill="#000000" fill-rule="nonzero" fill-opacity="1"></path><path clip-path="url(#clip180)" d="M58.657 821.801 L77.5631 821.801 L77.5631 827.69 L28.3562 827.69 L28.3562 821.801 L33.7671 821.801 Q30.5842 819.955 29.0564 817.155 Q27.4968 814.322 27.4968 810.407 Q27.4968 803.914 32.6531 799.872 Q37.8093 795.798 46.212 795.798 Q54.6147 795.798 59.771 799.872 Q64.9272 803.914 64.9272 810.407 Q64.9272 814.322 63.3994 817.155 Q61.8398 819.955 58.657 821.801 M46.212 801.877 Q39.7508 801.877 36.0905 804.55 Q32.3984 807.192 32.3984 811.839 Q32.3984 816.486 36.0905 819.16 Q39.7508 821.801 46.212 821.801 Q52.6732 821.801 56.3653 819.16 Q60.0256 816.486 60.0256 811.839 Q60.0256 807.192 56.3653 804.55 Q52.6732 801.877 46.212 801.877 Z" fill="#000000" fill-rule="nonzero" fill-opacity="1"></path><path clip-path="url(#clip180)" d="M14.5426 772.022 Q21.8632 776.287 29.0246 778.356 Q36.186 780.424 43.5384 780.424 Q50.8908 780.424 58.1159 778.356 Q65.3091 776.255 72.5979 772.022 L72.5979 777.114 Q65.1182 781.889 57.8931 784.276 Q50.668 786.631 43.5384 786.631 Q36.4406 786.631 29.2474 784.276 Q22.0542 781.92 14.5426 777.114 L14.5426 772.022 Z" fill="#000000" fill-rule="nonzero" fill-opacity="1"></path><path clip-path="url(#clip180)" d="M28.3562 763.205 L28.3562 735.387 L33.7034 735.387 L59.3254 757.412 L59.3254 735.387 L64.0042 735.387 L64.0042 764.001 L58.657 764.001 L33.035 741.976 L33.035 763.205 L28.3562 763.205 Z" fill="#000000" fill-rule="nonzero" fill-opacity="1"></path><path clip-path="url(#clip180)" d="M74.8259 699.357 L79.3773 699.357 L79.3773 733.223 L74.8259 733.223 L74.8259 699.357 Z" fill="#000000" fill-rule="nonzero" fill-opacity="1"></path><path clip-path="url(#clip180)" d="M14.479 694.074 L14.479 688.185 L43.7294 688.185 L28.3562 670.711 L28.3562 663.232 L45.0344 682.138 L64.0042 662.436 L64.0042 670.075 L46.5939 688.185 L64.0042 688.185 L64.0042 694.074 L14.479 694.074 Z" fill="#000000" fill-rule="nonzero" fill-opacity="1"></path><path clip-path="url(#clip180)" d="M14.5426 657.025 L14.5426 651.933 Q22.0542 647.158 29.2474 644.803 Q36.4406 642.416 43.5384 642.416 Q50.668 642.416 57.8931 644.803 Q65.1182 647.158 72.5979 651.933 L72.5979 657.025 Q65.3091 652.792 58.1159 650.723 Q50.8908 648.622 43.5384 648.622 Q36.186 648.622 29.0246 650.723 Q21.8632 652.792 14.5426 657.025 Z" fill="#000000" fill-rule="nonzero" fill-opacity="1"></path><path clip-path="url(#clip180)" d="M14.1925 623.128 L79.3773 623.128 L79.3773 628.539 L14.1925 628.539 L14.1925 623.128 Z" fill="#000000" fill-rule="nonzero" fill-opacity="1"></path><polyline clip-path="url(#clip182)" style="stroke:#009af9; stroke-linecap:round; stroke-linejoin:round; stroke-width:4; stroke-opacity:1; fill:none" points="311.028,86.1857 558.811,170.808 806.593,250.805 1054.38,314.954 1302.16,313.636 1549.94,390.824 1797.72,518.15 2045.51,808.187 2293.29,1384.24 "></polyline>
<path clip-path="url(#clip180)" d="M1998.73 196.789 L2282.72 196.789 L2282.72 93.1086 L1998.73 93.1086  Z" fill="#ffffff" fill-rule="evenodd" fill-opacity="1"></path>
<polyline clip-path="url(#clip180)" style="stroke:#000000; stroke-linecap:round; stroke-linejoin:round; stroke-width:4; stroke-opacity:1; fill:none" points="1998.73,196.789 2282.72,196.789 2282.72,93.1086 1998.73,93.1086 1998.73,196.789 "></polyline>
<polyline clip-path="url(#clip180)" style="stroke:#009af9; stroke-linecap:round; stroke-linejoin:round; stroke-width:4; stroke-opacity:1; fill:none" points="2022.08,144.949 2162.16,144.949 "></polyline>
<path clip-path="url(#clip180)" d="M2186.08 136.303 L2206.31 136.303 L2206.31 140.192 L2190.3 158.826 L2206.31 158.826 L2206.31 162.229 L2185.5 162.229 L2185.5 158.34 L2201.52 139.706 L2186.08 139.706 L2186.08 136.303 Z" fill="#000000" fill-rule="nonzero" fill-opacity="1"></path><path clip-path="url(#clip180)" d="M2232.52 170.099 L2232.52 173.409 L2207.89 173.409 L2207.89 170.099 L2232.52 170.099 Z" fill="#000000" fill-rule="nonzero" fill-opacity="1"></path><path clip-path="url(#clip180)" d="M2236.36 126.21 L2240.64 126.21 L2240.64 147.483 L2253.35 136.303 L2258.79 136.303 L2245.04 148.432 L2259.37 162.229 L2253.81 162.229 L2240.64 149.567 L2240.64 162.229 L2236.36 162.229 L2236.36 126.21 Z" fill="#000000" fill-rule="nonzero" fill-opacity="1"></path></svg>
